<?xml version="1.0" encoding="utf-8" standalone="no"?>
<!DOCTYPE svg PUBLIC "-//W3C//DTD SVG 1.1//EN"
  "http://www.w3.org/Graphics/SVG/1.1/DTD/svg11.dtd">
<svg xmlns:xlink="http://www.w3.org/1999/xlink" width="1152pt" height="288pt" viewBox="0 0 1152 288" xmlns="http://www.w3.org/2000/svg" version="1.1">
 <metadata>
  <rdf:RDF xmlns:dc="http://purl.org/dc/elements/1.1/" xmlns:cc="http://creativecommons.org/ns#" xmlns:rdf="http://www.w3.org/1999/02/22-rdf-syntax-ns#">
   <cc:Work>
    <dc:type rdf:resource="http://purl.org/dc/dcmitype/StillImage"/>
    <dc:date>2022-10-19T21:16:14.102891</dc:date>
    <dc:format>image/svg+xml</dc:format>
    <dc:creator>
     <cc:Agent>
      <dc:title>Matplotlib v3.5.1, https://matplotlib.org/</dc:title>
     </cc:Agent>
    </dc:creator>
   </cc:Work>
  </rdf:RDF>
 </metadata>
 <defs>
  <style type="text/css">*{stroke-linejoin: round; stroke-linecap: butt}</style>
 </defs>
 <g id="figure_1">
  <g id="patch_1">
   <path d="M 0 288 
L 1152 288 
L 1152 0 
L 0 0 
z
" style="fill: #ffffff"/>
  </g>
  <g id="axes_1">
   <g id="patch_2">
    <path d="M 144 252 
L 549.818182 252 
L 549.818182 34.56 
L 144 34.56 
z
" style="fill: #eaeaf2"/>
   </g>
   <g id="matplotlib.axis_1">
    <g id="xtick_1">
     <g id="line2d_1">
      <path d="M 179.049628 252 
L 179.049628 34.56 
" clip-path="url(#p208476eb99)" style="fill: none; stroke: #ffffff; stroke-width: 0.8; stroke-linecap: round"/>
     </g>
     <g id="text_1">
      <!-- 0 -->
      <g style="fill: #262626" transform="translate(175.868378 266.598437)scale(0.1 -0.1)">
       <defs>
        <path id="DejaVuSans-30" d="M 2034 4250 
Q 1547 4250 1301 3770 
Q 1056 3291 1056 2328 
Q 1056 1369 1301 889 
Q 1547 409 2034 409 
Q 2525 409 2770 889 
Q 3016 1369 3016 2328 
Q 3016 3291 2770 3770 
Q 2525 4250 2034 4250 
z
M 2034 4750 
Q 2819 4750 3233 4129 
Q 3647 3509 3647 2328 
Q 3647 1150 3233 529 
Q 2819 -91 2034 -91 
Q 1250 -91 836 529 
Q 422 1150 422 2328 
Q 422 3509 836 4129 
Q 1250 4750 2034 4750 
z
" transform="scale(0.015625)"/>
       </defs>
       <use xlink:href="#DejaVuSans-30"/>
      </g>
     </g>
    </g>
    <g id="xtick_2">
     <g id="line2d_2">
      <path d="M 245.962134 252 
L 245.962134 34.56 
" clip-path="url(#p208476eb99)" style="fill: none; stroke: #ffffff; stroke-width: 0.8; stroke-linecap: round"/>
     </g>
     <g id="text_2">
      <!-- 200000 -->
      <g style="fill: #262626" transform="translate(226.874634 266.598437)scale(0.1 -0.1)">
       <defs>
        <path id="DejaVuSans-32" d="M 1228 531 
L 3431 531 
L 3431 0 
L 469 0 
L 469 531 
Q 828 903 1448 1529 
Q 2069 2156 2228 2338 
Q 2531 2678 2651 2914 
Q 2772 3150 2772 3378 
Q 2772 3750 2511 3984 
Q 2250 4219 1831 4219 
Q 1534 4219 1204 4116 
Q 875 4013 500 3803 
L 500 4441 
Q 881 4594 1212 4672 
Q 1544 4750 1819 4750 
Q 2544 4750 2975 4387 
Q 3406 4025 3406 3419 
Q 3406 3131 3298 2873 
Q 3191 2616 2906 2266 
Q 2828 2175 2409 1742 
Q 1991 1309 1228 531 
z
" transform="scale(0.015625)"/>
       </defs>
       <use xlink:href="#DejaVuSans-32"/>
       <use xlink:href="#DejaVuSans-30" x="63.623047"/>
       <use xlink:href="#DejaVuSans-30" x="127.246094"/>
       <use xlink:href="#DejaVuSans-30" x="190.869141"/>
       <use xlink:href="#DejaVuSans-30" x="254.492188"/>
       <use xlink:href="#DejaVuSans-30" x="318.115234"/>
      </g>
     </g>
    </g>
    <g id="xtick_3">
     <g id="line2d_3">
      <path d="M 312.874641 252 
L 312.874641 34.56 
" clip-path="url(#p208476eb99)" style="fill: none; stroke: #ffffff; stroke-width: 0.8; stroke-linecap: round"/>
     </g>
     <g id="text_3">
      <!-- 400000 -->
      <g style="fill: #262626" transform="translate(293.787141 266.598437)scale(0.1 -0.1)">
       <defs>
        <path id="DejaVuSans-34" d="M 2419 4116 
L 825 1625 
L 2419 1625 
L 2419 4116 
z
M 2253 4666 
L 3047 4666 
L 3047 1625 
L 3713 1625 
L 3713 1100 
L 3047 1100 
L 3047 0 
L 2419 0 
L 2419 1100 
L 313 1100 
L 313 1709 
L 2253 4666 
z
" transform="scale(0.015625)"/>
       </defs>
       <use xlink:href="#DejaVuSans-34"/>
       <use xlink:href="#DejaVuSans-30" x="63.623047"/>
       <use xlink:href="#DejaVuSans-30" x="127.246094"/>
       <use xlink:href="#DejaVuSans-30" x="190.869141"/>
       <use xlink:href="#DejaVuSans-30" x="254.492188"/>
       <use xlink:href="#DejaVuSans-30" x="318.115234"/>
      </g>
     </g>
    </g>
    <g id="xtick_4">
     <g id="line2d_4">
      <path d="M 379.787147 252 
L 379.787147 34.56 
" clip-path="url(#p208476eb99)" style="fill: none; stroke: #ffffff; stroke-width: 0.8; stroke-linecap: round"/>
     </g>
     <g id="text_4">
      <!-- 600000 -->
      <g style="fill: #262626" transform="translate(360.699647 266.598437)scale(0.1 -0.1)">
       <defs>
        <path id="DejaVuSans-36" d="M 2113 2584 
Q 1688 2584 1439 2293 
Q 1191 2003 1191 1497 
Q 1191 994 1439 701 
Q 1688 409 2113 409 
Q 2538 409 2786 701 
Q 3034 994 3034 1497 
Q 3034 2003 2786 2293 
Q 2538 2584 2113 2584 
z
M 3366 4563 
L 3366 3988 
Q 3128 4100 2886 4159 
Q 2644 4219 2406 4219 
Q 1781 4219 1451 3797 
Q 1122 3375 1075 2522 
Q 1259 2794 1537 2939 
Q 1816 3084 2150 3084 
Q 2853 3084 3261 2657 
Q 3669 2231 3669 1497 
Q 3669 778 3244 343 
Q 2819 -91 2113 -91 
Q 1303 -91 875 529 
Q 447 1150 447 2328 
Q 447 3434 972 4092 
Q 1497 4750 2381 4750 
Q 2619 4750 2861 4703 
Q 3103 4656 3366 4563 
z
" transform="scale(0.015625)"/>
       </defs>
       <use xlink:href="#DejaVuSans-36"/>
       <use xlink:href="#DejaVuSans-30" x="63.623047"/>
       <use xlink:href="#DejaVuSans-30" x="127.246094"/>
       <use xlink:href="#DejaVuSans-30" x="190.869141"/>
       <use xlink:href="#DejaVuSans-30" x="254.492188"/>
       <use xlink:href="#DejaVuSans-30" x="318.115234"/>
      </g>
     </g>
    </g>
    <g id="xtick_5">
     <g id="line2d_5">
      <path d="M 446.699654 252 
L 446.699654 34.56 
" clip-path="url(#p208476eb99)" style="fill: none; stroke: #ffffff; stroke-width: 0.8; stroke-linecap: round"/>
     </g>
     <g id="text_5">
      <!-- 800000 -->
      <g style="fill: #262626" transform="translate(427.612154 266.598437)scale(0.1 -0.1)">
       <defs>
        <path id="DejaVuSans-38" d="M 2034 2216 
Q 1584 2216 1326 1975 
Q 1069 1734 1069 1313 
Q 1069 891 1326 650 
Q 1584 409 2034 409 
Q 2484 409 2743 651 
Q 3003 894 3003 1313 
Q 3003 1734 2745 1975 
Q 2488 2216 2034 2216 
z
M 1403 2484 
Q 997 2584 770 2862 
Q 544 3141 544 3541 
Q 544 4100 942 4425 
Q 1341 4750 2034 4750 
Q 2731 4750 3128 4425 
Q 3525 4100 3525 3541 
Q 3525 3141 3298 2862 
Q 3072 2584 2669 2484 
Q 3125 2378 3379 2068 
Q 3634 1759 3634 1313 
Q 3634 634 3220 271 
Q 2806 -91 2034 -91 
Q 1263 -91 848 271 
Q 434 634 434 1313 
Q 434 1759 690 2068 
Q 947 2378 1403 2484 
z
M 1172 3481 
Q 1172 3119 1398 2916 
Q 1625 2713 2034 2713 
Q 2441 2713 2670 2916 
Q 2900 3119 2900 3481 
Q 2900 3844 2670 4047 
Q 2441 4250 2034 4250 
Q 1625 4250 1398 4047 
Q 1172 3844 1172 3481 
z
" transform="scale(0.015625)"/>
       </defs>
       <use xlink:href="#DejaVuSans-38"/>
       <use xlink:href="#DejaVuSans-30" x="63.623047"/>
       <use xlink:href="#DejaVuSans-30" x="127.246094"/>
       <use xlink:href="#DejaVuSans-30" x="190.869141"/>
       <use xlink:href="#DejaVuSans-30" x="254.492188"/>
       <use xlink:href="#DejaVuSans-30" x="318.115234"/>
      </g>
     </g>
    </g>
    <g id="xtick_6">
     <g id="line2d_6">
      <path d="M 513.61216 252 
L 513.61216 34.56 
" clip-path="url(#p208476eb99)" style="fill: none; stroke: #ffffff; stroke-width: 0.8; stroke-linecap: round"/>
     </g>
     <g id="text_6">
      <!-- 1000000 -->
      <g style="fill: #262626" transform="translate(491.34341 266.598437)scale(0.1 -0.1)">
       <defs>
        <path id="DejaVuSans-31" d="M 794 531 
L 1825 531 
L 1825 4091 
L 703 3866 
L 703 4441 
L 1819 4666 
L 2450 4666 
L 2450 531 
L 3481 531 
L 3481 0 
L 794 0 
L 794 531 
z
" transform="scale(0.015625)"/>
       </defs>
       <use xlink:href="#DejaVuSans-31"/>
       <use xlink:href="#DejaVuSans-30" x="63.623047"/>
       <use xlink:href="#DejaVuSans-30" x="127.246094"/>
       <use xlink:href="#DejaVuSans-30" x="190.869141"/>
       <use xlink:href="#DejaVuSans-30" x="254.492188"/>
       <use xlink:href="#DejaVuSans-30" x="318.115234"/>
       <use xlink:href="#DejaVuSans-30" x="381.738281"/>
      </g>
     </g>
    </g>
    <g id="text_7">
     <!-- LIMIT_BAL -->
     <g style="fill: #262626" transform="translate(309.048153 283.658594)scale(0.15 -0.15)">
      <defs>
       <path id="DejaVuSans-4c" d="M 628 4666 
L 1259 4666 
L 1259 531 
L 3531 531 
L 3531 0 
L 628 0 
L 628 4666 
z
" transform="scale(0.015625)"/>
       <path id="DejaVuSans-49" d="M 628 4666 
L 1259 4666 
L 1259 0 
L 628 0 
L 628 4666 
z
" transform="scale(0.015625)"/>
       <path id="DejaVuSans-4d" d="M 628 4666 
L 1569 4666 
L 2759 1491 
L 3956 4666 
L 4897 4666 
L 4897 0 
L 4281 0 
L 4281 4097 
L 3078 897 
L 2444 897 
L 1241 4097 
L 1241 0 
L 628 0 
L 628 4666 
z
" transform="scale(0.015625)"/>
       <path id="DejaVuSans-54" d="M -19 4666 
L 3928 4666 
L 3928 4134 
L 2272 4134 
L 2272 0 
L 1638 0 
L 1638 4134 
L -19 4134 
L -19 4666 
z
" transform="scale(0.015625)"/>
       <path id="DejaVuSans-5f" d="M 3263 -1063 
L 3263 -1509 
L -63 -1509 
L -63 -1063 
L 3263 -1063 
z
" transform="scale(0.015625)"/>
       <path id="DejaVuSans-42" d="M 1259 2228 
L 1259 519 
L 2272 519 
Q 2781 519 3026 730 
Q 3272 941 3272 1375 
Q 3272 1813 3026 2020 
Q 2781 2228 2272 2228 
L 1259 2228 
z
M 1259 4147 
L 1259 2741 
L 2194 2741 
Q 2656 2741 2882 2914 
Q 3109 3088 3109 3444 
Q 3109 3797 2882 3972 
Q 2656 4147 2194 4147 
L 1259 4147 
z
M 628 4666 
L 2241 4666 
Q 2963 4666 3353 4366 
Q 3744 4066 3744 3513 
Q 3744 3084 3544 2831 
Q 3344 2578 2956 2516 
Q 3422 2416 3680 2098 
Q 3938 1781 3938 1306 
Q 3938 681 3513 340 
Q 3088 0 2303 0 
L 628 0 
L 628 4666 
z
" transform="scale(0.015625)"/>
       <path id="DejaVuSans-41" d="M 2188 4044 
L 1331 1722 
L 3047 1722 
L 2188 4044 
z
M 1831 4666 
L 2547 4666 
L 4325 0 
L 3669 0 
L 3244 1197 
L 1141 1197 
L 716 0 
L 50 0 
L 1831 4666 
z
" transform="scale(0.015625)"/>
      </defs>
      <use xlink:href="#DejaVuSans-4c"/>
      <use xlink:href="#DejaVuSans-49" x="55.712891"/>
      <use xlink:href="#DejaVuSans-4d" x="85.205078"/>
      <use xlink:href="#DejaVuSans-49" x="171.484375"/>
      <use xlink:href="#DejaVuSans-54" x="200.976562"/>
      <use xlink:href="#DejaVuSans-5f" x="262.060547"/>
      <use xlink:href="#DejaVuSans-42" x="312.060547"/>
      <use xlink:href="#DejaVuSans-41" x="380.664062"/>
      <use xlink:href="#DejaVuSans-4c" x="449.072266"/>
     </g>
    </g>
   </g>
   <g id="matplotlib.axis_2">
    <g id="ytick_1">
     <g id="line2d_7">
      <path d="M 144 252 
L 549.818182 252 
" clip-path="url(#p208476eb99)" style="fill: none; stroke: #ffffff; stroke-width: 0.8; stroke-linecap: round"/>
     </g>
     <g id="text_8">
      <!-- 0 -->
      <g style="fill: #262626" transform="translate(130.6375 255.799219)scale(0.1 -0.1)">
       <use xlink:href="#DejaVuSans-30"/>
      </g>
     </g>
    </g>
    <g id="ytick_2">
     <g id="line2d_8">
      <path d="M 144 219.756191 
L 549.818182 219.756191 
" clip-path="url(#p208476eb99)" style="fill: none; stroke: #ffffff; stroke-width: 0.8; stroke-linecap: round"/>
     </g>
     <g id="text_9">
      <!-- 1 -->
      <g style="fill: #262626" transform="translate(130.6375 223.55541)scale(0.1 -0.1)">
       <use xlink:href="#DejaVuSans-31"/>
      </g>
     </g>
    </g>
    <g id="ytick_3">
     <g id="line2d_9">
      <path d="M 144 187.512383 
L 549.818182 187.512383 
" clip-path="url(#p208476eb99)" style="fill: none; stroke: #ffffff; stroke-width: 0.8; stroke-linecap: round"/>
     </g>
     <g id="text_10">
      <!-- 2 -->
      <g style="fill: #262626" transform="translate(130.6375 191.311602)scale(0.1 -0.1)">
       <use xlink:href="#DejaVuSans-32"/>
      </g>
     </g>
    </g>
    <g id="ytick_4">
     <g id="line2d_10">
      <path d="M 144 155.268574 
L 549.818182 155.268574 
" clip-path="url(#p208476eb99)" style="fill: none; stroke: #ffffff; stroke-width: 0.8; stroke-linecap: round"/>
     </g>
     <g id="text_11">
      <!-- 3 -->
      <g style="fill: #262626" transform="translate(130.6375 159.067793)scale(0.1 -0.1)">
       <defs>
        <path id="DejaVuSans-33" d="M 2597 2516 
Q 3050 2419 3304 2112 
Q 3559 1806 3559 1356 
Q 3559 666 3084 287 
Q 2609 -91 1734 -91 
Q 1441 -91 1130 -33 
Q 819 25 488 141 
L 488 750 
Q 750 597 1062 519 
Q 1375 441 1716 441 
Q 2309 441 2620 675 
Q 2931 909 2931 1356 
Q 2931 1769 2642 2001 
Q 2353 2234 1838 2234 
L 1294 2234 
L 1294 2753 
L 1863 2753 
Q 2328 2753 2575 2939 
Q 2822 3125 2822 3475 
Q 2822 3834 2567 4026 
Q 2313 4219 1838 4219 
Q 1578 4219 1281 4162 
Q 984 4106 628 3988 
L 628 4550 
Q 988 4650 1302 4700 
Q 1616 4750 1894 4750 
Q 2613 4750 3031 4423 
Q 3450 4097 3450 3541 
Q 3450 3153 3228 2886 
Q 3006 2619 2597 2516 
z
" transform="scale(0.015625)"/>
       </defs>
       <use xlink:href="#DejaVuSans-33"/>
      </g>
     </g>
    </g>
    <g id="ytick_5">
     <g id="line2d_11">
      <path d="M 144 123.024766 
L 549.818182 123.024766 
" clip-path="url(#p208476eb99)" style="fill: none; stroke: #ffffff; stroke-width: 0.8; stroke-linecap: round"/>
     </g>
     <g id="text_12">
      <!-- 4 -->
      <g style="fill: #262626" transform="translate(130.6375 126.823984)scale(0.1 -0.1)">
       <use xlink:href="#DejaVuSans-34"/>
      </g>
     </g>
    </g>
    <g id="ytick_6">
     <g id="line2d_12">
      <path d="M 144 90.780957 
L 549.818182 90.780957 
" clip-path="url(#p208476eb99)" style="fill: none; stroke: #ffffff; stroke-width: 0.8; stroke-linecap: round"/>
     </g>
     <g id="text_13">
      <!-- 5 -->
      <g style="fill: #262626" transform="translate(130.6375 94.580176)scale(0.1 -0.1)">
       <defs>
        <path id="DejaVuSans-35" d="M 691 4666 
L 3169 4666 
L 3169 4134 
L 1269 4134 
L 1269 2991 
Q 1406 3038 1543 3061 
Q 1681 3084 1819 3084 
Q 2600 3084 3056 2656 
Q 3513 2228 3513 1497 
Q 3513 744 3044 326 
Q 2575 -91 1722 -91 
Q 1428 -91 1123 -41 
Q 819 9 494 109 
L 494 744 
Q 775 591 1075 516 
Q 1375 441 1709 441 
Q 2250 441 2565 725 
Q 2881 1009 2881 1497 
Q 2881 1984 2565 2268 
Q 2250 2553 1709 2553 
Q 1456 2553 1204 2497 
Q 953 2441 691 2322 
L 691 4666 
z
" transform="scale(0.015625)"/>
       </defs>
       <use xlink:href="#DejaVuSans-35"/>
      </g>
     </g>
    </g>
    <g id="ytick_7">
     <g id="line2d_13">
      <path d="M 144 58.537148 
L 549.818182 58.537148 
" clip-path="url(#p208476eb99)" style="fill: none; stroke: #ffffff; stroke-width: 0.8; stroke-linecap: round"/>
     </g>
     <g id="text_14">
      <!-- 6 -->
      <g style="fill: #262626" transform="translate(130.6375 62.336367)scale(0.1 -0.1)">
       <use xlink:href="#DejaVuSans-36"/>
      </g>
     </g>
    </g>
    <g id="text_15">
     <!-- 1e−6 -->
     <g style="fill: #262626" transform="translate(144 31.56)scale(0.1 -0.1)">
      <defs>
       <path id="DejaVuSans-65" d="M 3597 1894 
L 3597 1613 
L 953 1613 
Q 991 1019 1311 708 
Q 1631 397 2203 397 
Q 2534 397 2845 478 
Q 3156 559 3463 722 
L 3463 178 
Q 3153 47 2828 -22 
Q 2503 -91 2169 -91 
Q 1331 -91 842 396 
Q 353 884 353 1716 
Q 353 2575 817 3079 
Q 1281 3584 2069 3584 
Q 2775 3584 3186 3129 
Q 3597 2675 3597 1894 
z
M 3022 2063 
Q 3016 2534 2758 2815 
Q 2500 3097 2075 3097 
Q 1594 3097 1305 2825 
Q 1016 2553 972 2059 
L 3022 2063 
z
" transform="scale(0.015625)"/>
       <path id="DejaVuSans-2212" d="M 678 2272 
L 4684 2272 
L 4684 1741 
L 678 1741 
L 678 2272 
z
" transform="scale(0.015625)"/>
      </defs>
      <use xlink:href="#DejaVuSans-31"/>
      <use xlink:href="#DejaVuSans-65" x="63.623047"/>
      <use xlink:href="#DejaVuSans-2212" x="125.146484"/>
      <use xlink:href="#DejaVuSans-36" x="208.935547"/>
     </g>
    </g>
   </g>
   <g id="PolyCollection_1">
    <defs>
     <path id="m1cb3f7f7bc" d="M 164.635513 -36.177651 
L 164.635513 -36 
L 166.478409 -36 
L 168.321305 -36 
L 170.164202 -36 
L 172.007098 -36 
L 173.849995 -36 
L 175.692891 -36 
L 177.535787 -36 
L 179.378684 -36 
L 181.22158 -36 
L 183.064477 -36 
L 184.907373 -36 
L 186.75027 -36 
L 188.593166 -36 
L 190.436062 -36 
L 192.278959 -36 
L 194.121855 -36 
L 195.964752 -36 
L 197.807648 -36 
L 199.650545 -36 
L 201.493441 -36 
L 203.336337 -36 
L 205.179234 -36 
L 207.02213 -36 
L 208.865027 -36 
L 210.707923 -36 
L 212.55082 -36 
L 214.393716 -36 
L 216.236612 -36 
L 218.079509 -36 
L 219.922405 -36 
L 221.765302 -36 
L 223.608198 -36 
L 225.451094 -36 
L 227.293991 -36 
L 229.136887 -36 
L 230.979784 -36 
L 232.82268 -36 
L 234.665577 -36 
L 236.508473 -36 
L 238.351369 -36 
L 240.194266 -36 
L 242.037162 -36 
L 243.880059 -36 
L 245.722955 -36 
L 247.565852 -36 
L 249.408748 -36 
L 251.251644 -36 
L 253.094541 -36 
L 254.937437 -36 
L 256.780334 -36 
L 258.62323 -36 
L 260.466127 -36 
L 262.309023 -36 
L 264.151919 -36 
L 265.994816 -36 
L 267.837712 -36 
L 269.680609 -36 
L 271.523505 -36 
L 273.366402 -36 
L 275.209298 -36 
L 277.052194 -36 
L 278.895091 -36 
L 280.737987 -36 
L 282.580884 -36 
L 284.42378 -36 
L 286.266676 -36 
L 288.109573 -36 
L 289.952469 -36 
L 291.795366 -36 
L 293.638262 -36 
L 295.481159 -36 
L 297.324055 -36 
L 299.166951 -36 
L 301.009848 -36 
L 302.852744 -36 
L 304.695641 -36 
L 306.538537 -36 
L 308.381434 -36 
L 310.22433 -36 
L 312.067226 -36 
L 313.910123 -36 
L 315.753019 -36 
L 317.595916 -36 
L 319.438812 -36 
L 321.281709 -36 
L 323.124605 -36 
L 324.967501 -36 
L 326.810398 -36 
L 328.653294 -36 
L 330.496191 -36 
L 332.339087 -36 
L 334.181983 -36 
L 336.02488 -36 
L 337.867776 -36 
L 339.710673 -36 
L 341.553569 -36 
L 343.396466 -36 
L 345.239362 -36 
L 347.082258 -36 
L 348.925155 -36 
L 350.768051 -36 
L 352.610948 -36 
L 354.453844 -36 
L 356.296741 -36 
L 358.139637 -36 
L 359.982533 -36 
L 361.82543 -36 
L 363.668326 -36 
L 365.511223 -36 
L 367.354119 -36 
L 369.197016 -36 
L 371.039912 -36 
L 372.882808 -36 
L 374.725705 -36 
L 376.568601 -36 
L 378.411498 -36 
L 380.254394 -36 
L 382.097291 -36 
L 383.940187 -36 
L 385.783083 -36 
L 387.62598 -36 
L 389.468876 -36 
L 391.311773 -36 
L 393.154669 -36 
L 394.997565 -36 
L 396.840462 -36 
L 398.683358 -36 
L 400.526255 -36 
L 402.369151 -36 
L 404.212048 -36 
L 406.054944 -36 
L 407.89784 -36 
L 409.740737 -36 
L 411.583633 -36 
L 413.42653 -36 
L 415.269426 -36 
L 417.112323 -36 
L 418.955219 -36 
L 420.798115 -36 
L 422.641012 -36 
L 424.483908 -36 
L 426.326805 -36 
L 428.169701 -36 
L 430.012598 -36 
L 431.855494 -36 
L 433.69839 -36 
L 435.541287 -36 
L 437.384183 -36 
L 439.22708 -36 
L 441.069976 -36 
L 442.912872 -36 
L 444.755769 -36 
L 446.598665 -36 
L 448.441562 -36 
L 450.284458 -36 
L 452.127355 -36 
L 453.970251 -36 
L 455.813147 -36 
L 457.656044 -36 
L 459.49894 -36 
L 461.341837 -36 
L 463.184733 -36 
L 465.02763 -36 
L 466.870526 -36 
L 468.713422 -36 
L 470.556319 -36 
L 472.399215 -36 
L 474.242112 -36 
L 476.085008 -36 
L 477.927905 -36 
L 479.770801 -36 
L 481.613697 -36 
L 483.456594 -36 
L 485.29949 -36 
L 487.142387 -36 
L 488.985283 -36 
L 490.82818 -36 
L 492.671076 -36 
L 494.513972 -36 
L 496.356869 -36 
L 498.199765 -36 
L 500.042662 -36 
L 501.885558 -36 
L 503.728454 -36 
L 505.571351 -36 
L 507.414247 -36 
L 509.257144 -36 
L 511.10004 -36 
L 512.942937 -36 
L 514.785833 -36 
L 516.628729 -36 
L 518.471626 -36 
L 520.314522 -36 
L 522.157419 -36 
L 524.000315 -36 
L 525.843212 -36 
L 527.686108 -36 
L 529.529004 -36 
L 531.371901 -36 
L 531.371901 -36.000351 
L 531.371901 -36.000351 
L 529.529004 -36.000851 
L 527.686108 -36.001873 
L 525.843212 -36.00374 
L 524.000315 -36.00678 
L 522.157419 -36.011154 
L 520.314522 -36.016654 
L 518.471626 -36.022571 
L 516.628729 -36.027764 
L 514.785833 -36.030998 
L 512.942937 -36.031412 
L 511.10004 -36.028891 
L 509.257144 -36.024118 
L 507.414247 -36.018274 
L 505.571351 -36.012568 
L 503.728454 -36.007845 
L 501.885558 -36.004444 
L 500.042662 -36.002285 
L 498.199765 -36.001067 
L 496.356869 -36.000452 
L 494.513972 -36.000174 
L 492.671076 -36.000061 
L 490.82818 -36.000019 
L 488.985283 -36.000006 
L 487.142387 -36.000001 
L 485.29949 -36 
L 483.456594 -36 
L 481.613697 -36 
L 479.770801 -36 
L 477.927905 -36 
L 476.085008 -36 
L 474.242112 -36.000001 
L 472.399215 -36.000005 
L 470.556319 -36.000019 
L 468.713422 -36.000063 
L 466.870526 -36.000193 
L 465.02763 -36.000533 
L 463.184733 -36.001339 
L 461.341837 -36.003064 
L 459.49894 -36.006389 
L 457.656044 -36.012157 
L 455.813147 -36.021155 
L 453.970251 -36.033766 
L 452.127355 -36.049629 
L 450.284458 -36.067533 
L 448.441562 -36.085695 
L 446.598665 -36.102378 
L 444.755769 -36.116619 
L 442.912872 -36.128696 
L 441.069976 -36.140113 
L 439.22708 -36.153034 
L 437.384183 -36.169326 
L 435.541287 -36.189634 
L 433.69839 -36.213011 
L 431.855494 -36.237494 
L 430.012598 -36.261496 
L 428.169701 -36.285221 
L 426.326805 -36.311097 
L 424.483908 -36.342665 
L 422.641012 -36.382293 
L 420.798115 -36.428895 
L 418.955219 -36.477056 
L 417.112323 -36.51834 
L 415.269426 -36.54446 
L 413.42653 -36.550837 
L 411.583633 -36.538747 
L 409.740737 -36.514927 
L 407.89784 -36.489001 
L 406.054944 -36.470279 
L 404.212048 -36.465542 
L 402.369151 -36.478467 
L 400.526255 -36.510213 
L 398.683358 -36.560223 
L 396.840462 -36.626756 
L 394.997565 -36.707161 
L 393.154669 -36.798103 
L 391.311773 -36.895669 
L 389.468876 -36.995137 
L 387.62598 -37.09051 
L 385.783083 -37.17449 
L 383.940187 -37.239625 
L 382.097291 -37.280678 
L 380.254394 -37.297118 
L 378.411498 -37.294139 
L 376.568601 -37.281266 
L 374.725705 -37.269081 
L 372.882808 -37.265815 
L 371.039912 -37.275842 
L 369.197016 -37.301628 
L 367.354119 -37.350348 
L 365.511223 -37.446092 
L 363.668326 -37.647617 
L 361.82543 -38.067896 
L 359.982533 -38.884649 
L 358.139637 -40.323086 
L 356.296741 -42.591582 
L 354.453844 -45.768874 
L 352.610948 -49.679658 
L 350.768051 -53.833691 
L 348.925155 -57.503021 
L 347.082258 -59.948069 
L 345.239362 -60.703368 
L 343.396466 -59.772111 
L 341.553569 -57.616216 
L 339.710673 -54.948606 
L 337.867776 -52.448833 
L 336.02488 -50.550067 
L 334.181983 -49.378811 
L 332.339087 -48.831505 
L 330.496191 -48.711796 
L 328.653294 -48.850122 
L 326.810398 -49.162509 
L 324.967501 -49.64654 
L 323.124605 -50.339185 
L 321.281709 -51.267808 
L 319.438812 -52.417564 
L 317.595916 -53.726333 
L 315.753019 -55.110308 
L 313.910123 -56.515887 
L 312.067226 -57.978272 
L 310.22433 -59.646954 
L 308.381434 -61.734778 
L 306.538537 -64.382803 
L 304.695641 -67.499879 
L 302.852744 -70.685782 
L 301.009848 -73.325097 
L 299.166951 -74.838928 
L 297.324055 -74.967201 
L 295.481159 -73.917224 
L 293.638262 -72.291124 
L 291.795366 -70.839795 
L 289.952469 -70.182854 
L 288.109573 -70.625887 
L 286.266676 -72.125442 
L 284.42378 -74.370923 
L 282.580884 -76.919359 
L 280.737987 -79.330491 
L 278.895091 -81.274112 
L 277.052194 -82.596919 
L 275.209298 -83.342409 
L 273.366402 -83.723558 
L 271.523505 -84.057931 
L 269.680609 -84.683904 
L 267.837712 -85.879971 
L 265.994816 -87.806035 
L 264.151919 -90.479941 
L 262.309023 -93.796906 
L 260.466127 -97.590162 
L 258.62323 -101.710785 
L 256.780334 -106.078933 
L 254.937437 -110.655393 
L 253.094541 -115.328668 
L 251.251644 -119.792965 
L 249.408748 -123.536606 
L 247.565852 -126.005365 
L 245.722955 -126.872295 
L 243.880059 -126.244305 
L 242.037162 -124.662923 
L 240.194266 -122.894196 
L 238.351369 -121.631766 
L 236.508473 -121.261335 
L 234.665577 -121.766967 
L 232.82268 -122.782137 
L 230.979784 -123.749986 
L 229.136887 -124.14126 
L 227.293991 -123.659563 
L 225.451094 -122.356245 
L 223.608198 -120.609926 
L 221.765302 -118.990037 
L 219.922405 -118.074934 
L 218.079509 -118.299208 
L 216.236612 -119.870893 
L 214.393716 -122.76272 
L 212.55082 -126.766008 
L 210.707923 -131.595432 
L 208.865027 -137.022357 
L 207.02213 -142.979318 
L 205.179234 -149.545595 
L 203.336337 -156.756762 
L 201.493441 -164.309344 
L 199.650545 -171.373676 
L 197.807648 -176.724312 
L 195.964752 -179.179739 
L 194.121855 -178.068435 
L 192.278959 -173.37956 
L 190.436062 -165.512521 
L 188.593166 -154.887917 
L 186.75027 -141.784943 
L 184.907373 -126.528945 
L 183.064477 -109.811585 
L 181.22158 -92.808904 
L 179.378684 -76.950378 
L 177.535787 -63.480875 
L 175.692891 -53.093802 
L 173.849995 -45.825371 
L 172.007098 -41.20741 
L 170.164202 -38.540811 
L 168.321305 -37.139908 
L 166.478409 -36.469752 
L 164.635513 -36.177651 
z
" style="stroke: #19f108"/>
    </defs>
    <g clip-path="url(#p208476eb99)">
     <use xlink:href="#m1cb3f7f7bc" x="0" y="288" style="fill: #19f108; fill-opacity: 0.25; stroke: #19f108"/>
    </g>
   </g>
   <g id="PolyCollection_2">
    <defs>
     <path id="md88164384a" d="M 162.446281 -36.379674 
L 162.446281 -36 
L 163.874063 -36 
L 165.301845 -36 
L 166.729627 -36 
L 168.157408 -36 
L 169.58519 -36 
L 171.012972 -36 
L 172.440754 -36 
L 173.868536 -36 
L 175.296318 -36 
L 176.7241 -36 
L 178.151882 -36 
L 179.579663 -36 
L 181.007445 -36 
L 182.435227 -36 
L 183.863009 -36 
L 185.290791 -36 
L 186.718573 -36 
L 188.146355 -36 
L 189.574137 -36 
L 191.001918 -36 
L 192.4297 -36 
L 193.857482 -36 
L 195.285264 -36 
L 196.713046 -36 
L 198.140828 -36 
L 199.56861 -36 
L 200.996392 -36 
L 202.424173 -36 
L 203.851955 -36 
L 205.279737 -36 
L 206.707519 -36 
L 208.135301 -36 
L 209.563083 -36 
L 210.990865 -36 
L 212.418647 -36 
L 213.846428 -36 
L 215.27421 -36 
L 216.701992 -36 
L 218.129774 -36 
L 219.557556 -36 
L 220.985338 -36 
L 222.41312 -36 
L 223.840902 -36 
L 225.268683 -36 
L 226.696465 -36 
L 228.124247 -36 
L 229.552029 -36 
L 230.979811 -36 
L 232.407593 -36 
L 233.835375 -36 
L 235.263157 -36 
L 236.690938 -36 
L 238.11872 -36 
L 239.546502 -36 
L 240.974284 -36 
L 242.402066 -36 
L 243.829848 -36 
L 245.25763 -36 
L 246.685412 -36 
L 248.113193 -36 
L 249.540975 -36 
L 250.968757 -36 
L 252.396539 -36 
L 253.824321 -36 
L 255.252103 -36 
L 256.679885 -36 
L 258.107667 -36 
L 259.535448 -36 
L 260.96323 -36 
L 262.391012 -36 
L 263.818794 -36 
L 265.246576 -36 
L 266.674358 -36 
L 268.10214 -36 
L 269.529922 -36 
L 270.957703 -36 
L 272.385485 -36 
L 273.813267 -36 
L 275.241049 -36 
L 276.668831 -36 
L 278.096613 -36 
L 279.524395 -36 
L 280.952176 -36 
L 282.379958 -36 
L 283.80774 -36 
L 285.235522 -36 
L 286.663304 -36 
L 288.091086 -36 
L 289.518868 -36 
L 290.94665 -36 
L 292.374431 -36 
L 293.802213 -36 
L 295.229995 -36 
L 296.657777 -36 
L 298.085559 -36 
L 299.513341 -36 
L 300.941123 -36 
L 302.368905 -36 
L 303.796686 -36 
L 305.224468 -36 
L 306.65225 -36 
L 308.080032 -36 
L 309.507814 -36 
L 310.935596 -36 
L 312.363378 -36 
L 313.79116 -36 
L 315.218941 -36 
L 316.646723 -36 
L 318.074505 -36 
L 319.502287 -36 
L 320.930069 -36 
L 322.357851 -36 
L 323.785633 -36 
L 325.213415 -36 
L 326.641196 -36 
L 328.068978 -36 
L 329.49676 -36 
L 330.924542 -36 
L 332.352324 -36 
L 333.780106 -36 
L 335.207888 -36 
L 336.63567 -36 
L 338.063451 -36 
L 339.491233 -36 
L 340.919015 -36 
L 342.346797 -36 
L 343.774579 -36 
L 345.202361 -36 
L 346.630143 -36 
L 348.057925 -36 
L 349.485706 -36 
L 350.913488 -36 
L 352.34127 -36 
L 353.769052 -36 
L 355.196834 -36 
L 356.624616 -36 
L 358.052398 -36 
L 359.48018 -36 
L 360.907961 -36 
L 362.335743 -36 
L 363.763525 -36 
L 365.191307 -36 
L 366.619089 -36 
L 368.046871 -36 
L 369.474653 -36 
L 370.902435 -36 
L 372.330216 -36 
L 373.757998 -36 
L 375.18578 -36 
L 376.613562 -36 
L 378.041344 -36 
L 379.469126 -36 
L 380.896908 -36 
L 382.32469 -36 
L 383.752471 -36 
L 385.180253 -36 
L 386.608035 -36 
L 388.035817 -36 
L 389.463599 -36 
L 390.891381 -36 
L 392.319163 -36 
L 393.746945 -36 
L 395.174726 -36 
L 396.602508 -36 
L 398.03029 -36 
L 399.458072 -36 
L 400.885854 -36 
L 402.313636 -36 
L 403.741418 -36 
L 405.169199 -36 
L 406.596981 -36 
L 408.024763 -36 
L 409.452545 -36 
L 410.880327 -36 
L 412.308109 -36 
L 413.735891 -36 
L 415.163673 -36 
L 416.591454 -36 
L 418.019236 -36 
L 419.447018 -36 
L 420.8748 -36 
L 422.302582 -36 
L 423.730364 -36 
L 425.158146 -36 
L 426.585928 -36 
L 428.013709 -36 
L 429.441491 -36 
L 430.869273 -36 
L 432.297055 -36 
L 433.724837 -36 
L 435.152619 -36 
L 436.580401 -36 
L 438.008183 -36 
L 439.435964 -36 
L 440.863746 -36 
L 442.291528 -36 
L 443.71931 -36 
L 445.147092 -36 
L 446.574874 -36 
L 446.574874 -36.001124 
L 446.574874 -36.001124 
L 445.147092 -36.002109 
L 443.71931 -36.003787 
L 442.291528 -36.006509 
L 440.863746 -36.010718 
L 439.435964 -36.016919 
L 438.008183 -36.025629 
L 436.580401 -36.037297 
L 435.152619 -36.052207 
L 433.724837 -36.070396 
L 432.297055 -36.091588 
L 430.869273 -36.115174 
L 429.441491 -36.140243 
L 428.013709 -36.165648 
L 426.585928 -36.190099 
L 425.158146 -36.212268 
L 423.730364 -36.230906 
L 422.302582 -36.244953 
L 420.8748 -36.253666 
L 419.447018 -36.256728 
L 418.019236 -36.254317 
L 416.591454 -36.247101 
L 415.163673 -36.23613 
L 413.735891 -36.222636 
L 412.308109 -36.2078 
L 410.880327 -36.192552 
L 409.452545 -36.177481 
L 408.024763 -36.162895 
L 406.596981 -36.148995 
L 405.169199 -36.136112 
L 403.741418 -36.124887 
L 402.313636 -36.11635 
L 400.885854 -36.111833 
L 399.458072 -36.112762 
L 398.03029 -36.120379 
L 396.602508 -36.135497 
L 395.174726 -36.158337 
L 393.746945 -36.188496 
L 392.319163 -36.22503 
L 390.891381 -36.266597 
L 389.463599 -36.311599 
L 388.035817 -36.358272 
L 386.608035 -36.404718 
L 385.180253 -36.448926 
L 383.752471 -36.488846 
L 382.32469 -36.522603 
L 380.896908 -36.548839 
L 379.469126 -36.567139 
L 378.041344 -36.578372 
L 376.613562 -36.584817 
L 375.18578 -36.589929 
L 373.757998 -36.597785 
L 372.330216 -36.612366 
L 370.902435 -36.636975 
L 369.474653 -36.674171 
L 368.046871 -36.726474 
L 366.619089 -36.797954 
L 365.191307 -36.896453 
L 363.763525 -37.035858 
L 362.335743 -37.237528 
L 360.907961 -37.529843 
L 359.48018 -37.945041 
L 358.052398 -38.513008 
L 356.624616 -39.252642 
L 355.196834 -40.162454 
L 353.769052 -41.213044 
L 352.34127 -42.344408 
L 350.913488 -43.470316 
L 349.485706 -44.490346 
L 348.057925 -45.307667 
L 346.630143 -45.84848 
L 345.202361 -46.077833 
L 343.774579 -46.007153 
L 342.346797 -45.691106 
L 340.919015 -45.214643 
L 339.491233 -44.673988 
L 338.063451 -44.156969 
L 336.63567 -43.727807 
L 335.207888 -43.419658 
L 333.780106 -43.235621 
L 332.352324 -43.156481 
L 330.924542 -43.151975 
L 329.49676 -43.192032 
L 328.068978 -43.255154 
L 326.641196 -43.332407 
L 325.213415 -43.426995 
L 323.785633 -43.550594 
L 322.357851 -43.718337 
L 320.930069 -43.944455 
L 319.502287 -44.240162 
L 318.074505 -44.61448 
L 316.646723 -45.077637 
L 315.218941 -45.645562 
L 313.79116 -46.34318 
L 312.363378 -47.203992 
L 310.935596 -48.264073 
L 309.507814 -49.550299 
L 308.080032 -51.064919 
L 306.65225 -52.770957 
L 305.224468 -54.584122 
L 303.796686 -56.376254 
L 302.368905 -57.992388 
L 300.941123 -59.279133 
L 299.513341 -60.117711 
L 298.085559 -60.452587 
L 296.657777 -60.307204 
L 295.229995 -59.782029 
L 293.802213 -59.035369 
L 292.374431 -58.252381 
L 290.94665 -57.610445 
L 289.518868 -57.24906 
L 288.091086 -57.250029 
L 286.663304 -57.630311 
L 285.235522 -58.346888 
L 283.80774 -59.310979 
L 282.379958 -60.408133 
L 280.952176 -61.520591 
L 279.524395 -62.548455 
L 278.096613 -63.426526 
L 276.668831 -64.134231 
L 275.241049 -64.697121 
L 273.813267 -65.179964 
L 272.385485 -65.673121 
L 270.957703 -66.275309 
L 269.529922 -67.076439 
L 268.10214 -68.143957 
L 266.674358 -69.515032 
L 265.246576 -71.195517 
L 263.818794 -73.165041 
L 262.391012 -75.386291 
L 260.96323 -77.815541 
L 259.535448 -80.411035 
L 258.107667 -83.136216 
L 256.679885 -85.956199 
L 255.252103 -88.828343 
L 253.824321 -91.690586 
L 252.396539 -94.453236 
L 250.968757 -96.999958 
L 249.540975 -99.201189 
L 248.113193 -100.938661 
L 246.685412 -102.134941 
L 245.25763 -102.778928 
L 243.829848 -102.938567 
L 242.402066 -102.755643 
L 240.974284 -102.423037 
L 239.546502 -102.149993 
L 238.11872 -102.124131 
L 236.690938 -102.479204 
L 235.263157 -103.275544 
L 233.835375 -104.496634 
L 232.407593 -106.061482 
L 230.979811 -107.849237 
L 229.552029 -109.730231 
L 228.124247 -111.59666 
L 226.696465 -113.386532 
L 225.268683 -115.096336 
L 223.840902 -116.780578 
L 222.41312 -118.539358 
L 220.985338 -120.497743 
L 219.557556 -122.782275 
L 218.129774 -125.50029 
L 216.701992 -128.726839 
L 215.27421 -132.502125 
L 213.846428 -136.839696 
L 212.418647 -141.742637 
L 210.990865 -147.222119 
L 209.563083 -153.31073 
L 208.135301 -160.063047 
L 206.707519 -167.538712 
L 205.279737 -175.768882 
L 203.851955 -184.713861 
L 202.424173 -194.225247 
L 200.996392 -204.026716 
L 199.56861 -213.722028 
L 198.140828 -222.828428 
L 196.713046 -230.823077 
L 195.285264 -237.185526 
L 193.857482 -241.424013 
L 192.4297 -243.085714 
L 191.001918 -241.764257 
L 189.574137 -237.123308 
L 188.146355 -228.94814 
L 186.718573 -217.22012 
L 185.290791 -202.190679 
L 183.863009 -184.421975 
L 182.435227 -164.767201 
L 181.007445 -144.282719 
L 179.579663 -124.088354 
L 178.151882 -105.210597 
L 176.7241 -88.44853 
L 175.296318 -74.293084 
L 173.868536 -62.911865 
L 172.440754 -54.192276 
L 171.012972 -47.821997 
L 169.58519 -43.381422 
L 168.157408 -40.426418 
L 166.729627 -38.548415 
L 165.301845 -37.408163 
L 163.874063 -36.746574 
L 162.446281 -36.379674 
z
" style="stroke: #ff6363"/>
    </defs>
    <g clip-path="url(#p208476eb99)">
     <use xlink:href="#md88164384a" x="0" y="288" style="fill: #ff6363; fill-opacity: 0.25; stroke: #ff6363"/>
    </g>
   </g>
   <g id="line2d_14">
    <path d="M 222.542757 252 
L 222.542757 34.56 
" clip-path="url(#p208476eb99)" style="fill: none; stroke-dasharray: 5.55,2.4; stroke-dashoffset: 0; stroke: #1f77b4; stroke-width: 1.5"/>
   </g>
   <g id="patch_3">
    <path d="M 144 252 
L 144 34.56 
" style="fill: none; stroke: #ffffff; stroke-width: 0.8; stroke-linejoin: miter; stroke-linecap: square"/>
   </g>
   <g id="patch_4">
    <path d="M 549.818182 252 
L 549.818182 34.56 
" style="fill: none; stroke: #ffffff; stroke-width: 0.8; stroke-linejoin: miter; stroke-linecap: square"/>
   </g>
   <g id="patch_5">
    <path d="M 144 252 
L 549.818182 252 
" style="fill: none; stroke: #ffffff; stroke-width: 0.8; stroke-linejoin: miter; stroke-linecap: square"/>
   </g>
   <g id="patch_6">
    <path d="M 144 34.56 
L 549.818182 34.56 
" style="fill: none; stroke: #ffffff; stroke-width: 0.8; stroke-linejoin: miter; stroke-linecap: square"/>
   </g>
   <g id="legend_1">
    <g id="patch_7">
     <path d="M 457.502557 71.91625 
L 542.818182 71.91625 
Q 544.818182 71.91625 544.818182 69.91625 
L 544.818182 41.56 
Q 544.818182 39.56 542.818182 39.56 
L 457.502557 39.56 
Q 455.502557 39.56 455.502557 41.56 
L 455.502557 69.91625 
Q 455.502557 71.91625 457.502557 71.91625 
z
" style="fill: #eaeaf2; opacity: 0.8; stroke: #cccccc; stroke-linejoin: miter"/>
    </g>
    <g id="patch_8">
     <path d="M 459.502557 51.158437 
L 479.502557 51.158437 
L 479.502557 44.158437 
L 459.502557 44.158437 
z
" style="fill: #19f108; fill-opacity: 0.25; stroke: #19f108; stroke-linejoin: miter"/>
    </g>
    <g id="text_16">
     <!-- No Default -->
     <g style="fill: #262626" transform="translate(487.502557 51.158437)scale(0.1 -0.1)">
      <defs>
       <path id="DejaVuSans-4e" d="M 628 4666 
L 1478 4666 
L 3547 763 
L 3547 4666 
L 4159 4666 
L 4159 0 
L 3309 0 
L 1241 3903 
L 1241 0 
L 628 0 
L 628 4666 
z
" transform="scale(0.015625)"/>
       <path id="DejaVuSans-6f" d="M 1959 3097 
Q 1497 3097 1228 2736 
Q 959 2375 959 1747 
Q 959 1119 1226 758 
Q 1494 397 1959 397 
Q 2419 397 2687 759 
Q 2956 1122 2956 1747 
Q 2956 2369 2687 2733 
Q 2419 3097 1959 3097 
z
M 1959 3584 
Q 2709 3584 3137 3096 
Q 3566 2609 3566 1747 
Q 3566 888 3137 398 
Q 2709 -91 1959 -91 
Q 1206 -91 779 398 
Q 353 888 353 1747 
Q 353 2609 779 3096 
Q 1206 3584 1959 3584 
z
" transform="scale(0.015625)"/>
       <path id="DejaVuSans-20" transform="scale(0.015625)"/>
       <path id="DejaVuSans-44" d="M 1259 4147 
L 1259 519 
L 2022 519 
Q 2988 519 3436 956 
Q 3884 1394 3884 2338 
Q 3884 3275 3436 3711 
Q 2988 4147 2022 4147 
L 1259 4147 
z
M 628 4666 
L 1925 4666 
Q 3281 4666 3915 4102 
Q 4550 3538 4550 2338 
Q 4550 1131 3912 565 
Q 3275 0 1925 0 
L 628 0 
L 628 4666 
z
" transform="scale(0.015625)"/>
       <path id="DejaVuSans-66" d="M 2375 4863 
L 2375 4384 
L 1825 4384 
Q 1516 4384 1395 4259 
Q 1275 4134 1275 3809 
L 1275 3500 
L 2222 3500 
L 2222 3053 
L 1275 3053 
L 1275 0 
L 697 0 
L 697 3053 
L 147 3053 
L 147 3500 
L 697 3500 
L 697 3744 
Q 697 4328 969 4595 
Q 1241 4863 1831 4863 
L 2375 4863 
z
" transform="scale(0.015625)"/>
       <path id="DejaVuSans-61" d="M 2194 1759 
Q 1497 1759 1228 1600 
Q 959 1441 959 1056 
Q 959 750 1161 570 
Q 1363 391 1709 391 
Q 2188 391 2477 730 
Q 2766 1069 2766 1631 
L 2766 1759 
L 2194 1759 
z
M 3341 1997 
L 3341 0 
L 2766 0 
L 2766 531 
Q 2569 213 2275 61 
Q 1981 -91 1556 -91 
Q 1019 -91 701 211 
Q 384 513 384 1019 
Q 384 1609 779 1909 
Q 1175 2209 1959 2209 
L 2766 2209 
L 2766 2266 
Q 2766 2663 2505 2880 
Q 2244 3097 1772 3097 
Q 1472 3097 1187 3025 
Q 903 2953 641 2809 
L 641 3341 
Q 956 3463 1253 3523 
Q 1550 3584 1831 3584 
Q 2591 3584 2966 3190 
Q 3341 2797 3341 1997 
z
" transform="scale(0.015625)"/>
       <path id="DejaVuSans-75" d="M 544 1381 
L 544 3500 
L 1119 3500 
L 1119 1403 
Q 1119 906 1312 657 
Q 1506 409 1894 409 
Q 2359 409 2629 706 
Q 2900 1003 2900 1516 
L 2900 3500 
L 3475 3500 
L 3475 0 
L 2900 0 
L 2900 538 
Q 2691 219 2414 64 
Q 2138 -91 1772 -91 
Q 1169 -91 856 284 
Q 544 659 544 1381 
z
M 1991 3584 
L 1991 3584 
z
" transform="scale(0.015625)"/>
       <path id="DejaVuSans-6c" d="M 603 4863 
L 1178 4863 
L 1178 0 
L 603 0 
L 603 4863 
z
" transform="scale(0.015625)"/>
       <path id="DejaVuSans-74" d="M 1172 4494 
L 1172 3500 
L 2356 3500 
L 2356 3053 
L 1172 3053 
L 1172 1153 
Q 1172 725 1289 603 
Q 1406 481 1766 481 
L 2356 481 
L 2356 0 
L 1766 0 
Q 1100 0 847 248 
Q 594 497 594 1153 
L 594 3053 
L 172 3053 
L 172 3500 
L 594 3500 
L 594 4494 
L 1172 4494 
z
" transform="scale(0.015625)"/>
      </defs>
      <use xlink:href="#DejaVuSans-4e"/>
      <use xlink:href="#DejaVuSans-6f" x="74.804688"/>
      <use xlink:href="#DejaVuSans-20" x="135.986328"/>
      <use xlink:href="#DejaVuSans-44" x="167.773438"/>
      <use xlink:href="#DejaVuSans-65" x="244.775391"/>
      <use xlink:href="#DejaVuSans-66" x="306.298828"/>
      <use xlink:href="#DejaVuSans-61" x="341.503906"/>
      <use xlink:href="#DejaVuSans-75" x="402.783203"/>
      <use xlink:href="#DejaVuSans-6c" x="466.162109"/>
      <use xlink:href="#DejaVuSans-74" x="493.945312"/>
     </g>
    </g>
    <g id="patch_9">
     <path d="M 459.502557 65.836562 
L 479.502557 65.836562 
L 479.502557 58.836562 
L 459.502557 58.836562 
z
" style="fill: #ff6363; fill-opacity: 0.25; stroke: #ff6363; stroke-linejoin: miter"/>
    </g>
    <g id="text_17">
     <!-- Default -->
     <g style="fill: #262626" transform="translate(487.502557 65.836562)scale(0.1 -0.1)">
      <use xlink:href="#DejaVuSans-44"/>
      <use xlink:href="#DejaVuSans-65" x="77.001953"/>
      <use xlink:href="#DejaVuSans-66" x="138.525391"/>
      <use xlink:href="#DejaVuSans-61" x="173.730469"/>
      <use xlink:href="#DejaVuSans-75" x="235.009766"/>
      <use xlink:href="#DejaVuSans-6c" x="298.388672"/>
      <use xlink:href="#DejaVuSans-74" x="326.171875"/>
     </g>
    </g>
   </g>
  </g>
  <g id="axes_2">
   <g id="patch_10">
    <path d="M 630.981818 252 
L 1036.8 252 
L 1036.8 34.56 
L 630.981818 34.56 
z
" style="fill: #eaeaf2"/>
   </g>
   <g id="matplotlib.axis_3">
    <g id="xtick_7">
     <g id="line2d_15">
      <path d="M 671.607406 252 
L 671.607406 34.56 
" clip-path="url(#p7dba5b58fe)" style="fill: none; stroke: #ffffff; stroke-width: 0.8; stroke-linecap: round"/>
     </g>
     <g id="text_18">
      <!-- 20 -->
      <g style="fill: #262626" transform="translate(665.244906 266.598437)scale(0.1 -0.1)">
       <use xlink:href="#DejaVuSans-32"/>
       <use xlink:href="#DejaVuSans-30" x="63.623047"/>
      </g>
     </g>
    </g>
    <g id="xtick_8">
     <g id="line2d_16">
      <path d="M 726.953319 252 
L 726.953319 34.56 
" clip-path="url(#p7dba5b58fe)" style="fill: none; stroke: #ffffff; stroke-width: 0.8; stroke-linecap: round"/>
     </g>
     <g id="text_19">
      <!-- 30 -->
      <g style="fill: #262626" transform="translate(720.590819 266.598437)scale(0.1 -0.1)">
       <use xlink:href="#DejaVuSans-33"/>
       <use xlink:href="#DejaVuSans-30" x="63.623047"/>
      </g>
     </g>
    </g>
    <g id="xtick_9">
     <g id="line2d_17">
      <path d="M 782.299232 252 
L 782.299232 34.56 
" clip-path="url(#p7dba5b58fe)" style="fill: none; stroke: #ffffff; stroke-width: 0.8; stroke-linecap: round"/>
     </g>
     <g id="text_20">
      <!-- 40 -->
      <g style="fill: #262626" transform="translate(775.936732 266.598437)scale(0.1 -0.1)">
       <use xlink:href="#DejaVuSans-34"/>
       <use xlink:href="#DejaVuSans-30" x="63.623047"/>
      </g>
     </g>
    </g>
    <g id="xtick_10">
     <g id="line2d_18">
      <path d="M 837.645146 252 
L 837.645146 34.56 
" clip-path="url(#p7dba5b58fe)" style="fill: none; stroke: #ffffff; stroke-width: 0.8; stroke-linecap: round"/>
     </g>
     <g id="text_21">
      <!-- 50 -->
      <g style="fill: #262626" transform="translate(831.282646 266.598437)scale(0.1 -0.1)">
       <use xlink:href="#DejaVuSans-35"/>
       <use xlink:href="#DejaVuSans-30" x="63.623047"/>
      </g>
     </g>
    </g>
    <g id="xtick_11">
     <g id="line2d_19">
      <path d="M 892.991059 252 
L 892.991059 34.56 
" clip-path="url(#p7dba5b58fe)" style="fill: none; stroke: #ffffff; stroke-width: 0.8; stroke-linecap: round"/>
     </g>
     <g id="text_22">
      <!-- 60 -->
      <g style="fill: #262626" transform="translate(886.628559 266.598437)scale(0.1 -0.1)">
       <use xlink:href="#DejaVuSans-36"/>
       <use xlink:href="#DejaVuSans-30" x="63.623047"/>
      </g>
     </g>
    </g>
    <g id="xtick_12">
     <g id="line2d_20">
      <path d="M 948.336972 252 
L 948.336972 34.56 
" clip-path="url(#p7dba5b58fe)" style="fill: none; stroke: #ffffff; stroke-width: 0.8; stroke-linecap: round"/>
     </g>
     <g id="text_23">
      <!-- 70 -->
      <g style="fill: #262626" transform="translate(941.974472 266.598437)scale(0.1 -0.1)">
       <defs>
        <path id="DejaVuSans-37" d="M 525 4666 
L 3525 4666 
L 3525 4397 
L 1831 0 
L 1172 0 
L 2766 4134 
L 525 4134 
L 525 4666 
z
" transform="scale(0.015625)"/>
       </defs>
       <use xlink:href="#DejaVuSans-37"/>
       <use xlink:href="#DejaVuSans-30" x="63.623047"/>
      </g>
     </g>
    </g>
    <g id="xtick_13">
     <g id="line2d_21">
      <path d="M 1003.682886 252 
L 1003.682886 34.56 
" clip-path="url(#p7dba5b58fe)" style="fill: none; stroke: #ffffff; stroke-width: 0.8; stroke-linecap: round"/>
     </g>
     <g id="text_24">
      <!-- 80 -->
      <g style="fill: #262626" transform="translate(997.320386 266.598437)scale(0.1 -0.1)">
       <use xlink:href="#DejaVuSans-38"/>
       <use xlink:href="#DejaVuSans-30" x="63.623047"/>
      </g>
     </g>
    </g>
    <g id="text_25">
     <!-- AGE -->
     <g style="fill: #262626" transform="translate(818.3413 284.075781)scale(0.15 -0.15)">
      <defs>
       <path id="DejaVuSans-47" d="M 3809 666 
L 3809 1919 
L 2778 1919 
L 2778 2438 
L 4434 2438 
L 4434 434 
Q 4069 175 3628 42 
Q 3188 -91 2688 -91 
Q 1594 -91 976 548 
Q 359 1188 359 2328 
Q 359 3472 976 4111 
Q 1594 4750 2688 4750 
Q 3144 4750 3555 4637 
Q 3966 4525 4313 4306 
L 4313 3634 
Q 3963 3931 3569 4081 
Q 3175 4231 2741 4231 
Q 1884 4231 1454 3753 
Q 1025 3275 1025 2328 
Q 1025 1384 1454 906 
Q 1884 428 2741 428 
Q 3075 428 3337 486 
Q 3600 544 3809 666 
z
" transform="scale(0.015625)"/>
       <path id="DejaVuSans-45" d="M 628 4666 
L 3578 4666 
L 3578 4134 
L 1259 4134 
L 1259 2753 
L 3481 2753 
L 3481 2222 
L 1259 2222 
L 1259 531 
L 3634 531 
L 3634 0 
L 628 0 
L 628 4666 
z
" transform="scale(0.015625)"/>
      </defs>
      <use xlink:href="#DejaVuSans-41"/>
      <use xlink:href="#DejaVuSans-47" x="66.658203"/>
      <use xlink:href="#DejaVuSans-45" x="144.148438"/>
     </g>
    </g>
   </g>
   <g id="matplotlib.axis_4">
    <g id="ytick_8">
     <g id="line2d_22">
      <path d="M 630.981818 252 
L 1036.8 252 
" clip-path="url(#p7dba5b58fe)" style="fill: none; stroke: #ffffff; stroke-width: 0.8; stroke-linecap: round"/>
     </g>
     <g id="text_26">
      <!-- 0.00 -->
      <g style="fill: #262626" transform="translate(601.716193 255.799219)scale(0.1 -0.1)">
       <defs>
        <path id="DejaVuSans-2e" d="M 684 794 
L 1344 794 
L 1344 0 
L 684 0 
L 684 794 
z
" transform="scale(0.015625)"/>
       </defs>
       <use xlink:href="#DejaVuSans-30"/>
       <use xlink:href="#DejaVuSans-2e" x="63.623047"/>
       <use xlink:href="#DejaVuSans-30" x="95.410156"/>
       <use xlink:href="#DejaVuSans-30" x="159.033203"/>
      </g>
     </g>
    </g>
    <g id="ytick_9">
     <g id="line2d_23">
      <path d="M 630.981818 210.748117 
L 1036.8 210.748117 
" clip-path="url(#p7dba5b58fe)" style="fill: none; stroke: #ffffff; stroke-width: 0.8; stroke-linecap: round"/>
     </g>
     <g id="text_27">
      <!-- 0.01 -->
      <g style="fill: #262626" transform="translate(601.716193 214.547336)scale(0.1 -0.1)">
       <use xlink:href="#DejaVuSans-30"/>
       <use xlink:href="#DejaVuSans-2e" x="63.623047"/>
       <use xlink:href="#DejaVuSans-30" x="95.410156"/>
       <use xlink:href="#DejaVuSans-31" x="159.033203"/>
      </g>
     </g>
    </g>
    <g id="ytick_10">
     <g id="line2d_24">
      <path d="M 630.981818 169.496234 
L 1036.8 169.496234 
" clip-path="url(#p7dba5b58fe)" style="fill: none; stroke: #ffffff; stroke-width: 0.8; stroke-linecap: round"/>
     </g>
     <g id="text_28">
      <!-- 0.02 -->
      <g style="fill: #262626" transform="translate(601.716193 173.295453)scale(0.1 -0.1)">
       <use xlink:href="#DejaVuSans-30"/>
       <use xlink:href="#DejaVuSans-2e" x="63.623047"/>
       <use xlink:href="#DejaVuSans-30" x="95.410156"/>
       <use xlink:href="#DejaVuSans-32" x="159.033203"/>
      </g>
     </g>
    </g>
    <g id="ytick_11">
     <g id="line2d_25">
      <path d="M 630.981818 128.244352 
L 1036.8 128.244352 
" clip-path="url(#p7dba5b58fe)" style="fill: none; stroke: #ffffff; stroke-width: 0.8; stroke-linecap: round"/>
     </g>
     <g id="text_29">
      <!-- 0.03 -->
      <g style="fill: #262626" transform="translate(601.716193 132.04357)scale(0.1 -0.1)">
       <use xlink:href="#DejaVuSans-30"/>
       <use xlink:href="#DejaVuSans-2e" x="63.623047"/>
       <use xlink:href="#DejaVuSans-30" x="95.410156"/>
       <use xlink:href="#DejaVuSans-33" x="159.033203"/>
      </g>
     </g>
    </g>
    <g id="ytick_12">
     <g id="line2d_26">
      <path d="M 630.981818 86.992469 
L 1036.8 86.992469 
" clip-path="url(#p7dba5b58fe)" style="fill: none; stroke: #ffffff; stroke-width: 0.8; stroke-linecap: round"/>
     </g>
     <g id="text_30">
      <!-- 0.04 -->
      <g style="fill: #262626" transform="translate(601.716193 90.791687)scale(0.1 -0.1)">
       <use xlink:href="#DejaVuSans-30"/>
       <use xlink:href="#DejaVuSans-2e" x="63.623047"/>
       <use xlink:href="#DejaVuSans-30" x="95.410156"/>
       <use xlink:href="#DejaVuSans-34" x="159.033203"/>
      </g>
     </g>
    </g>
    <g id="ytick_13">
     <g id="line2d_27">
      <path d="M 630.981818 45.740586 
L 1036.8 45.740586 
" clip-path="url(#p7dba5b58fe)" style="fill: none; stroke: #ffffff; stroke-width: 0.8; stroke-linecap: round"/>
     </g>
     <g id="text_31">
      <!-- 0.05 -->
      <g style="fill: #262626" transform="translate(601.716193 49.539805)scale(0.1 -0.1)">
       <use xlink:href="#DejaVuSans-30"/>
       <use xlink:href="#DejaVuSans-2e" x="63.623047"/>
       <use xlink:href="#DejaVuSans-30" x="95.410156"/>
       <use xlink:href="#DejaVuSans-35" x="159.033203"/>
      </g>
     </g>
    </g>
   </g>
   <g id="PolyCollection_3">
    <defs>
     <path id="md6c6a2f86d" d="M 656.936572 -36.048792 
L 656.936572 -36 
L 658.752739 -36 
L 660.568905 -36 
L 662.385072 -36 
L 664.201239 -36 
L 666.017405 -36 
L 667.833572 -36 
L 669.649738 -36 
L 671.465905 -36 
L 673.282071 -36 
L 675.098238 -36 
L 676.914405 -36 
L 678.730571 -36 
L 680.546738 -36 
L 682.362904 -36 
L 684.179071 -36 
L 685.995237 -36 
L 687.811404 -36 
L 689.627571 -36 
L 691.443737 -36 
L 693.259904 -36 
L 695.07607 -36 
L 696.892237 -36 
L 698.708403 -36 
L 700.52457 -36 
L 702.340737 -36 
L 704.156903 -36 
L 705.97307 -36 
L 707.789236 -36 
L 709.605403 -36 
L 711.421569 -36 
L 713.237736 -36 
L 715.053902 -36 
L 716.870069 -36 
L 718.686236 -36 
L 720.502402 -36 
L 722.318569 -36 
L 724.134735 -36 
L 725.950902 -36 
L 727.767068 -36 
L 729.583235 -36 
L 731.399402 -36 
L 733.215568 -36 
L 735.031735 -36 
L 736.847901 -36 
L 738.664068 -36 
L 740.480234 -36 
L 742.296401 -36 
L 744.112568 -36 
L 745.928734 -36 
L 747.744901 -36 
L 749.561067 -36 
L 751.377234 -36 
L 753.1934 -36 
L 755.009567 -36 
L 756.825733 -36 
L 758.6419 -36 
L 760.458067 -36 
L 762.274233 -36 
L 764.0904 -36 
L 765.906566 -36 
L 767.722733 -36 
L 769.538899 -36 
L 771.355066 -36 
L 773.171233 -36 
L 774.987399 -36 
L 776.803566 -36 
L 778.619732 -36 
L 780.435899 -36 
L 782.252065 -36 
L 784.068232 -36 
L 785.884399 -36 
L 787.700565 -36 
L 789.516732 -36 
L 791.332898 -36 
L 793.149065 -36 
L 794.965231 -36 
L 796.781398 -36 
L 798.597565 -36 
L 800.413731 -36 
L 802.229898 -36 
L 804.046064 -36 
L 805.862231 -36 
L 807.678397 -36 
L 809.494564 -36 
L 811.31073 -36 
L 813.126897 -36 
L 814.943064 -36 
L 816.75923 -36 
L 818.575397 -36 
L 820.391563 -36 
L 822.20773 -36 
L 824.023896 -36 
L 825.840063 -36 
L 827.65623 -36 
L 829.472396 -36 
L 831.288563 -36 
L 833.104729 -36 
L 834.920896 -36 
L 836.737062 -36 
L 838.553229 -36 
L 840.369396 -36 
L 842.185562 -36 
L 844.001729 -36 
L 845.817895 -36 
L 847.634062 -36 
L 849.450228 -36 
L 851.266395 -36 
L 853.082561 -36 
L 854.898728 -36 
L 856.714895 -36 
L 858.531061 -36 
L 860.347228 -36 
L 862.163394 -36 
L 863.979561 -36 
L 865.795727 -36 
L 867.611894 -36 
L 869.428061 -36 
L 871.244227 -36 
L 873.060394 -36 
L 874.87656 -36 
L 876.692727 -36 
L 878.508893 -36 
L 880.32506 -36 
L 882.141227 -36 
L 883.957393 -36 
L 885.77356 -36 
L 887.589726 -36 
L 889.405893 -36 
L 891.222059 -36 
L 893.038226 -36 
L 894.854393 -36 
L 896.670559 -36 
L 898.486726 -36 
L 900.302892 -36 
L 902.119059 -36 
L 903.935225 -36 
L 905.751392 -36 
L 907.567558 -36 
L 909.383725 -36 
L 911.199892 -36 
L 913.016058 -36 
L 914.832225 -36 
L 916.648391 -36 
L 918.464558 -36 
L 920.280724 -36 
L 922.096891 -36 
L 923.913058 -36 
L 925.729224 -36 
L 927.545391 -36 
L 929.361557 -36 
L 931.177724 -36 
L 932.99389 -36 
L 934.810057 -36 
L 936.626224 -36 
L 938.44239 -36 
L 940.258557 -36 
L 942.074723 -36 
L 943.89089 -36 
L 945.707056 -36 
L 947.523223 -36 
L 949.339389 -36 
L 951.155556 -36 
L 952.971723 -36 
L 954.787889 -36 
L 956.604056 -36 
L 958.420222 -36 
L 960.236389 -36 
L 962.052555 -36 
L 963.868722 -36 
L 965.684889 -36 
L 967.501055 -36 
L 969.317222 -36 
L 971.133388 -36 
L 972.949555 -36 
L 974.765721 -36 
L 976.581888 -36 
L 978.398055 -36 
L 980.214221 -36 
L 982.030388 -36 
L 983.846554 -36 
L 985.662721 -36 
L 987.478887 -36 
L 989.295054 -36 
L 991.111221 -36 
L 992.927387 -36 
L 994.743554 -36 
L 996.55972 -36 
L 998.375887 -36 
L 1000.192053 -36 
L 1002.00822 -36 
L 1003.824386 -36 
L 1005.640553 -36 
L 1007.45672 -36 
L 1009.272886 -36 
L 1011.089053 -36 
L 1012.905219 -36 
L 1014.721386 -36 
L 1016.537552 -36 
L 1018.353719 -36 
L 1018.353719 -36.000653 
L 1018.353719 -36.000653 
L 1016.537552 -36.001415 
L 1014.721386 -36.002849 
L 1012.905219 -36.005333 
L 1011.089053 -36.009286 
L 1009.272886 -36.015033 
L 1007.45672 -36.022631 
L 1005.640553 -36.031683 
L 1003.824386 -36.041254 
L 1002.00822 -36.049972 
L 1000.192053 -36.056353 
L 998.375887 -36.05926 
L 996.55972 -36.058348 
L 994.743554 -36.054305 
L 992.927387 -36.048802 
L 991.111221 -36.044166 
L 989.295054 -36.042876 
L 987.478887 -36.04703 
L 985.662721 -36.05787 
L 983.846554 -36.075453 
L 982.030388 -36.098533 
L 980.214221 -36.124747 
L 978.398055 -36.151144 
L 976.581888 -36.174962 
L 974.765721 -36.194461 
L 972.949555 -36.209498 
L 971.133388 -36.221653 
L 969.317222 -36.233895 
L 967.501055 -36.249968 
L 965.684889 -36.27378 
L 963.868722 -36.308996 
L 962.052555 -36.358865 
L 960.236389 -36.426117 
L 958.420222 -36.512688 
L 956.604056 -36.619103 
L 954.787889 -36.74358 
L 952.971723 -36.881219 
L 951.155556 -37.023797 
L 949.339389 -37.160704 
L 947.523223 -37.281158 
L 945.707056 -37.377324 
L 943.89089 -37.447323 
L 942.074723 -37.496889 
L 940.258557 -37.538708 
L 938.44239 -37.589315 
L 936.626224 -37.664524 
L 934.810057 -37.775038 
L 932.99389 -37.923865 
L 931.177724 -38.106314 
L 929.361557 -38.312264 
L 927.545391 -38.52959 
L 925.729224 -38.747491 
L 923.913058 -38.958849 
L 922.096891 -39.161371 
L 920.280724 -39.35764 
L 918.464558 -39.554322 
L 916.648391 -39.760666 
L 914.832225 -39.986365 
L 913.016058 -40.239037 
L 911.199892 -40.52193 
L 909.383725 -40.832828 
L 907.567558 -41.165001 
L 905.751392 -41.510416 
L 903.935225 -41.864322 
L 902.119059 -42.229505 
L 900.302892 -42.618365 
L 898.486726 -43.051751 
L 896.670559 -43.554742 
L 894.854393 -44.150669 
L 893.038226 -44.855157 
L 891.222059 -45.671849 
L 889.405893 -46.591059 
L 887.589726 -47.591985 
L 885.77356 -48.64831 
L 883.957393 -49.73593 
L 882.141227 -50.840462 
L 880.32506 -51.961801 
L 878.508893 -53.113841 
L 876.692727 -54.319538 
L 874.87656 -55.603623 
L 873.060394 -56.98617 
L 871.244227 -58.479264 
L 869.428061 -60.086706 
L 867.611894 -61.804662 
L 865.795727 -63.620822 
L 863.979561 -65.511216 
L 862.163394 -67.436505 
L 860.347228 -69.341532 
L 858.531061 -71.161743 
L 856.714895 -72.83732 
L 854.898728 -74.331549 
L 853.082561 -75.646452 
L 851.266395 -76.828211 
L 849.450228 -77.958386 
L 847.634062 -79.132822 
L 845.817895 -80.435524 
L 844.001729 -81.916869 
L 842.185562 -83.583402 
L 840.369396 -85.401484 
L 838.553229 -87.31174 
L 836.737062 -89.247952 
L 834.920896 -91.153772 
L 833.104729 -92.993065 
L 831.288563 -94.753207 
L 829.472396 -96.443509 
L 827.65623 -98.091828 
L 825.840063 -99.74126 
L 824.023896 -101.44672 
L 822.20773 -103.269554 
L 820.391563 -105.268361 
L 818.575397 -107.485941 
L 816.75923 -109.93511 
L 814.943064 -112.588426 
L 813.126897 -115.377302 
L 811.31073 -118.203717 
L 809.494564 -120.963233 
L 807.678397 -123.573036 
L 805.862231 -125.995428 
L 804.046064 -128.247642 
L 802.229898 -130.393343 
L 800.413731 -132.518488 
L 798.597565 -134.701065 
L 796.781398 -136.987185 
L 794.965231 -139.382931 
L 793.149065 -141.863636 
L 791.332898 -144.393709 
L 789.516732 -146.945702 
L 787.700565 -149.50905 
L 785.884399 -152.08565 
L 784.068232 -154.67703 
L 782.252065 -157.272149 
L 780.435899 -159.843919 
L 778.619732 -162.357103 
L 776.803566 -164.783498 
L 774.987399 -167.116002 
L 773.171233 -169.373662 
L 771.355066 -171.59479 
L 769.538899 -173.82169 
L 767.722733 -176.084602 
L 765.906566 -178.392043 
L 764.0904 -180.73043 
L 762.274233 -183.070846 
L 760.458067 -185.37788 
L 758.6419 -187.615967 
L 756.825733 -189.751612 
L 755.009567 -191.753292 
L 753.1934 -193.592581 
L 751.377234 -195.249453 
L 749.561067 -196.722102 
L 747.744901 -198.038621 
L 745.928734 -199.266042 
L 744.112568 -200.512583 
L 742.296401 -201.920899 
L 740.480234 -203.652622 
L 738.664068 -205.866075 
L 736.847901 -208.689552 
L 735.031735 -212.19256 
L 733.215568 -216.35813 
L 731.399402 -221.061384 
L 729.583235 -226.062187 
L 727.767068 -231.020663 
L 725.950902 -235.540595 
L 724.134735 -239.236232 
L 722.318569 -241.805661 
L 720.502402 -243.085714 
L 718.686236 -243.066546 
L 716.870069 -241.860062 
L 715.053902 -239.637895 
L 713.237736 -236.568842 
L 711.421569 -232.78312 
L 709.605403 -228.372913 
L 707.789236 -223.416972 
L 705.97307 -218.005116 
L 704.156903 -212.242206 
L 702.340737 -206.22612 
L 700.52457 -200.010162 
L 698.708403 -193.568526 
L 696.892237 -186.78172 
L 695.07607 -179.450296 
L 693.259904 -171.335227 
L 691.443737 -162.215765 
L 689.627571 -151.951962 
L 687.811404 -140.538687 
L 685.995237 -128.139386 
L 684.179071 -115.090479 
L 682.362904 -101.871429 
L 680.546738 -89.042169 
L 678.730571 -77.158321 
L 676.914405 -66.682885 
L 675.098238 -57.916639 
L 673.282071 -50.965177 
L 671.465905 -45.748959 
L 669.649738 -42.048801 
L 667.833572 -39.569264 
L 666.017405 -38.000375 
L 664.201239 -37.063452 
L 662.385072 -36.535602 
L 660.568905 -36.255213 
L 658.752739 -36.114891 
L 656.936572 -36.048792 
z
" style="stroke: #19f108"/>
    </defs>
    <g clip-path="url(#p7dba5b58fe)">
     <use xlink:href="#md6c6a2f86d" x="0" y="288" style="fill: #19f108; fill-opacity: 0.25; stroke: #19f108"/>
    </g>
   </g>
   <g id="PolyCollection_4">
    <defs>
     <path id="m5761398597" d="M 649.428099 -36.067513 
L 649.428099 -36 
L 651.20848 -36 
L 652.98886 -36 
L 654.769241 -36 
L 656.549621 -36 
L 658.330002 -36 
L 660.110382 -36 
L 661.890763 -36 
L 663.671144 -36 
L 665.451524 -36 
L 667.231905 -36 
L 669.012285 -36 
L 670.792666 -36 
L 672.573046 -36 
L 674.353427 -36 
L 676.133807 -36 
L 677.914188 -36 
L 679.694568 -36 
L 681.474949 -36 
L 683.255329 -36 
L 685.03571 -36 
L 686.816091 -36 
L 688.596471 -36 
L 690.376852 -36 
L 692.157232 -36 
L 693.937613 -36 
L 695.717993 -36 
L 697.498374 -36 
L 699.278754 -36 
L 701.059135 -36 
L 702.839515 -36 
L 704.619896 -36 
L 706.400276 -36 
L 708.180657 -36 
L 709.961038 -36 
L 711.741418 -36 
L 713.521799 -36 
L 715.302179 -36 
L 717.08256 -36 
L 718.86294 -36 
L 720.643321 -36 
L 722.423701 -36 
L 724.204082 -36 
L 725.984462 -36 
L 727.764843 -36 
L 729.545224 -36 
L 731.325604 -36 
L 733.105985 -36 
L 734.886365 -36 
L 736.666746 -36 
L 738.447126 -36 
L 740.227507 -36 
L 742.007887 -36 
L 743.788268 -36 
L 745.568648 -36 
L 747.349029 -36 
L 749.129409 -36 
L 750.90979 -36 
L 752.690171 -36 
L 754.470551 -36 
L 756.250932 -36 
L 758.031312 -36 
L 759.811693 -36 
L 761.592073 -36 
L 763.372454 -36 
L 765.152834 -36 
L 766.933215 -36 
L 768.713595 -36 
L 770.493976 -36 
L 772.274357 -36 
L 774.054737 -36 
L 775.835118 -36 
L 777.615498 -36 
L 779.395879 -36 
L 781.176259 -36 
L 782.95664 -36 
L 784.73702 -36 
L 786.517401 -36 
L 788.297781 -36 
L 790.078162 -36 
L 791.858542 -36 
L 793.638923 -36 
L 795.419304 -36 
L 797.199684 -36 
L 798.980065 -36 
L 800.760445 -36 
L 802.540826 -36 
L 804.321206 -36 
L 806.101587 -36 
L 807.881967 -36 
L 809.662348 -36 
L 811.442728 -36 
L 813.223109 -36 
L 815.003489 -36 
L 816.78387 -36 
L 818.564251 -36 
L 820.344631 -36 
L 822.125012 -36 
L 823.905392 -36 
L 825.685773 -36 
L 827.466153 -36 
L 829.246534 -36 
L 831.026914 -36 
L 832.807295 -36 
L 834.587675 -36 
L 836.368056 -36 
L 838.148437 -36 
L 839.928817 -36 
L 841.709198 -36 
L 843.489578 -36 
L 845.269959 -36 
L 847.050339 -36 
L 848.83072 -36 
L 850.6111 -36 
L 852.391481 -36 
L 854.171861 -36 
L 855.952242 -36 
L 857.732622 -36 
L 859.513003 -36 
L 861.293384 -36 
L 863.073764 -36 
L 864.854145 -36 
L 866.634525 -36 
L 868.414906 -36 
L 870.195286 -36 
L 871.975667 -36 
L 873.756047 -36 
L 875.536428 -36 
L 877.316808 -36 
L 879.097189 -36 
L 880.87757 -36 
L 882.65795 -36 
L 884.438331 -36 
L 886.218711 -36 
L 887.999092 -36 
L 889.779472 -36 
L 891.559853 -36 
L 893.340233 -36 
L 895.120614 -36 
L 896.900994 -36 
L 898.681375 -36 
L 900.461755 -36 
L 902.242136 -36 
L 904.022517 -36 
L 905.802897 -36 
L 907.583278 -36 
L 909.363658 -36 
L 911.144039 -36 
L 912.924419 -36 
L 914.7048 -36 
L 916.48518 -36 
L 918.265561 -36 
L 920.045941 -36 
L 921.826322 -36 
L 923.606703 -36 
L 925.387083 -36 
L 927.167464 -36 
L 928.947844 -36 
L 930.728225 -36 
L 932.508605 -36 
L 934.288986 -36 
L 936.069366 -36 
L 937.849747 -36 
L 939.630127 -36 
L 941.410508 -36 
L 943.190888 -36 
L 944.971269 -36 
L 946.75165 -36 
L 948.53203 -36 
L 950.312411 -36 
L 952.092791 -36 
L 953.873172 -36 
L 955.653552 -36 
L 957.433933 -36 
L 959.214313 -36 
L 960.994694 -36 
L 962.775074 -36 
L 964.555455 -36 
L 966.335835 -36 
L 968.116216 -36 
L 969.896597 -36 
L 971.676977 -36 
L 973.457358 -36 
L 975.237738 -36 
L 977.018119 -36 
L 978.798499 -36 
L 980.57888 -36 
L 982.35926 -36 
L 984.139641 -36 
L 985.920021 -36 
L 987.700402 -36 
L 989.480783 -36 
L 991.261163 -36 
L 993.041544 -36 
L 994.821924 -36 
L 996.602305 -36 
L 998.382685 -36 
L 1000.163066 -36 
L 1001.943446 -36 
L 1003.723827 -36 
L 1003.723827 -36.001726 
L 1003.723827 -36.001726 
L 1001.943446 -36.003053 
L 1000.163066 -36.005214 
L 998.382685 -36.008609 
L 996.602305 -36.013751 
L 994.821924 -36.021264 
L 993.041544 -36.031867 
L 991.261163 -36.046338 
L 989.480783 -36.065461 
L 987.700402 -36.089965 
L 985.920021 -36.120455 
L 984.139641 -36.157344 
L 982.35926 -36.200774 
L 980.57888 -36.250542 
L 978.798499 -36.306017 
L 977.018119 -36.36607 
L 975.237738 -36.429035 
L 973.457358 -36.492741 
L 971.676977 -36.554663 
L 969.896597 -36.612193 
L 968.116216 -36.663043 
L 966.335835 -36.705699 
L 964.555455 -36.739824 
L 962.775074 -36.766513 
L 960.994694 -36.788283 
L 959.214313 -36.808786 
L 957.433933 -36.832281 
L 955.653552 -36.863014 
L 953.873172 -36.90464 
L 952.092791 -36.959864 
L 950.312411 -37.030358 
L 948.53203 -37.116955 
L 946.75165 -37.22001 
L 944.971269 -37.339756 
L 943.190888 -37.476511 
L 941.410508 -37.630644 
L 939.630127 -37.802304 
L 937.849747 -37.991029 
L 936.069366 -38.195388 
L 934.288986 -38.412826 
L 932.508605 -38.639819 
L 930.728225 -38.872323 
L 928.947844 -39.106446 
L 927.167464 -39.339187 
L 925.387083 -39.569094 
L 923.606703 -39.796761 
L 921.826322 -40.025106 
L 920.045941 -40.259462 
L 918.265561 -40.50748 
L 916.48518 -40.778842 
L 914.7048 -41.084693 
L 912.924419 -41.436751 
L 911.144039 -41.846039 
L 909.363658 -42.32135 
L 907.583278 -42.867682 
L 905.802897 -43.484994 
L 904.022517 -44.167684 
L 902.242136 -44.905055 
L 900.461755 -45.682838 
L 898.681375 -46.485579 
L 896.900994 -47.299435 
L 895.120614 -48.114812 
L 893.340233 -48.928333 
L 891.559853 -49.743735 
L 889.779472 -50.57159 
L 887.999092 -51.42793 
L 886.218711 -52.332061 
L 884.438331 -53.303901 
L 882.65795 -54.361221 
L 880.87757 -55.517142 
L 879.097189 -56.77822 
L 877.316808 -58.143434 
L 875.536428 -59.604305 
L 873.756047 -61.146205 
L 871.975667 -62.750729 
L 870.195286 -64.398685 
L 868.414906 -66.073131 
L 866.634525 -67.761788 
L 864.854145 -69.458335 
L 863.073764 -71.162376 
L 861.293384 -72.878243 
L 859.513003 -74.613068 
L 857.732622 -76.374693 
L 855.952242 -78.169901 
L 854.171861 -80.003203 
L 852.391481 -81.87619 
L 850.6111 -83.787216 
L 848.83072 -85.731204 
L 847.050339 -87.699462 
L 845.269959 -89.679626 
L 843.489578 -91.656032 
L 841.709198 -93.610842 
L 839.928817 -95.526101 
L 838.148437 -97.386542 
L 836.368056 -99.182584 
L 834.587675 -100.912677 
L 832.807295 -102.584114 
L 831.026914 -104.211773 
L 829.246534 -105.814809 
L 827.466153 -107.412079 
L 825.685773 -109.017592 
L 823.905392 -110.637439 
L 822.125012 -112.269325 
L 820.344631 -113.904992 
L 818.564251 -115.534865 
L 816.78387 -117.153448 
L 815.003489 -118.763672 
L 813.223109 -120.378732 
L 811.442728 -122.020718 
L 809.662348 -123.716399 
L 807.881967 -125.491334 
L 806.101587 -127.363919 
L 804.321206 -129.340853 
L 802.540826 -131.415002 
L 800.760445 -133.565946 
L 798.980065 -135.76288 
L 797.199684 -137.969167 
L 795.419304 -140.147632 
L 793.638923 -142.26578 
L 791.858542 -144.300198 
L 790.078162 -146.23965 
L 788.297781 -148.086538 
L 786.517401 -149.856661 
L 784.73702 -151.577349 
L 782.95664 -153.28422 
L 781.176259 -155.016832 
L 779.395879 -156.813541 
L 777.615498 -158.705882 
L 775.835118 -160.71292 
L 774.054737 -162.836191 
L 772.274357 -165.056063 
L 770.493976 -167.330479 
L 768.713595 -169.59685 
L 766.933215 -171.777479 
L 765.152834 -173.788119 
L 763.372454 -175.548572 
L 761.592073 -176.99359 
L 759.811693 -178.08219 
L 758.031312 -178.803808 
L 756.250932 -179.180407 
L 754.470551 -179.264563 
L 752.690171 -179.134326 
L 750.90979 -178.88614 
L 749.129409 -178.627086 
L 747.349029 -178.46745 
L 745.568648 -178.51405 
L 743.788268 -178.864306 
L 742.007887 -179.600724 
L 740.227507 -180.785488 
L 738.447126 -182.4551 
L 736.666746 -184.615448 
L 734.886365 -187.238106 
L 733.105985 -190.258929 
L 731.325604 -193.579964 
L 729.545224 -197.075293 
L 727.764843 -200.600745 
L 725.984462 -204.006566 
L 724.204082 -207.151448 
L 722.423701 -209.915884 
L 720.643321 -212.212858 
L 718.86294 -213.99427 
L 717.08256 -215.252201 
L 715.302179 -216.014778 
L 713.521799 -216.337075 
L 711.741418 -216.287921 
L 709.961038 -215.933961 
L 708.180657 -215.322688 
L 706.400276 -214.466642 
L 704.619896 -213.331208 
L 702.839515 -211.82848 
L 701.059135 -209.819064 
L 699.278754 -207.122691 
L 697.498374 -203.537051 
L 695.717993 -198.862849 
L 693.937613 -192.931893 
L 692.157232 -185.634432 
L 690.376852 -176.941936 
L 688.596471 -166.922013 
L 686.816091 -155.743109 
L 685.03571 -143.667768 
L 683.255329 -131.034675 
L 681.474949 -118.231141 
L 679.694568 -105.659214 
L 677.914188 -93.699702 
L 676.133807 -82.67903 
L 674.353427 -72.843492 
L 672.573046 -64.344302 
L 670.792666 -57.234906 
L 669.012285 -51.479826 
L 667.231905 -46.972401 
L 665.451524 -43.557555 
L 663.671144 -41.055482 
L 661.890763 -39.282722 
L 660.110382 -38.068295 
L 658.330002 -37.263977 
L 656.549621 -36.748992 
L 654.769241 -36.430238 
L 652.98886 -36.239514 
L 651.20848 -36.129197 
L 649.428099 -36.067513 
z
" style="stroke: #ff6363"/>
    </defs>
    <g clip-path="url(#p7dba5b58fe)">
     <use xlink:href="#m5761398597" x="0" y="288" style="fill: #ff6363; fill-opacity: 0.25; stroke: #ff6363"/>
    </g>
   </g>
   <g id="line2d_28">
    <path d="M 704.814954 252 
L 704.814954 34.56 
" clip-path="url(#p7dba5b58fe)" style="fill: none; stroke-dasharray: 5.55,2.4; stroke-dashoffset: 0; stroke: #1f77b4; stroke-width: 1.5"/>
   </g>
   <g id="line2d_29">
    <path d="M 782.299232 252 
L 782.299232 34.56 
" clip-path="url(#p7dba5b58fe)" style="fill: none; stroke-dasharray: 5.55,2.4; stroke-dashoffset: 0; stroke: #1f77b4; stroke-width: 1.5"/>
   </g>
   <g id="patch_11">
    <path d="M 630.981818 252 
L 630.981818 34.56 
" style="fill: none; stroke: #ffffff; stroke-width: 0.8; stroke-linejoin: miter; stroke-linecap: square"/>
   </g>
   <g id="patch_12">
    <path d="M 1036.8 252 
L 1036.8 34.56 
" style="fill: none; stroke: #ffffff; stroke-width: 0.8; stroke-linejoin: miter; stroke-linecap: square"/>
   </g>
   <g id="patch_13">
    <path d="M 630.981818 252 
L 1036.8 252 
" style="fill: none; stroke: #ffffff; stroke-width: 0.8; stroke-linejoin: miter; stroke-linecap: square"/>
   </g>
   <g id="patch_14">
    <path d="M 630.981818 34.56 
L 1036.8 34.56 
" style="fill: none; stroke: #ffffff; stroke-width: 0.8; stroke-linejoin: miter; stroke-linecap: square"/>
   </g>
   <g id="legend_2">
    <g id="patch_15">
     <path d="M 944.484375 71.91625 
L 1029.8 71.91625 
Q 1031.8 71.91625 1031.8 69.91625 
L 1031.8 41.56 
Q 1031.8 39.56 1029.8 39.56 
L 944.484375 39.56 
Q 942.484375 39.56 942.484375 41.56 
L 942.484375 69.91625 
Q 942.484375 71.91625 944.484375 71.91625 
z
" style="fill: #eaeaf2; opacity: 0.8; stroke: #cccccc; stroke-linejoin: miter"/>
    </g>
    <g id="patch_16">
     <path d="M 946.484375 51.158437 
L 966.484375 51.158437 
L 966.484375 44.158437 
L 946.484375 44.158437 
z
" style="fill: #19f108; fill-opacity: 0.25; stroke: #19f108; stroke-linejoin: miter"/>
    </g>
    <g id="text_32">
     <!-- No Default -->
     <g style="fill: #262626" transform="translate(974.484375 51.158437)scale(0.1 -0.1)">
      <use xlink:href="#DejaVuSans-4e"/>
      <use xlink:href="#DejaVuSans-6f" x="74.804688"/>
      <use xlink:href="#DejaVuSans-20" x="135.986328"/>
      <use xlink:href="#DejaVuSans-44" x="167.773438"/>
      <use xlink:href="#DejaVuSans-65" x="244.775391"/>
      <use xlink:href="#DejaVuSans-66" x="306.298828"/>
      <use xlink:href="#DejaVuSans-61" x="341.503906"/>
      <use xlink:href="#DejaVuSans-75" x="402.783203"/>
      <use xlink:href="#DejaVuSans-6c" x="466.162109"/>
      <use xlink:href="#DejaVuSans-74" x="493.945312"/>
     </g>
    </g>
    <g id="patch_17">
     <path d="M 946.484375 65.836562 
L 966.484375 65.836562 
L 966.484375 58.836562 
L 946.484375 58.836562 
z
" style="fill: #ff6363; fill-opacity: 0.25; stroke: #ff6363; stroke-linejoin: miter"/>
    </g>
    <g id="text_33">
     <!-- Default -->
     <g style="fill: #262626" transform="translate(974.484375 65.836562)scale(0.1 -0.1)">
      <use xlink:href="#DejaVuSans-44"/>
      <use xlink:href="#DejaVuSans-65" x="77.001953"/>
      <use xlink:href="#DejaVuSans-66" x="138.525391"/>
      <use xlink:href="#DejaVuSans-61" x="173.730469"/>
      <use xlink:href="#DejaVuSans-75" x="235.009766"/>
      <use xlink:href="#DejaVuSans-6c" x="298.388672"/>
      <use xlink:href="#DejaVuSans-74" x="326.171875"/>
     </g>
    </g>
   </g>
  </g>
 </g>
 <defs>
  <clipPath id="p208476eb99">
   <rect x="144" y="34.56" width="405.818182" height="217.44"/>
  </clipPath>
  <clipPath id="p7dba5b58fe">
   <rect x="630.981818" y="34.56" width="405.818182" height="217.44"/>
  </clipPath>
 </defs>
</svg>
