<?xml version="1.0" encoding="utf-8" standalone="no"?>
<!DOCTYPE svg PUBLIC "-//W3C//DTD SVG 1.1//EN"
  "http://www.w3.org/Graphics/SVG/1.1/DTD/svg11.dtd">
<svg xmlns:xlink="http://www.w3.org/1999/xlink" width="1080pt" height="288pt" viewBox="0 0 1080 288" xmlns="http://www.w3.org/2000/svg" version="1.1">
 <metadata>
  <rdf:RDF xmlns:dc="http://purl.org/dc/elements/1.1/" xmlns:cc="http://creativecommons.org/ns#" xmlns:rdf="http://www.w3.org/1999/02/22-rdf-syntax-ns#">
   <cc:Work>
    <dc:type rdf:resource="http://purl.org/dc/dcmitype/StillImage"/>
    <dc:date>2023-03-21T09:39:16.547092</dc:date>
    <dc:format>image/svg+xml</dc:format>
    <dc:creator>
     <cc:Agent>
      <dc:title>Matplotlib v3.5.1, https://matplotlib.org/</dc:title>
     </cc:Agent>
    </dc:creator>
   </cc:Work>
  </rdf:RDF>
 </metadata>
 <defs>
  <style type="text/css">*{stroke-linejoin: round; stroke-linecap: butt}</style>
 </defs>
 <g id="figure_1">
  <g id="patch_1">
   <path d="M 0 288 
L 1080 288 
L 1080 0 
L 0 0 
z
" style="fill: #ffffff"/>
  </g>
  <g id="axes_1">
   <g id="patch_2">
    <path d="M 38.175 245.29375 
L 526.6 245.29375 
L 526.6 26.8 
L 38.175 26.8 
z
" style="fill: #eaeaf2"/>
   </g>
   <g id="matplotlib.axis_1">
    <g id="xtick_1">
     <g id="line2d_1">
      <path d="M 80.359198 245.29375 
L 80.359198 26.8 
" clip-path="url(#p80dd51f0e1)" style="fill: none; stroke: #ffffff; stroke-width: 0.8; stroke-linecap: round"/>
     </g>
     <g id="text_1">
      <!-- 0.0 -->
      <g style="fill: #262626" transform="translate(72.407635 259.892187)scale(0.1 -0.1)">
       <defs>
        <path id="DejaVuSans-30" d="M 2034 4250 
Q 1547 4250 1301 3770 
Q 1056 3291 1056 2328 
Q 1056 1369 1301 889 
Q 1547 409 2034 409 
Q 2525 409 2770 889 
Q 3016 1369 3016 2328 
Q 3016 3291 2770 3770 
Q 2525 4250 2034 4250 
z
M 2034 4750 
Q 2819 4750 3233 4129 
Q 3647 3509 3647 2328 
Q 3647 1150 3233 529 
Q 2819 -91 2034 -91 
Q 1250 -91 836 529 
Q 422 1150 422 2328 
Q 422 3509 836 4129 
Q 1250 4750 2034 4750 
z
" transform="scale(0.015625)"/>
        <path id="DejaVuSans-2e" d="M 684 794 
L 1344 794 
L 1344 0 
L 684 0 
L 684 794 
z
" transform="scale(0.015625)"/>
       </defs>
       <use xlink:href="#DejaVuSans-30"/>
       <use xlink:href="#DejaVuSans-2e" x="63.623047"/>
       <use xlink:href="#DejaVuSans-30" x="95.410156"/>
      </g>
     </g>
    </g>
    <g id="xtick_2">
     <g id="line2d_2">
      <path d="M 160.892162 245.29375 
L 160.892162 26.8 
" clip-path="url(#p80dd51f0e1)" style="fill: none; stroke: #ffffff; stroke-width: 0.8; stroke-linecap: round"/>
     </g>
     <g id="text_2">
      <!-- 0.2 -->
      <g style="fill: #262626" transform="translate(152.940599 259.892187)scale(0.1 -0.1)">
       <defs>
        <path id="DejaVuSans-32" d="M 1228 531 
L 3431 531 
L 3431 0 
L 469 0 
L 469 531 
Q 828 903 1448 1529 
Q 2069 2156 2228 2338 
Q 2531 2678 2651 2914 
Q 2772 3150 2772 3378 
Q 2772 3750 2511 3984 
Q 2250 4219 1831 4219 
Q 1534 4219 1204 4116 
Q 875 4013 500 3803 
L 500 4441 
Q 881 4594 1212 4672 
Q 1544 4750 1819 4750 
Q 2544 4750 2975 4387 
Q 3406 4025 3406 3419 
Q 3406 3131 3298 2873 
Q 3191 2616 2906 2266 
Q 2828 2175 2409 1742 
Q 1991 1309 1228 531 
z
" transform="scale(0.015625)"/>
       </defs>
       <use xlink:href="#DejaVuSans-30"/>
       <use xlink:href="#DejaVuSans-2e" x="63.623047"/>
       <use xlink:href="#DejaVuSans-32" x="95.410156"/>
      </g>
     </g>
    </g>
    <g id="xtick_3">
     <g id="line2d_3">
      <path d="M 241.425126 245.29375 
L 241.425126 26.8 
" clip-path="url(#p80dd51f0e1)" style="fill: none; stroke: #ffffff; stroke-width: 0.8; stroke-linecap: round"/>
     </g>
     <g id="text_3">
      <!-- 0.4 -->
      <g style="fill: #262626" transform="translate(233.473563 259.892187)scale(0.1 -0.1)">
       <defs>
        <path id="DejaVuSans-34" d="M 2419 4116 
L 825 1625 
L 2419 1625 
L 2419 4116 
z
M 2253 4666 
L 3047 4666 
L 3047 1625 
L 3713 1625 
L 3713 1100 
L 3047 1100 
L 3047 0 
L 2419 0 
L 2419 1100 
L 313 1100 
L 313 1709 
L 2253 4666 
z
" transform="scale(0.015625)"/>
       </defs>
       <use xlink:href="#DejaVuSans-30"/>
       <use xlink:href="#DejaVuSans-2e" x="63.623047"/>
       <use xlink:href="#DejaVuSans-34" x="95.410156"/>
      </g>
     </g>
    </g>
    <g id="xtick_4">
     <g id="line2d_4">
      <path d="M 321.958089 245.29375 
L 321.958089 26.8 
" clip-path="url(#p80dd51f0e1)" style="fill: none; stroke: #ffffff; stroke-width: 0.8; stroke-linecap: round"/>
     </g>
     <g id="text_4">
      <!-- 0.6 -->
      <g style="fill: #262626" transform="translate(314.006527 259.892187)scale(0.1 -0.1)">
       <defs>
        <path id="DejaVuSans-36" d="M 2113 2584 
Q 1688 2584 1439 2293 
Q 1191 2003 1191 1497 
Q 1191 994 1439 701 
Q 1688 409 2113 409 
Q 2538 409 2786 701 
Q 3034 994 3034 1497 
Q 3034 2003 2786 2293 
Q 2538 2584 2113 2584 
z
M 3366 4563 
L 3366 3988 
Q 3128 4100 2886 4159 
Q 2644 4219 2406 4219 
Q 1781 4219 1451 3797 
Q 1122 3375 1075 2522 
Q 1259 2794 1537 2939 
Q 1816 3084 2150 3084 
Q 2853 3084 3261 2657 
Q 3669 2231 3669 1497 
Q 3669 778 3244 343 
Q 2819 -91 2113 -91 
Q 1303 -91 875 529 
Q 447 1150 447 2328 
Q 447 3434 972 4092 
Q 1497 4750 2381 4750 
Q 2619 4750 2861 4703 
Q 3103 4656 3366 4563 
z
" transform="scale(0.015625)"/>
       </defs>
       <use xlink:href="#DejaVuSans-30"/>
       <use xlink:href="#DejaVuSans-2e" x="63.623047"/>
       <use xlink:href="#DejaVuSans-36" x="95.410156"/>
      </g>
     </g>
    </g>
    <g id="xtick_5">
     <g id="line2d_5">
      <path d="M 402.491053 245.29375 
L 402.491053 26.8 
" clip-path="url(#p80dd51f0e1)" style="fill: none; stroke: #ffffff; stroke-width: 0.8; stroke-linecap: round"/>
     </g>
     <g id="text_5">
      <!-- 0.8 -->
      <g style="fill: #262626" transform="translate(394.539491 259.892187)scale(0.1 -0.1)">
       <defs>
        <path id="DejaVuSans-38" d="M 2034 2216 
Q 1584 2216 1326 1975 
Q 1069 1734 1069 1313 
Q 1069 891 1326 650 
Q 1584 409 2034 409 
Q 2484 409 2743 651 
Q 3003 894 3003 1313 
Q 3003 1734 2745 1975 
Q 2488 2216 2034 2216 
z
M 1403 2484 
Q 997 2584 770 2862 
Q 544 3141 544 3541 
Q 544 4100 942 4425 
Q 1341 4750 2034 4750 
Q 2731 4750 3128 4425 
Q 3525 4100 3525 3541 
Q 3525 3141 3298 2862 
Q 3072 2584 2669 2484 
Q 3125 2378 3379 2068 
Q 3634 1759 3634 1313 
Q 3634 634 3220 271 
Q 2806 -91 2034 -91 
Q 1263 -91 848 271 
Q 434 634 434 1313 
Q 434 1759 690 2068 
Q 947 2378 1403 2484 
z
M 1172 3481 
Q 1172 3119 1398 2916 
Q 1625 2713 2034 2713 
Q 2441 2713 2670 2916 
Q 2900 3119 2900 3481 
Q 2900 3844 2670 4047 
Q 2441 4250 2034 4250 
Q 1625 4250 1398 4047 
Q 1172 3844 1172 3481 
z
" transform="scale(0.015625)"/>
       </defs>
       <use xlink:href="#DejaVuSans-30"/>
       <use xlink:href="#DejaVuSans-2e" x="63.623047"/>
       <use xlink:href="#DejaVuSans-38" x="95.410156"/>
      </g>
     </g>
    </g>
    <g id="xtick_6">
     <g id="line2d_6">
      <path d="M 483.024017 245.29375 
L 483.024017 26.8 
" clip-path="url(#p80dd51f0e1)" style="fill: none; stroke: #ffffff; stroke-width: 0.8; stroke-linecap: round"/>
     </g>
     <g id="text_6">
      <!-- 1.0 -->
      <g style="fill: #262626" transform="translate(475.072455 259.892187)scale(0.1 -0.1)">
       <defs>
        <path id="DejaVuSans-31" d="M 794 531 
L 1825 531 
L 1825 4091 
L 703 3866 
L 703 4441 
L 1819 4666 
L 2450 4666 
L 2450 531 
L 3481 531 
L 3481 0 
L 794 0 
L 794 531 
z
" transform="scale(0.015625)"/>
       </defs>
       <use xlink:href="#DejaVuSans-31"/>
       <use xlink:href="#DejaVuSans-2e" x="63.623047"/>
       <use xlink:href="#DejaVuSans-30" x="95.410156"/>
      </g>
     </g>
    </g>
    <g id="text_7">
     <!-- LIMIT_BAL -->
     <g style="fill: #262626" transform="translate(257.146875 273.292188)scale(0.1 -0.1)">
      <defs>
       <path id="DejaVuSans-4c" d="M 628 4666 
L 1259 4666 
L 1259 531 
L 3531 531 
L 3531 0 
L 628 0 
L 628 4666 
z
" transform="scale(0.015625)"/>
       <path id="DejaVuSans-49" d="M 628 4666 
L 1259 4666 
L 1259 0 
L 628 0 
L 628 4666 
z
" transform="scale(0.015625)"/>
       <path id="DejaVuSans-4d" d="M 628 4666 
L 1569 4666 
L 2759 1491 
L 3956 4666 
L 4897 4666 
L 4897 0 
L 4281 0 
L 4281 4097 
L 3078 897 
L 2444 897 
L 1241 4097 
L 1241 0 
L 628 0 
L 628 4666 
z
" transform="scale(0.015625)"/>
       <path id="DejaVuSans-54" d="M -19 4666 
L 3928 4666 
L 3928 4134 
L 2272 4134 
L 2272 0 
L 1638 0 
L 1638 4134 
L -19 4134 
L -19 4666 
z
" transform="scale(0.015625)"/>
       <path id="DejaVuSans-5f" d="M 3263 -1063 
L 3263 -1509 
L -63 -1509 
L -63 -1063 
L 3263 -1063 
z
" transform="scale(0.015625)"/>
       <path id="DejaVuSans-42" d="M 1259 2228 
L 1259 519 
L 2272 519 
Q 2781 519 3026 730 
Q 3272 941 3272 1375 
Q 3272 1813 3026 2020 
Q 2781 2228 2272 2228 
L 1259 2228 
z
M 1259 4147 
L 1259 2741 
L 2194 2741 
Q 2656 2741 2882 2914 
Q 3109 3088 3109 3444 
Q 3109 3797 2882 3972 
Q 2656 4147 2194 4147 
L 1259 4147 
z
M 628 4666 
L 2241 4666 
Q 2963 4666 3353 4366 
Q 3744 4066 3744 3513 
Q 3744 3084 3544 2831 
Q 3344 2578 2956 2516 
Q 3422 2416 3680 2098 
Q 3938 1781 3938 1306 
Q 3938 681 3513 340 
Q 3088 0 2303 0 
L 628 0 
L 628 4666 
z
" transform="scale(0.015625)"/>
       <path id="DejaVuSans-41" d="M 2188 4044 
L 1331 1722 
L 3047 1722 
L 2188 4044 
z
M 1831 4666 
L 2547 4666 
L 4325 0 
L 3669 0 
L 3244 1197 
L 1141 1197 
L 716 0 
L 50 0 
L 1831 4666 
z
" transform="scale(0.015625)"/>
      </defs>
      <use xlink:href="#DejaVuSans-4c"/>
      <use xlink:href="#DejaVuSans-49" x="55.712891"/>
      <use xlink:href="#DejaVuSans-4d" x="85.205078"/>
      <use xlink:href="#DejaVuSans-49" x="171.484375"/>
      <use xlink:href="#DejaVuSans-54" x="200.976562"/>
      <use xlink:href="#DejaVuSans-5f" x="262.060547"/>
      <use xlink:href="#DejaVuSans-42" x="312.060547"/>
      <use xlink:href="#DejaVuSans-41" x="380.664062"/>
      <use xlink:href="#DejaVuSans-4c" x="449.072266"/>
     </g>
    </g>
    <g id="text_8">
     <!-- 1e6 -->
     <g style="fill: #262626" transform="translate(507.721875 272.570312)scale(0.1 -0.1)">
      <defs>
       <path id="DejaVuSans-65" d="M 3597 1894 
L 3597 1613 
L 953 1613 
Q 991 1019 1311 708 
Q 1631 397 2203 397 
Q 2534 397 2845 478 
Q 3156 559 3463 722 
L 3463 178 
Q 3153 47 2828 -22 
Q 2503 -91 2169 -91 
Q 1331 -91 842 396 
Q 353 884 353 1716 
Q 353 2575 817 3079 
Q 1281 3584 2069 3584 
Q 2775 3584 3186 3129 
Q 3597 2675 3597 1894 
z
M 3022 2063 
Q 3016 2534 2758 2815 
Q 2500 3097 2075 3097 
Q 1594 3097 1305 2825 
Q 1016 2553 972 2059 
L 3022 2063 
z
" transform="scale(0.015625)"/>
      </defs>
      <use xlink:href="#DejaVuSans-31"/>
      <use xlink:href="#DejaVuSans-65" x="63.623047"/>
      <use xlink:href="#DejaVuSans-36" x="125.146484"/>
     </g>
    </g>
   </g>
   <g id="matplotlib.axis_2">
    <g id="ytick_1">
     <g id="line2d_7">
      <path d="M 38.175 245.29375 
L 526.6 245.29375 
" clip-path="url(#p80dd51f0e1)" style="fill: none; stroke: #ffffff; stroke-width: 0.8; stroke-linecap: round"/>
     </g>
     <g id="text_9">
      <!-- 0 -->
      <g style="fill: #262626" transform="translate(24.8125 249.092969)scale(0.1 -0.1)">
       <use xlink:href="#DejaVuSans-30"/>
      </g>
     </g>
    </g>
    <g id="ytick_2">
     <g id="line2d_8">
      <path d="M 38.175 212.893683 
L 526.6 212.893683 
" clip-path="url(#p80dd51f0e1)" style="fill: none; stroke: #ffffff; stroke-width: 0.8; stroke-linecap: round"/>
     </g>
     <g id="text_10">
      <!-- 1 -->
      <g style="fill: #262626" transform="translate(24.8125 216.692901)scale(0.1 -0.1)">
       <use xlink:href="#DejaVuSans-31"/>
      </g>
     </g>
    </g>
    <g id="ytick_3">
     <g id="line2d_9">
      <path d="M 38.175 180.493615 
L 526.6 180.493615 
" clip-path="url(#p80dd51f0e1)" style="fill: none; stroke: #ffffff; stroke-width: 0.8; stroke-linecap: round"/>
     </g>
     <g id="text_11">
      <!-- 2 -->
      <g style="fill: #262626" transform="translate(24.8125 184.292834)scale(0.1 -0.1)">
       <use xlink:href="#DejaVuSans-32"/>
      </g>
     </g>
    </g>
    <g id="ytick_4">
     <g id="line2d_10">
      <path d="M 38.175 148.093548 
L 526.6 148.093548 
" clip-path="url(#p80dd51f0e1)" style="fill: none; stroke: #ffffff; stroke-width: 0.8; stroke-linecap: round"/>
     </g>
     <g id="text_12">
      <!-- 3 -->
      <g style="fill: #262626" transform="translate(24.8125 151.892767)scale(0.1 -0.1)">
       <defs>
        <path id="DejaVuSans-33" d="M 2597 2516 
Q 3050 2419 3304 2112 
Q 3559 1806 3559 1356 
Q 3559 666 3084 287 
Q 2609 -91 1734 -91 
Q 1441 -91 1130 -33 
Q 819 25 488 141 
L 488 750 
Q 750 597 1062 519 
Q 1375 441 1716 441 
Q 2309 441 2620 675 
Q 2931 909 2931 1356 
Q 2931 1769 2642 2001 
Q 2353 2234 1838 2234 
L 1294 2234 
L 1294 2753 
L 1863 2753 
Q 2328 2753 2575 2939 
Q 2822 3125 2822 3475 
Q 2822 3834 2567 4026 
Q 2313 4219 1838 4219 
Q 1578 4219 1281 4162 
Q 984 4106 628 3988 
L 628 4550 
Q 988 4650 1302 4700 
Q 1616 4750 1894 4750 
Q 2613 4750 3031 4423 
Q 3450 4097 3450 3541 
Q 3450 3153 3228 2886 
Q 3006 2619 2597 2516 
z
" transform="scale(0.015625)"/>
       </defs>
       <use xlink:href="#DejaVuSans-33"/>
      </g>
     </g>
    </g>
    <g id="ytick_5">
     <g id="line2d_11">
      <path d="M 38.175 115.69348 
L 526.6 115.69348 
" clip-path="url(#p80dd51f0e1)" style="fill: none; stroke: #ffffff; stroke-width: 0.8; stroke-linecap: round"/>
     </g>
     <g id="text_13">
      <!-- 4 -->
      <g style="fill: #262626" transform="translate(24.8125 119.492699)scale(0.1 -0.1)">
       <use xlink:href="#DejaVuSans-34"/>
      </g>
     </g>
    </g>
    <g id="ytick_6">
     <g id="line2d_12">
      <path d="M 38.175 83.293413 
L 526.6 83.293413 
" clip-path="url(#p80dd51f0e1)" style="fill: none; stroke: #ffffff; stroke-width: 0.8; stroke-linecap: round"/>
     </g>
     <g id="text_14">
      <!-- 5 -->
      <g style="fill: #262626" transform="translate(24.8125 87.092632)scale(0.1 -0.1)">
       <defs>
        <path id="DejaVuSans-35" d="M 691 4666 
L 3169 4666 
L 3169 4134 
L 1269 4134 
L 1269 2991 
Q 1406 3038 1543 3061 
Q 1681 3084 1819 3084 
Q 2600 3084 3056 2656 
Q 3513 2228 3513 1497 
Q 3513 744 3044 326 
Q 2575 -91 1722 -91 
Q 1428 -91 1123 -41 
Q 819 9 494 109 
L 494 744 
Q 775 591 1075 516 
Q 1375 441 1709 441 
Q 2250 441 2565 725 
Q 2881 1009 2881 1497 
Q 2881 1984 2565 2268 
Q 2250 2553 1709 2553 
Q 1456 2553 1204 2497 
Q 953 2441 691 2322 
L 691 4666 
z
" transform="scale(0.015625)"/>
       </defs>
       <use xlink:href="#DejaVuSans-35"/>
      </g>
     </g>
    </g>
    <g id="ytick_7">
     <g id="line2d_13">
      <path d="M 38.175 50.893346 
L 526.6 50.893346 
" clip-path="url(#p80dd51f0e1)" style="fill: none; stroke: #ffffff; stroke-width: 0.8; stroke-linecap: round"/>
     </g>
     <g id="text_15">
      <!-- 6 -->
      <g style="fill: #262626" transform="translate(24.8125 54.692564)scale(0.1 -0.1)">
       <use xlink:href="#DejaVuSans-36"/>
      </g>
     </g>
    </g>
    <g id="text_16">
     <!-- Density -->
     <g style="fill: #262626" transform="translate(18.732812 155.055469)rotate(-90)scale(0.1 -0.1)">
      <defs>
       <path id="DejaVuSans-44" d="M 1259 4147 
L 1259 519 
L 2022 519 
Q 2988 519 3436 956 
Q 3884 1394 3884 2338 
Q 3884 3275 3436 3711 
Q 2988 4147 2022 4147 
L 1259 4147 
z
M 628 4666 
L 1925 4666 
Q 3281 4666 3915 4102 
Q 4550 3538 4550 2338 
Q 4550 1131 3912 565 
Q 3275 0 1925 0 
L 628 0 
L 628 4666 
z
" transform="scale(0.015625)"/>
       <path id="DejaVuSans-6e" d="M 3513 2113 
L 3513 0 
L 2938 0 
L 2938 2094 
Q 2938 2591 2744 2837 
Q 2550 3084 2163 3084 
Q 1697 3084 1428 2787 
Q 1159 2491 1159 1978 
L 1159 0 
L 581 0 
L 581 3500 
L 1159 3500 
L 1159 2956 
Q 1366 3272 1645 3428 
Q 1925 3584 2291 3584 
Q 2894 3584 3203 3211 
Q 3513 2838 3513 2113 
z
" transform="scale(0.015625)"/>
       <path id="DejaVuSans-73" d="M 2834 3397 
L 2834 2853 
Q 2591 2978 2328 3040 
Q 2066 3103 1784 3103 
Q 1356 3103 1142 2972 
Q 928 2841 928 2578 
Q 928 2378 1081 2264 
Q 1234 2150 1697 2047 
L 1894 2003 
Q 2506 1872 2764 1633 
Q 3022 1394 3022 966 
Q 3022 478 2636 193 
Q 2250 -91 1575 -91 
Q 1294 -91 989 -36 
Q 684 19 347 128 
L 347 722 
Q 666 556 975 473 
Q 1284 391 1588 391 
Q 1994 391 2212 530 
Q 2431 669 2431 922 
Q 2431 1156 2273 1281 
Q 2116 1406 1581 1522 
L 1381 1569 
Q 847 1681 609 1914 
Q 372 2147 372 2553 
Q 372 3047 722 3315 
Q 1072 3584 1716 3584 
Q 2034 3584 2315 3537 
Q 2597 3491 2834 3397 
z
" transform="scale(0.015625)"/>
       <path id="DejaVuSans-69" d="M 603 3500 
L 1178 3500 
L 1178 0 
L 603 0 
L 603 3500 
z
M 603 4863 
L 1178 4863 
L 1178 4134 
L 603 4134 
L 603 4863 
z
" transform="scale(0.015625)"/>
       <path id="DejaVuSans-74" d="M 1172 4494 
L 1172 3500 
L 2356 3500 
L 2356 3053 
L 1172 3053 
L 1172 1153 
Q 1172 725 1289 603 
Q 1406 481 1766 481 
L 2356 481 
L 2356 0 
L 1766 0 
Q 1100 0 847 248 
Q 594 497 594 1153 
L 594 3053 
L 172 3053 
L 172 3500 
L 594 3500 
L 594 4494 
L 1172 4494 
z
" transform="scale(0.015625)"/>
       <path id="DejaVuSans-79" d="M 2059 -325 
Q 1816 -950 1584 -1140 
Q 1353 -1331 966 -1331 
L 506 -1331 
L 506 -850 
L 844 -850 
Q 1081 -850 1212 -737 
Q 1344 -625 1503 -206 
L 1606 56 
L 191 3500 
L 800 3500 
L 1894 763 
L 2988 3500 
L 3597 3500 
L 2059 -325 
z
" transform="scale(0.015625)"/>
      </defs>
      <use xlink:href="#DejaVuSans-44"/>
      <use xlink:href="#DejaVuSans-65" x="77.001953"/>
      <use xlink:href="#DejaVuSans-6e" x="138.525391"/>
      <use xlink:href="#DejaVuSans-73" x="201.904297"/>
      <use xlink:href="#DejaVuSans-69" x="254.003906"/>
      <use xlink:href="#DejaVuSans-74" x="281.787109"/>
      <use xlink:href="#DejaVuSans-79" x="320.996094"/>
     </g>
    </g>
    <g id="text_17">
     <!-- 1e−6 -->
     <g style="fill: #262626" transform="translate(38.175 23.8)scale(0.1 -0.1)">
      <defs>
       <path id="DejaVuSans-2212" d="M 678 2272 
L 4684 2272 
L 4684 1741 
L 678 1741 
L 678 2272 
z
" transform="scale(0.015625)"/>
      </defs>
      <use xlink:href="#DejaVuSans-31"/>
      <use xlink:href="#DejaVuSans-65" x="63.623047"/>
      <use xlink:href="#DejaVuSans-2212" x="125.146484"/>
      <use xlink:href="#DejaVuSans-36" x="208.935547"/>
     </g>
    </g>
   </g>
   <g id="PolyCollection_1">
    <defs>
     <path id="m54844f7106" d="M 60.376136 -43.087764 
L 60.376136 -42.70625 
L 62.094552 -42.70625 
L 63.812968 -42.70625 
L 65.531384 -42.70625 
L 67.249799 -42.70625 
L 68.968215 -42.70625 
L 70.686631 -42.70625 
L 72.405047 -42.70625 
L 74.123462 -42.70625 
L 75.841878 -42.70625 
L 77.560294 -42.70625 
L 79.27871 -42.70625 
L 80.997126 -42.70625 
L 82.715541 -42.70625 
L 84.433957 -42.70625 
L 86.152373 -42.70625 
L 87.870789 -42.70625 
L 89.589204 -42.70625 
L 91.30762 -42.70625 
L 93.026036 -42.70625 
L 94.744452 -42.70625 
L 96.462867 -42.70625 
L 98.181283 -42.70625 
L 99.899699 -42.70625 
L 101.618115 -42.70625 
L 103.336531 -42.70625 
L 105.054946 -42.70625 
L 106.773362 -42.70625 
L 108.491778 -42.70625 
L 110.210194 -42.70625 
L 111.928609 -42.70625 
L 113.647025 -42.70625 
L 115.365441 -42.70625 
L 117.083857 -42.70625 
L 118.802272 -42.70625 
L 120.520688 -42.70625 
L 122.239104 -42.70625 
L 123.95752 -42.70625 
L 125.675935 -42.70625 
L 127.394351 -42.70625 
L 129.112767 -42.70625 
L 130.831183 -42.70625 
L 132.549599 -42.70625 
L 134.268014 -42.70625 
L 135.98643 -42.70625 
L 137.704846 -42.70625 
L 139.423262 -42.70625 
L 141.141677 -42.70625 
L 142.860093 -42.70625 
L 144.578509 -42.70625 
L 146.296925 -42.70625 
L 148.01534 -42.70625 
L 149.733756 -42.70625 
L 151.452172 -42.70625 
L 153.170588 -42.70625 
L 154.889003 -42.70625 
L 156.607419 -42.70625 
L 158.325835 -42.70625 
L 160.044251 -42.70625 
L 161.762667 -42.70625 
L 163.481082 -42.70625 
L 165.199498 -42.70625 
L 166.917914 -42.70625 
L 168.63633 -42.70625 
L 170.354745 -42.70625 
L 172.073161 -42.70625 
L 173.791577 -42.70625 
L 175.509993 -42.70625 
L 177.228408 -42.70625 
L 178.946824 -42.70625 
L 180.66524 -42.70625 
L 182.383656 -42.70625 
L 184.102071 -42.70625 
L 185.820487 -42.70625 
L 187.538903 -42.70625 
L 189.257319 -42.70625 
L 190.975735 -42.70625 
L 192.69415 -42.70625 
L 194.412566 -42.70625 
L 196.130982 -42.70625 
L 197.849398 -42.70625 
L 199.567813 -42.70625 
L 201.286229 -42.70625 
L 203.004645 -42.70625 
L 204.723061 -42.70625 
L 206.441476 -42.70625 
L 208.159892 -42.70625 
L 209.878308 -42.70625 
L 211.596724 -42.70625 
L 213.315139 -42.70625 
L 215.033555 -42.70625 
L 216.751971 -42.70625 
L 218.470387 -42.70625 
L 220.188803 -42.70625 
L 221.907218 -42.70625 
L 223.625634 -42.70625 
L 225.34405 -42.70625 
L 227.062466 -42.70625 
L 228.780881 -42.70625 
L 230.499297 -42.70625 
L 232.217713 -42.70625 
L 233.936129 -42.70625 
L 235.654544 -42.70625 
L 237.37296 -42.70625 
L 239.091376 -42.70625 
L 240.809792 -42.70625 
L 242.528208 -42.70625 
L 244.246623 -42.70625 
L 245.965039 -42.70625 
L 247.683455 -42.70625 
L 249.401871 -42.70625 
L 251.120286 -42.70625 
L 252.838702 -42.70625 
L 254.557118 -42.70625 
L 256.275534 -42.70625 
L 257.993949 -42.70625 
L 259.712365 -42.70625 
L 261.430781 -42.70625 
L 263.149197 -42.70625 
L 264.867612 -42.70625 
L 266.586028 -42.70625 
L 268.304444 -42.70625 
L 270.02286 -42.70625 
L 271.741276 -42.70625 
L 273.459691 -42.70625 
L 275.178107 -42.70625 
L 276.896523 -42.70625 
L 278.614939 -42.70625 
L 280.333354 -42.70625 
L 282.05177 -42.70625 
L 283.770186 -42.70625 
L 285.488602 -42.70625 
L 287.207017 -42.70625 
L 288.925433 -42.70625 
L 290.643849 -42.70625 
L 292.362265 -42.70625 
L 294.08068 -42.70625 
L 295.799096 -42.70625 
L 297.517512 -42.70625 
L 299.235928 -42.70625 
L 300.954344 -42.70625 
L 302.672759 -42.70625 
L 304.391175 -42.70625 
L 306.109591 -42.70625 
L 307.828007 -42.70625 
L 309.546422 -42.70625 
L 311.264838 -42.70625 
L 312.983254 -42.70625 
L 314.70167 -42.70625 
L 316.420085 -42.70625 
L 318.138501 -42.70625 
L 319.856917 -42.70625 
L 321.575333 -42.70625 
L 323.293748 -42.70625 
L 325.012164 -42.70625 
L 326.73058 -42.70625 
L 328.448996 -42.70625 
L 330.167412 -42.70625 
L 331.885827 -42.70625 
L 333.604243 -42.70625 
L 335.322659 -42.70625 
L 337.041075 -42.70625 
L 338.75949 -42.70625 
L 340.477906 -42.70625 
L 342.196322 -42.70625 
L 343.914738 -42.70625 
L 345.633153 -42.70625 
L 347.351569 -42.70625 
L 349.069985 -42.70625 
L 350.788401 -42.70625 
L 352.506817 -42.70625 
L 354.225232 -42.70625 
L 355.943648 -42.70625 
L 357.662064 -42.70625 
L 359.38048 -42.70625 
L 361.098895 -42.70625 
L 362.817311 -42.70625 
L 364.535727 -42.70625 
L 366.254143 -42.70625 
L 367.972558 -42.70625 
L 369.690974 -42.70625 
L 371.40939 -42.70625 
L 373.127806 -42.70625 
L 374.846221 -42.70625 
L 376.564637 -42.70625 
L 378.283053 -42.70625 
L 380.001469 -42.70625 
L 381.719885 -42.70625 
L 383.4383 -42.70625 
L 385.156716 -42.70625 
L 386.875132 -42.70625 
L 388.593548 -42.70625 
L 390.311963 -42.70625 
L 392.030379 -42.70625 
L 393.748795 -42.70625 
L 395.467211 -42.70625 
L 397.185626 -42.70625 
L 398.904042 -42.70625 
L 400.622458 -42.70625 
L 402.340874 -42.70625 
L 402.340874 -42.70738 
L 402.340874 -42.70738 
L 400.622458 -42.70837 
L 398.904042 -42.710055 
L 397.185626 -42.712791 
L 395.467211 -42.71702 
L 393.748795 -42.723251 
L 392.030379 -42.732004 
L 390.311963 -42.743727 
L 388.593548 -42.75871 
L 386.875132 -42.776987 
L 385.156716 -42.798281 
L 383.4383 -42.821982 
L 381.719885 -42.847173 
L 380.001469 -42.872701 
L 378.283053 -42.89727 
L 376.564637 -42.919547 
L 374.846221 -42.938275 
L 373.127806 -42.95239 
L 371.40939 -42.961145 
L 369.690974 -42.964222 
L 367.972558 -42.961799 
L 366.254143 -42.954549 
L 364.535727 -42.943525 
L 362.817311 -42.929965 
L 361.098895 -42.915057 
L 359.38048 -42.899735 
L 357.662064 -42.884591 
L 355.943648 -42.869934 
L 354.225232 -42.855967 
L 352.506817 -42.843021 
L 350.788401 -42.831742 
L 349.069985 -42.823164 
L 347.351569 -42.818625 
L 345.633153 -42.819558 
L 343.914738 -42.827212 
L 342.196322 -42.842403 
L 340.477906 -42.865354 
L 338.75949 -42.895659 
L 337.041075 -42.932371 
L 335.322659 -42.974139 
L 333.604243 -43.019359 
L 331.885827 -43.066258 
L 330.167412 -43.11293 
L 328.448996 -43.157351 
L 326.73058 -43.197465 
L 325.012164 -43.231385 
L 323.293748 -43.257749 
L 321.575333 -43.276137 
L 319.856917 -43.287425 
L 318.138501 -43.293901 
L 316.420085 -43.299038 
L 314.70167 -43.306932 
L 312.983254 -43.321583 
L 311.264838 -43.346312 
L 309.546422 -43.383688 
L 307.828007 -43.436245 
L 306.109591 -43.508071 
L 304.391175 -43.607047 
L 302.672759 -43.747128 
L 300.954344 -43.949775 
L 299.235928 -44.243507 
L 297.517512 -44.660717 
L 295.799096 -45.231437 
L 294.08068 -45.974655 
L 292.362265 -46.888875 
L 290.643849 -47.944558 
L 288.925433 -49.081404 
L 287.207017 -50.212768 
L 285.488602 -51.237741 
L 283.770186 -52.059024 
L 282.05177 -52.602458 
L 280.333354 -52.832922 
L 278.614939 -52.761899 
L 276.896523 -52.444321 
L 275.178107 -51.965549 
L 273.459691 -51.422274 
L 271.741276 -50.90275 
L 270.02286 -50.471507 
L 268.304444 -50.161864 
L 266.586028 -49.976936 
L 264.867612 -49.897413 
L 263.149197 -49.892885 
L 261.430781 -49.933136 
L 259.712365 -49.996564 
L 257.993949 -50.074191 
L 256.275534 -50.169237 
L 254.557118 -50.293435 
L 252.838702 -50.461991 
L 251.120286 -50.689205 
L 249.401871 -50.986345 
L 247.683455 -51.362478 
L 245.965039 -51.827879 
L 244.246623 -52.398556 
L 242.528208 -53.099555 
L 240.809792 -53.964538 
L 239.091376 -55.029757 
L 237.37296 -56.322215 
L 235.654544 -57.844176 
L 233.936129 -59.558482 
L 232.217713 -61.380434 
L 230.499297 -63.181251 
L 228.780881 -64.805217 
L 227.062466 -66.098197 
L 225.34405 -66.94084 
L 223.625634 -67.277338 
L 221.907218 -67.131251 
L 220.188803 -66.60353 
L 218.470387 -65.853252 
L 216.751971 -65.06647 
L 215.033555 -64.421422 
L 213.315139 -64.058286 
L 211.596724 -64.05926 
L 209.878308 -64.441386 
L 208.159892 -65.161435 
L 206.441476 -66.130198 
L 204.723061 -67.232669 
L 203.004645 -68.350518 
L 201.286229 -69.383363 
L 199.567813 -70.26569 
L 197.849398 -70.976824 
L 196.130982 -71.542442 
L 194.412566 -72.027625 
L 192.69415 -72.523172 
L 190.975735 -73.128278 
L 189.257319 -73.933291 
L 187.538903 -75.005982 
L 185.820487 -76.383701 
L 184.102071 -78.07233 
L 182.383656 -80.051399 
L 180.66524 -82.283414 
L 178.946824 -84.724436 
L 177.228408 -87.332509 
L 175.509993 -90.070896 
L 173.791577 -92.904544 
L 172.073161 -95.790607 
L 170.354745 -98.666722 
L 168.63633 -101.44276 
L 166.917914 -104.001824 
L 165.199498 -106.213722 
L 163.481082 -107.959614 
L 161.762667 -109.161691 
L 160.044251 -109.8088 
L 158.325835 -109.969212 
L 156.607419 -109.785402 
L 154.889003 -109.451184 
L 153.170588 -109.176817 
L 151.452172 -109.15083 
L 149.733756 -109.507623 
L 148.01534 -110.307822 
L 146.296925 -111.53483 
L 144.578509 -113.107262 
L 142.860093 -114.90368 
L 141.141677 -116.79379 
L 139.423262 -118.669264 
L 137.704846 -120.46781 
L 135.98643 -122.1859 
L 134.268014 -123.878304 
L 132.549599 -125.645607 
L 130.831183 -127.613483 
L 129.112767 -129.909087 
L 127.394351 -132.640273 
L 125.675935 -135.882458 
L 123.95752 -139.676041 
L 122.239104 -144.034632 
L 120.520688 -148.961333 
L 118.802272 -154.467369 
L 117.083857 -160.585487 
L 115.365441 -167.370527 
L 113.647025 -174.88242 
L 111.928609 -183.152475 
L 110.210194 -192.140803 
L 108.491778 -201.698283 
L 106.773362 -211.547251 
L 105.054946 -221.289548 
L 103.336531 -230.44008 
L 101.618115 -238.473472 
L 99.899699 -244.866754 
L 98.181283 -249.125782 
L 96.462867 -250.795536 
L 94.744452 -249.467675 
L 93.026036 -244.804235 
L 91.30762 -236.589449 
L 89.589204 -224.804593 
L 87.870789 -209.702316 
L 86.152373 -191.847502 
L 84.433957 -172.097478 
L 82.715541 -151.513725 
L 80.997126 -131.221494 
L 79.27871 -112.252253 
L 77.560294 -95.408954 
L 75.841878 -81.184908 
L 74.123462 -69.748534 
L 72.405047 -60.986688 
L 70.686631 -54.585538 
L 68.968215 -50.123444 
L 67.249799 -47.15412 
L 65.531384 -45.267015 
L 63.812968 -44.121237 
L 62.094552 -43.456442 
L 60.376136 -43.087764 
z
" style="stroke: #ff8c00"/>
    </defs>
    <g clip-path="url(#p80dd51f0e1)">
     <use xlink:href="#m54844f7106" x="0" y="288" style="fill: #ff8c00; fill-opacity: 0.25; stroke: #ff8c00"/>
    </g>
   </g>
   <g id="PolyCollection_2">
    <defs>
     <path id="m1891bc384d" d="M 63.011 -42.884762 
L 63.011 -42.70625 
L 65.229029 -42.70625 
L 67.447059 -42.70625 
L 69.665088 -42.70625 
L 71.883117 -42.70625 
L 74.101147 -42.70625 
L 76.319176 -42.70625 
L 78.537206 -42.70625 
L 80.755235 -42.70625 
L 82.973265 -42.70625 
L 85.191294 -42.70625 
L 87.409324 -42.70625 
L 89.627353 -42.70625 
L 91.845383 -42.70625 
L 94.063412 -42.70625 
L 96.281442 -42.70625 
L 98.499471 -42.70625 
L 100.717501 -42.70625 
L 102.93553 -42.70625 
L 105.153559 -42.70625 
L 107.371589 -42.70625 
L 109.589618 -42.70625 
L 111.807648 -42.70625 
L 114.025677 -42.70625 
L 116.243707 -42.70625 
L 118.461736 -42.70625 
L 120.679766 -42.70625 
L 122.897795 -42.70625 
L 125.115825 -42.70625 
L 127.333854 -42.70625 
L 129.551884 -42.70625 
L 131.769913 -42.70625 
L 133.987943 -42.70625 
L 136.205972 -42.70625 
L 138.424001 -42.70625 
L 140.642031 -42.70625 
L 142.86006 -42.70625 
L 145.07809 -42.70625 
L 147.296119 -42.70625 
L 149.514149 -42.70625 
L 151.732178 -42.70625 
L 153.950208 -42.70625 
L 156.168237 -42.70625 
L 158.386267 -42.70625 
L 160.604296 -42.70625 
L 162.822326 -42.70625 
L 165.040355 -42.70625 
L 167.258385 -42.70625 
L 169.476414 -42.70625 
L 171.694443 -42.70625 
L 173.912473 -42.70625 
L 176.130502 -42.70625 
L 178.348532 -42.70625 
L 180.566561 -42.70625 
L 182.784591 -42.70625 
L 185.00262 -42.70625 
L 187.22065 -42.70625 
L 189.438679 -42.70625 
L 191.656709 -42.70625 
L 193.874738 -42.70625 
L 196.092768 -42.70625 
L 198.310797 -42.70625 
L 200.528827 -42.70625 
L 202.746856 -42.70625 
L 204.964886 -42.70625 
L 207.182915 -42.70625 
L 209.400944 -42.70625 
L 211.618974 -42.70625 
L 213.837003 -42.70625 
L 216.055033 -42.70625 
L 218.273062 -42.70625 
L 220.491092 -42.70625 
L 222.709121 -42.70625 
L 224.927151 -42.70625 
L 227.14518 -42.70625 
L 229.36321 -42.70625 
L 231.581239 -42.70625 
L 233.799269 -42.70625 
L 236.017298 -42.70625 
L 238.235328 -42.70625 
L 240.453357 -42.70625 
L 242.671386 -42.70625 
L 244.889416 -42.70625 
L 247.107445 -42.70625 
L 249.325475 -42.70625 
L 251.543504 -42.70625 
L 253.761534 -42.70625 
L 255.979563 -42.70625 
L 258.197593 -42.70625 
L 260.415622 -42.70625 
L 262.633652 -42.70625 
L 264.851681 -42.70625 
L 267.069711 -42.70625 
L 269.28774 -42.70625 
L 271.50577 -42.70625 
L 273.723799 -42.70625 
L 275.941828 -42.70625 
L 278.159858 -42.70625 
L 280.377887 -42.70625 
L 282.595917 -42.70625 
L 284.813946 -42.70625 
L 287.031976 -42.70625 
L 289.250005 -42.70625 
L 291.468035 -42.70625 
L 293.686064 -42.70625 
L 295.904094 -42.70625 
L 298.122123 -42.70625 
L 300.340153 -42.70625 
L 302.558182 -42.70625 
L 304.776212 -42.70625 
L 306.994241 -42.70625 
L 309.21227 -42.70625 
L 311.4303 -42.70625 
L 313.648329 -42.70625 
L 315.866359 -42.70625 
L 318.084388 -42.70625 
L 320.302418 -42.70625 
L 322.520447 -42.70625 
L 324.738477 -42.70625 
L 326.956506 -42.70625 
L 329.174536 -42.70625 
L 331.392565 -42.70625 
L 333.610595 -42.70625 
L 335.828624 -42.70625 
L 338.046654 -42.70625 
L 340.264683 -42.70625 
L 342.482713 -42.70625 
L 344.700742 -42.70625 
L 346.918771 -42.70625 
L 349.136801 -42.70625 
L 351.35483 -42.70625 
L 353.57286 -42.70625 
L 355.790889 -42.70625 
L 358.008919 -42.70625 
L 360.226948 -42.70625 
L 362.444978 -42.70625 
L 364.663007 -42.70625 
L 366.881037 -42.70625 
L 369.099066 -42.70625 
L 371.317096 -42.70625 
L 373.535125 -42.70625 
L 375.753155 -42.70625 
L 377.971184 -42.70625 
L 380.189213 -42.70625 
L 382.407243 -42.70625 
L 384.625272 -42.70625 
L 386.843302 -42.70625 
L 389.061331 -42.70625 
L 391.279361 -42.70625 
L 393.49739 -42.70625 
L 395.71542 -42.70625 
L 397.933449 -42.70625 
L 400.151479 -42.70625 
L 402.369508 -42.70625 
L 404.587538 -42.70625 
L 406.805567 -42.70625 
L 409.023597 -42.70625 
L 411.241626 -42.70625 
L 413.459655 -42.70625 
L 415.677685 -42.70625 
L 417.895714 -42.70625 
L 420.113744 -42.70625 
L 422.331773 -42.70625 
L 424.549803 -42.70625 
L 426.767832 -42.70625 
L 428.985862 -42.70625 
L 431.203891 -42.70625 
L 433.421921 -42.70625 
L 435.63995 -42.70625 
L 437.85798 -42.70625 
L 440.076009 -42.70625 
L 442.294039 -42.70625 
L 444.512068 -42.70625 
L 446.730097 -42.70625 
L 448.948127 -42.70625 
L 451.166156 -42.70625 
L 453.384186 -42.70625 
L 455.602215 -42.70625 
L 457.820245 -42.70625 
L 460.038274 -42.70625 
L 462.256304 -42.70625 
L 464.474333 -42.70625 
L 466.692363 -42.70625 
L 468.910392 -42.70625 
L 471.128422 -42.70625 
L 473.346451 -42.70625 
L 475.564481 -42.70625 
L 477.78251 -42.70625 
L 480.000539 -42.70625 
L 482.218569 -42.70625 
L 484.436598 -42.70625 
L 486.654628 -42.70625 
L 488.872657 -42.70625 
L 491.090687 -42.70625 
L 493.308716 -42.70625 
L 495.526746 -42.70625 
L 497.744775 -42.70625 
L 499.962805 -42.70625 
L 502.180834 -42.70625 
L 504.398864 -42.70625 
L 504.398864 -42.706603 
L 504.398864 -42.706603 
L 502.180834 -42.707105 
L 499.962805 -42.708132 
L 497.744775 -42.710009 
L 495.526746 -42.713063 
L 493.308716 -42.717458 
L 491.090687 -42.722985 
L 488.872657 -42.72893 
L 486.654628 -42.734149 
L 484.436598 -42.737398 
L 482.218569 -42.737814 
L 480.000539 -42.735281 
L 477.78251 -42.730485 
L 475.564481 -42.724613 
L 473.346451 -42.718879 
L 471.128422 -42.714133 
L 468.910392 -42.710716 
L 466.692363 -42.708546 
L 464.474333 -42.707322 
L 462.256304 -42.706704 
L 460.038274 -42.706425 
L 457.820245 -42.706311 
L 455.602215 -42.706269 
L 453.384186 -42.706256 
L 451.166156 -42.706251 
L 448.948127 -42.70625 
L 446.730097 -42.70625 
L 444.512068 -42.70625 
L 442.294039 -42.70625 
L 440.076009 -42.70625 
L 437.85798 -42.70625 
L 435.63995 -42.706251 
L 433.421921 -42.706255 
L 431.203891 -42.706269 
L 428.985862 -42.706314 
L 426.767832 -42.706444 
L 424.549803 -42.706785 
L 422.331773 -42.707596 
L 420.113744 -42.709329 
L 417.895714 -42.71267 
L 415.677685 -42.718466 
L 413.459655 -42.727508 
L 411.241626 -42.74018 
L 409.023597 -42.756119 
L 406.805567 -42.774111 
L 404.587538 -42.79236 
L 402.369508 -42.809124 
L 400.151479 -42.823434 
L 397.933449 -42.835569 
L 395.71542 -42.847042 
L 393.49739 -42.860025 
L 391.279361 -42.876396 
L 389.061331 -42.896803 
L 386.843302 -42.920293 
L 384.625272 -42.944895 
L 382.407243 -42.969014 
L 380.189213 -42.992853 
L 377.971184 -43.018854 
L 375.753155 -43.050576 
L 373.535125 -43.090396 
L 371.317096 -43.137224 
L 369.099066 -43.185618 
L 366.881037 -43.227102 
L 364.663007 -43.253348 
L 362.444978 -43.259756 
L 360.226948 -43.247608 
L 358.008919 -43.223672 
L 355.790889 -43.197621 
L 353.57286 -43.178808 
L 351.35483 -43.174048 
L 349.136801 -43.187036 
L 346.918771 -43.218935 
L 344.700742 -43.269188 
L 342.482713 -43.336044 
L 340.264683 -43.416838 
L 338.046654 -43.50822 
L 335.828624 -43.606259 
L 333.610595 -43.706209 
L 331.392565 -43.802045 
L 329.174536 -43.886432 
L 326.956506 -43.951882 
L 324.738477 -43.993134 
L 322.520447 -44.009654 
L 320.302418 -44.006661 
L 318.084388 -43.993725 
L 315.866359 -43.981481 
L 313.648329 -43.9782 
L 311.4303 -43.988274 
L 309.21227 -44.014186 
L 306.994241 -44.063142 
L 304.776212 -44.15935 
L 302.558182 -44.361851 
L 300.340153 -44.784167 
L 298.122123 -45.604878 
L 295.904094 -47.050286 
L 293.686064 -49.329776 
L 291.468035 -52.522466 
L 289.250005 -56.452202 
L 287.031976 -60.626366 
L 284.813946 -64.313478 
L 282.595917 -66.770376 
L 280.377887 -67.529335 
L 278.159858 -66.593564 
L 275.941828 -64.427222 
L 273.723799 -61.746684 
L 271.50577 -59.234796 
L 269.28774 -57.326829 
L 267.069711 -56.149897 
L 264.851681 -55.599939 
L 262.633652 -55.479649 
L 260.415622 -55.618646 
L 258.197593 -55.932546 
L 255.979563 -56.418924 
L 253.761534 -57.114925 
L 251.543504 -58.048049 
L 249.325475 -59.203377 
L 247.107445 -60.518488 
L 244.889416 -61.90917 
L 242.671386 -63.321561 
L 240.453357 -64.791032 
L 238.235328 -66.467801 
L 236.017298 -68.565743 
L 233.799269 -71.226601 
L 231.581239 -74.358783 
L 229.36321 -77.560125 
L 227.14518 -80.21223 
L 224.927151 -81.733397 
L 222.709121 -81.862293 
L 220.491092 -80.807227 
L 218.273062 -79.173247 
L 216.055033 -77.714885 
L 213.837003 -77.05476 
L 211.618974 -77.499939 
L 209.400944 -79.006762 
L 207.182915 -81.263125 
L 204.964886 -83.823911 
L 202.746856 -86.246728 
L 200.528827 -88.199767 
L 198.310797 -89.528986 
L 196.092768 -90.278088 
L 193.874738 -90.661084 
L 191.656709 -90.997078 
L 189.438679 -91.626084 
L 187.22065 -92.827947 
L 185.00262 -94.763346 
L 182.784591 -97.45021 
L 180.566561 -100.783249 
L 178.348532 -104.594888 
L 176.130502 -108.73548 
L 173.912473 -113.124798 
L 171.694443 -117.723435 
L 169.476414 -122.419358 
L 167.258385 -126.905289 
L 165.040355 -130.667073 
L 162.822326 -133.147795 
L 160.604296 -134.018927 
L 158.386267 -133.387893 
L 156.168237 -131.798849 
L 153.950208 -130.02155 
L 151.732178 -128.753001 
L 149.514149 -128.380775 
L 147.296119 -128.888858 
L 145.07809 -129.908947 
L 142.86006 -130.881486 
L 140.642031 -131.274657 
L 138.424001 -130.790625 
L 136.205972 -129.480991 
L 133.987943 -127.72621 
L 131.769913 -126.09847 
L 129.551884 -125.178933 
L 127.333854 -125.404293 
L 125.115825 -126.983595 
L 122.897795 -129.889436 
L 120.679766 -133.912125 
L 118.461736 -138.764953 
L 116.243707 -144.218178 
L 114.025677 -150.204007 
L 111.807648 -156.802105 
L 109.589618 -164.048219 
L 107.371589 -171.637403 
L 105.153559 -178.735969 
L 102.93553 -184.112535 
L 100.717501 -186.579861 
L 98.499471 -185.463172 
L 96.281442 -180.751574 
L 94.063412 -172.84641 
L 91.845383 -162.170318 
L 89.627353 -149.003845 
L 87.409324 -133.673913 
L 85.191294 -116.875538 
L 82.973265 -99.790459 
L 80.755235 -83.855081 
L 78.537206 -70.320302 
L 76.319176 -59.882891 
L 74.101147 -52.579236 
L 71.883117 -47.938896 
L 69.665088 -45.259375 
L 67.447059 -43.851682 
L 65.229029 -43.178279 
L 63.011 -42.884762 
z
" style="stroke: #77dd76"/>
    </defs>
    <g clip-path="url(#p80dd51f0e1)">
     <use xlink:href="#m1891bc384d" x="0" y="288" style="fill: #77dd76; fill-opacity: 0.25; stroke: #77dd76"/>
    </g>
   </g>
   <g id="line2d_14">
    <path d="M 136.732272 245.29375 
L 136.732272 26.8 
" clip-path="url(#p80dd51f0e1)" style="fill: none; stroke-dasharray: 5.55,2.4; stroke-dashoffset: 0; stroke: #77dd76; stroke-width: 1.5"/>
   </g>
   <g id="patch_3">
    <path d="M 38.175 245.29375 
L 38.175 26.8 
" style="fill: none; stroke: #ffffff; stroke-width: 0.8; stroke-linejoin: miter; stroke-linecap: square"/>
   </g>
   <g id="patch_4">
    <path d="M 526.6 245.29375 
L 526.6 26.8 
" style="fill: none; stroke: #ffffff; stroke-width: 0.8; stroke-linejoin: miter; stroke-linecap: square"/>
   </g>
   <g id="patch_5">
    <path d="M 38.175 245.29375 
L 526.6 245.29375 
" style="fill: none; stroke: #ffffff; stroke-width: 0.8; stroke-linejoin: miter; stroke-linecap: square"/>
   </g>
   <g id="patch_6">
    <path d="M 38.175 26.8 
L 526.6 26.8 
" style="fill: none; stroke: #ffffff; stroke-width: 0.8; stroke-linejoin: miter; stroke-linecap: square"/>
   </g>
   <g id="text_18">
    <!-- Density plot of LIMIT_BAL by default type -->
    <g style="fill: #262626" transform="translate(158.688125 20.8)scale(0.12 -0.12)">
     <defs>
      <path id="DejaVuSans-20" transform="scale(0.015625)"/>
      <path id="DejaVuSans-70" d="M 1159 525 
L 1159 -1331 
L 581 -1331 
L 581 3500 
L 1159 3500 
L 1159 2969 
Q 1341 3281 1617 3432 
Q 1894 3584 2278 3584 
Q 2916 3584 3314 3078 
Q 3713 2572 3713 1747 
Q 3713 922 3314 415 
Q 2916 -91 2278 -91 
Q 1894 -91 1617 61 
Q 1341 213 1159 525 
z
M 3116 1747 
Q 3116 2381 2855 2742 
Q 2594 3103 2138 3103 
Q 1681 3103 1420 2742 
Q 1159 2381 1159 1747 
Q 1159 1113 1420 752 
Q 1681 391 2138 391 
Q 2594 391 2855 752 
Q 3116 1113 3116 1747 
z
" transform="scale(0.015625)"/>
      <path id="DejaVuSans-6c" d="M 603 4863 
L 1178 4863 
L 1178 0 
L 603 0 
L 603 4863 
z
" transform="scale(0.015625)"/>
      <path id="DejaVuSans-6f" d="M 1959 3097 
Q 1497 3097 1228 2736 
Q 959 2375 959 1747 
Q 959 1119 1226 758 
Q 1494 397 1959 397 
Q 2419 397 2687 759 
Q 2956 1122 2956 1747 
Q 2956 2369 2687 2733 
Q 2419 3097 1959 3097 
z
M 1959 3584 
Q 2709 3584 3137 3096 
Q 3566 2609 3566 1747 
Q 3566 888 3137 398 
Q 2709 -91 1959 -91 
Q 1206 -91 779 398 
Q 353 888 353 1747 
Q 353 2609 779 3096 
Q 1206 3584 1959 3584 
z
" transform="scale(0.015625)"/>
      <path id="DejaVuSans-66" d="M 2375 4863 
L 2375 4384 
L 1825 4384 
Q 1516 4384 1395 4259 
Q 1275 4134 1275 3809 
L 1275 3500 
L 2222 3500 
L 2222 3053 
L 1275 3053 
L 1275 0 
L 697 0 
L 697 3053 
L 147 3053 
L 147 3500 
L 697 3500 
L 697 3744 
Q 697 4328 969 4595 
Q 1241 4863 1831 4863 
L 2375 4863 
z
" transform="scale(0.015625)"/>
      <path id="DejaVuSans-62" d="M 3116 1747 
Q 3116 2381 2855 2742 
Q 2594 3103 2138 3103 
Q 1681 3103 1420 2742 
Q 1159 2381 1159 1747 
Q 1159 1113 1420 752 
Q 1681 391 2138 391 
Q 2594 391 2855 752 
Q 3116 1113 3116 1747 
z
M 1159 2969 
Q 1341 3281 1617 3432 
Q 1894 3584 2278 3584 
Q 2916 3584 3314 3078 
Q 3713 2572 3713 1747 
Q 3713 922 3314 415 
Q 2916 -91 2278 -91 
Q 1894 -91 1617 61 
Q 1341 213 1159 525 
L 1159 0 
L 581 0 
L 581 4863 
L 1159 4863 
L 1159 2969 
z
" transform="scale(0.015625)"/>
      <path id="DejaVuSans-64" d="M 2906 2969 
L 2906 4863 
L 3481 4863 
L 3481 0 
L 2906 0 
L 2906 525 
Q 2725 213 2448 61 
Q 2172 -91 1784 -91 
Q 1150 -91 751 415 
Q 353 922 353 1747 
Q 353 2572 751 3078 
Q 1150 3584 1784 3584 
Q 2172 3584 2448 3432 
Q 2725 3281 2906 2969 
z
M 947 1747 
Q 947 1113 1208 752 
Q 1469 391 1925 391 
Q 2381 391 2643 752 
Q 2906 1113 2906 1747 
Q 2906 2381 2643 2742 
Q 2381 3103 1925 3103 
Q 1469 3103 1208 2742 
Q 947 2381 947 1747 
z
" transform="scale(0.015625)"/>
      <path id="DejaVuSans-61" d="M 2194 1759 
Q 1497 1759 1228 1600 
Q 959 1441 959 1056 
Q 959 750 1161 570 
Q 1363 391 1709 391 
Q 2188 391 2477 730 
Q 2766 1069 2766 1631 
L 2766 1759 
L 2194 1759 
z
M 3341 1997 
L 3341 0 
L 2766 0 
L 2766 531 
Q 2569 213 2275 61 
Q 1981 -91 1556 -91 
Q 1019 -91 701 211 
Q 384 513 384 1019 
Q 384 1609 779 1909 
Q 1175 2209 1959 2209 
L 2766 2209 
L 2766 2266 
Q 2766 2663 2505 2880 
Q 2244 3097 1772 3097 
Q 1472 3097 1187 3025 
Q 903 2953 641 2809 
L 641 3341 
Q 956 3463 1253 3523 
Q 1550 3584 1831 3584 
Q 2591 3584 2966 3190 
Q 3341 2797 3341 1997 
z
" transform="scale(0.015625)"/>
      <path id="DejaVuSans-75" d="M 544 1381 
L 544 3500 
L 1119 3500 
L 1119 1403 
Q 1119 906 1312 657 
Q 1506 409 1894 409 
Q 2359 409 2629 706 
Q 2900 1003 2900 1516 
L 2900 3500 
L 3475 3500 
L 3475 0 
L 2900 0 
L 2900 538 
Q 2691 219 2414 64 
Q 2138 -91 1772 -91 
Q 1169 -91 856 284 
Q 544 659 544 1381 
z
M 1991 3584 
L 1991 3584 
z
" transform="scale(0.015625)"/>
     </defs>
     <use xlink:href="#DejaVuSans-44"/>
     <use xlink:href="#DejaVuSans-65" x="77.001953"/>
     <use xlink:href="#DejaVuSans-6e" x="138.525391"/>
     <use xlink:href="#DejaVuSans-73" x="201.904297"/>
     <use xlink:href="#DejaVuSans-69" x="254.003906"/>
     <use xlink:href="#DejaVuSans-74" x="281.787109"/>
     <use xlink:href="#DejaVuSans-79" x="320.996094"/>
     <use xlink:href="#DejaVuSans-20" x="380.175781"/>
     <use xlink:href="#DejaVuSans-70" x="411.962891"/>
     <use xlink:href="#DejaVuSans-6c" x="475.439453"/>
     <use xlink:href="#DejaVuSans-6f" x="503.222656"/>
     <use xlink:href="#DejaVuSans-74" x="564.404297"/>
     <use xlink:href="#DejaVuSans-20" x="603.613281"/>
     <use xlink:href="#DejaVuSans-6f" x="635.400391"/>
     <use xlink:href="#DejaVuSans-66" x="696.582031"/>
     <use xlink:href="#DejaVuSans-20" x="731.787109"/>
     <use xlink:href="#DejaVuSans-4c" x="763.574219"/>
     <use xlink:href="#DejaVuSans-49" x="819.287109"/>
     <use xlink:href="#DejaVuSans-4d" x="848.779297"/>
     <use xlink:href="#DejaVuSans-49" x="935.058594"/>
     <use xlink:href="#DejaVuSans-54" x="964.550781"/>
     <use xlink:href="#DejaVuSans-5f" x="1025.634766"/>
     <use xlink:href="#DejaVuSans-42" x="1075.634766"/>
     <use xlink:href="#DejaVuSans-41" x="1144.238281"/>
     <use xlink:href="#DejaVuSans-4c" x="1212.646484"/>
     <use xlink:href="#DejaVuSans-20" x="1268.359375"/>
     <use xlink:href="#DejaVuSans-62" x="1300.146484"/>
     <use xlink:href="#DejaVuSans-79" x="1363.623047"/>
     <use xlink:href="#DejaVuSans-20" x="1422.802734"/>
     <use xlink:href="#DejaVuSans-64" x="1454.589844"/>
     <use xlink:href="#DejaVuSans-65" x="1518.066406"/>
     <use xlink:href="#DejaVuSans-66" x="1579.589844"/>
     <use xlink:href="#DejaVuSans-61" x="1614.794922"/>
     <use xlink:href="#DejaVuSans-75" x="1676.074219"/>
     <use xlink:href="#DejaVuSans-6c" x="1739.453125"/>
     <use xlink:href="#DejaVuSans-74" x="1767.236328"/>
     <use xlink:href="#DejaVuSans-20" x="1806.445312"/>
     <use xlink:href="#DejaVuSans-74" x="1838.232422"/>
     <use xlink:href="#DejaVuSans-79" x="1877.441406"/>
     <use xlink:href="#DejaVuSans-70" x="1936.621094"/>
     <use xlink:href="#DejaVuSans-65" x="2000.097656"/>
    </g>
   </g>
   <g id="legend_1">
    <g id="patch_7">
     <path d="M 413.395312 64.15625 
L 519.6 64.15625 
Q 521.6 64.15625 521.6 62.15625 
L 521.6 33.8 
Q 521.6 31.8 519.6 31.8 
L 413.395312 31.8 
Q 411.395312 31.8 411.395312 33.8 
L 411.395312 62.15625 
Q 411.395312 64.15625 413.395312 64.15625 
z
" style="fill: #eaeaf2; opacity: 0.8; stroke: #cccccc; stroke-linejoin: miter"/>
    </g>
    <g id="patch_8">
     <path d="M 415.395312 43.398437 
L 435.395312 43.398437 
L 435.395312 36.398437 
L 415.395312 36.398437 
z
" style="fill: #ff8c00; fill-opacity: 0.25; stroke: #ff8c00; stroke-linejoin: miter"/>
    </g>
    <g id="text_19">
     <!-- Defaulters -->
     <g style="fill: #262626" transform="translate(443.395312 43.398437)scale(0.1 -0.1)">
      <defs>
       <path id="DejaVuSans-72" d="M 2631 2963 
Q 2534 3019 2420 3045 
Q 2306 3072 2169 3072 
Q 1681 3072 1420 2755 
Q 1159 2438 1159 1844 
L 1159 0 
L 581 0 
L 581 3500 
L 1159 3500 
L 1159 2956 
Q 1341 3275 1631 3429 
Q 1922 3584 2338 3584 
Q 2397 3584 2469 3576 
Q 2541 3569 2628 3553 
L 2631 2963 
z
" transform="scale(0.015625)"/>
      </defs>
      <use xlink:href="#DejaVuSans-44"/>
      <use xlink:href="#DejaVuSans-65" x="77.001953"/>
      <use xlink:href="#DejaVuSans-66" x="138.525391"/>
      <use xlink:href="#DejaVuSans-61" x="173.730469"/>
      <use xlink:href="#DejaVuSans-75" x="235.009766"/>
      <use xlink:href="#DejaVuSans-6c" x="298.388672"/>
      <use xlink:href="#DejaVuSans-74" x="326.171875"/>
      <use xlink:href="#DejaVuSans-65" x="365.380859"/>
      <use xlink:href="#DejaVuSans-72" x="426.904297"/>
      <use xlink:href="#DejaVuSans-73" x="468.017578"/>
     </g>
    </g>
    <g id="patch_9">
     <path d="M 415.395312 58.076562 
L 435.395312 58.076562 
L 435.395312 51.076562 
L 415.395312 51.076562 
z
" style="fill: #77dd76; fill-opacity: 0.25; stroke: #77dd76; stroke-linejoin: miter"/>
    </g>
    <g id="text_20">
     <!-- Non-defaulters -->
     <g style="fill: #262626" transform="translate(443.395312 58.076562)scale(0.1 -0.1)">
      <defs>
       <path id="DejaVuSans-4e" d="M 628 4666 
L 1478 4666 
L 3547 763 
L 3547 4666 
L 4159 4666 
L 4159 0 
L 3309 0 
L 1241 3903 
L 1241 0 
L 628 0 
L 628 4666 
z
" transform="scale(0.015625)"/>
       <path id="DejaVuSans-2d" d="M 313 2009 
L 1997 2009 
L 1997 1497 
L 313 1497 
L 313 2009 
z
" transform="scale(0.015625)"/>
      </defs>
      <use xlink:href="#DejaVuSans-4e"/>
      <use xlink:href="#DejaVuSans-6f" x="74.804688"/>
      <use xlink:href="#DejaVuSans-6e" x="135.986328"/>
      <use xlink:href="#DejaVuSans-2d" x="199.365234"/>
      <use xlink:href="#DejaVuSans-64" x="235.449219"/>
      <use xlink:href="#DejaVuSans-65" x="298.925781"/>
      <use xlink:href="#DejaVuSans-66" x="360.449219"/>
      <use xlink:href="#DejaVuSans-61" x="395.654297"/>
      <use xlink:href="#DejaVuSans-75" x="456.933594"/>
      <use xlink:href="#DejaVuSans-6c" x="520.3125"/>
      <use xlink:href="#DejaVuSans-74" x="548.095703"/>
      <use xlink:href="#DejaVuSans-65" x="587.304688"/>
      <use xlink:href="#DejaVuSans-72" x="648.828125"/>
      <use xlink:href="#DejaVuSans-73" x="689.941406"/>
     </g>
    </g>
   </g>
  </g>
  <g id="axes_2">
   <g id="patch_10">
    <path d="M 580.775 245.29375 
L 1069.2 245.29375 
L 1069.2 26.8 
L 580.775 26.8 
z
" style="fill: #eaeaf2"/>
   </g>
   <g id="matplotlib.axis_3">
    <g id="xtick_7">
     <g id="line2d_15">
      <path d="M 629.670179 245.29375 
L 629.670179 26.8 
" clip-path="url(#p07b036a02c)" style="fill: none; stroke: #ffffff; stroke-width: 0.8; stroke-linecap: round"/>
     </g>
     <g id="text_21">
      <!-- 20 -->
      <g style="fill: #262626" transform="translate(623.307679 259.892187)scale(0.1 -0.1)">
       <use xlink:href="#DejaVuSans-32"/>
       <use xlink:href="#DejaVuSans-30" x="63.623047"/>
      </g>
     </g>
    </g>
    <g id="xtick_8">
     <g id="line2d_16">
      <path d="M 696.282098 245.29375 
L 696.282098 26.8 
" clip-path="url(#p07b036a02c)" style="fill: none; stroke: #ffffff; stroke-width: 0.8; stroke-linecap: round"/>
     </g>
     <g id="text_22">
      <!-- 30 -->
      <g style="fill: #262626" transform="translate(689.919598 259.892187)scale(0.1 -0.1)">
       <use xlink:href="#DejaVuSans-33"/>
       <use xlink:href="#DejaVuSans-30" x="63.623047"/>
      </g>
     </g>
    </g>
    <g id="xtick_9">
     <g id="line2d_17">
      <path d="M 762.894016 245.29375 
L 762.894016 26.8 
" clip-path="url(#p07b036a02c)" style="fill: none; stroke: #ffffff; stroke-width: 0.8; stroke-linecap: round"/>
     </g>
     <g id="text_23">
      <!-- 40 -->
      <g style="fill: #262626" transform="translate(756.531516 259.892187)scale(0.1 -0.1)">
       <use xlink:href="#DejaVuSans-34"/>
       <use xlink:href="#DejaVuSans-30" x="63.623047"/>
      </g>
     </g>
    </g>
    <g id="xtick_10">
     <g id="line2d_18">
      <path d="M 829.505935 245.29375 
L 829.505935 26.8 
" clip-path="url(#p07b036a02c)" style="fill: none; stroke: #ffffff; stroke-width: 0.8; stroke-linecap: round"/>
     </g>
     <g id="text_24">
      <!-- 50 -->
      <g style="fill: #262626" transform="translate(823.143435 259.892187)scale(0.1 -0.1)">
       <use xlink:href="#DejaVuSans-35"/>
       <use xlink:href="#DejaVuSans-30" x="63.623047"/>
      </g>
     </g>
    </g>
    <g id="xtick_11">
     <g id="line2d_19">
      <path d="M 896.117853 245.29375 
L 896.117853 26.8 
" clip-path="url(#p07b036a02c)" style="fill: none; stroke: #ffffff; stroke-width: 0.8; stroke-linecap: round"/>
     </g>
     <g id="text_25">
      <!-- 60 -->
      <g style="fill: #262626" transform="translate(889.755353 259.892187)scale(0.1 -0.1)">
       <use xlink:href="#DejaVuSans-36"/>
       <use xlink:href="#DejaVuSans-30" x="63.623047"/>
      </g>
     </g>
    </g>
    <g id="xtick_12">
     <g id="line2d_20">
      <path d="M 962.729772 245.29375 
L 962.729772 26.8 
" clip-path="url(#p07b036a02c)" style="fill: none; stroke: #ffffff; stroke-width: 0.8; stroke-linecap: round"/>
     </g>
     <g id="text_26">
      <!-- 70 -->
      <g style="fill: #262626" transform="translate(956.367272 259.892187)scale(0.1 -0.1)">
       <defs>
        <path id="DejaVuSans-37" d="M 525 4666 
L 3525 4666 
L 3525 4397 
L 1831 0 
L 1172 0 
L 2766 4134 
L 525 4134 
L 525 4666 
z
" transform="scale(0.015625)"/>
       </defs>
       <use xlink:href="#DejaVuSans-37"/>
       <use xlink:href="#DejaVuSans-30" x="63.623047"/>
      </g>
     </g>
    </g>
    <g id="xtick_13">
     <g id="line2d_21">
      <path d="M 1029.341691 245.29375 
L 1029.341691 26.8 
" clip-path="url(#p07b036a02c)" style="fill: none; stroke: #ffffff; stroke-width: 0.8; stroke-linecap: round"/>
     </g>
     <g id="text_27">
      <!-- 80 -->
      <g style="fill: #262626" transform="translate(1022.979191 259.892187)scale(0.1 -0.1)">
       <use xlink:href="#DejaVuSans-38"/>
       <use xlink:href="#DejaVuSans-30" x="63.623047"/>
      </g>
     </g>
    </g>
    <g id="text_28">
     <!-- AGE -->
     <g style="fill: #262626" transform="translate(814.621094 273.570312)scale(0.1 -0.1)">
      <defs>
       <path id="DejaVuSans-47" d="M 3809 666 
L 3809 1919 
L 2778 1919 
L 2778 2438 
L 4434 2438 
L 4434 434 
Q 4069 175 3628 42 
Q 3188 -91 2688 -91 
Q 1594 -91 976 548 
Q 359 1188 359 2328 
Q 359 3472 976 4111 
Q 1594 4750 2688 4750 
Q 3144 4750 3555 4637 
Q 3966 4525 4313 4306 
L 4313 3634 
Q 3963 3931 3569 4081 
Q 3175 4231 2741 4231 
Q 1884 4231 1454 3753 
Q 1025 3275 1025 2328 
Q 1025 1384 1454 906 
Q 1884 428 2741 428 
Q 3075 428 3337 486 
Q 3600 544 3809 666 
z
" transform="scale(0.015625)"/>
       <path id="DejaVuSans-45" d="M 628 4666 
L 3578 4666 
L 3578 4134 
L 1259 4134 
L 1259 2753 
L 3481 2753 
L 3481 2222 
L 1259 2222 
L 1259 531 
L 3634 531 
L 3634 0 
L 628 0 
L 628 4666 
z
" transform="scale(0.015625)"/>
      </defs>
      <use xlink:href="#DejaVuSans-41"/>
      <use xlink:href="#DejaVuSans-47" x="66.658203"/>
      <use xlink:href="#DejaVuSans-45" x="144.148438"/>
     </g>
    </g>
   </g>
   <g id="matplotlib.axis_4">
    <g id="ytick_8">
     <g id="line2d_22">
      <path d="M 580.775 245.29375 
L 1069.2 245.29375 
" clip-path="url(#p07b036a02c)" style="fill: none; stroke: #ffffff; stroke-width: 0.8; stroke-linecap: round"/>
     </g>
     <g id="text_29">
      <!-- 0.00 -->
      <g style="fill: #262626" transform="translate(551.509375 249.092969)scale(0.1 -0.1)">
       <use xlink:href="#DejaVuSans-30"/>
       <use xlink:href="#DejaVuSans-2e" x="63.623047"/>
       <use xlink:href="#DejaVuSans-30" x="95.410156"/>
       <use xlink:href="#DejaVuSans-30" x="159.033203"/>
      </g>
     </g>
    </g>
    <g id="ytick_9">
     <g id="line2d_23">
      <path d="M 580.775 203.841954 
L 1069.2 203.841954 
" clip-path="url(#p07b036a02c)" style="fill: none; stroke: #ffffff; stroke-width: 0.8; stroke-linecap: round"/>
     </g>
     <g id="text_30">
      <!-- 0.01 -->
      <g style="fill: #262626" transform="translate(551.509375 207.641173)scale(0.1 -0.1)">
       <use xlink:href="#DejaVuSans-30"/>
       <use xlink:href="#DejaVuSans-2e" x="63.623047"/>
       <use xlink:href="#DejaVuSans-30" x="95.410156"/>
       <use xlink:href="#DejaVuSans-31" x="159.033203"/>
      </g>
     </g>
    </g>
    <g id="ytick_10">
     <g id="line2d_24">
      <path d="M 580.775 162.390158 
L 1069.2 162.390158 
" clip-path="url(#p07b036a02c)" style="fill: none; stroke: #ffffff; stroke-width: 0.8; stroke-linecap: round"/>
     </g>
     <g id="text_31">
      <!-- 0.02 -->
      <g style="fill: #262626" transform="translate(551.509375 166.189376)scale(0.1 -0.1)">
       <use xlink:href="#DejaVuSans-30"/>
       <use xlink:href="#DejaVuSans-2e" x="63.623047"/>
       <use xlink:href="#DejaVuSans-30" x="95.410156"/>
       <use xlink:href="#DejaVuSans-32" x="159.033203"/>
      </g>
     </g>
    </g>
    <g id="ytick_11">
     <g id="line2d_25">
      <path d="M 580.775 120.938361 
L 1069.2 120.938361 
" clip-path="url(#p07b036a02c)" style="fill: none; stroke: #ffffff; stroke-width: 0.8; stroke-linecap: round"/>
     </g>
     <g id="text_32">
      <!-- 0.03 -->
      <g style="fill: #262626" transform="translate(551.509375 124.73758)scale(0.1 -0.1)">
       <use xlink:href="#DejaVuSans-30"/>
       <use xlink:href="#DejaVuSans-2e" x="63.623047"/>
       <use xlink:href="#DejaVuSans-30" x="95.410156"/>
       <use xlink:href="#DejaVuSans-33" x="159.033203"/>
      </g>
     </g>
    </g>
    <g id="ytick_12">
     <g id="line2d_26">
      <path d="M 580.775 79.486565 
L 1069.2 79.486565 
" clip-path="url(#p07b036a02c)" style="fill: none; stroke: #ffffff; stroke-width: 0.8; stroke-linecap: round"/>
     </g>
     <g id="text_33">
      <!-- 0.04 -->
      <g style="fill: #262626" transform="translate(551.509375 83.285784)scale(0.1 -0.1)">
       <use xlink:href="#DejaVuSans-30"/>
       <use xlink:href="#DejaVuSans-2e" x="63.623047"/>
       <use xlink:href="#DejaVuSans-30" x="95.410156"/>
       <use xlink:href="#DejaVuSans-34" x="159.033203"/>
      </g>
     </g>
    </g>
    <g id="ytick_13">
     <g id="line2d_27">
      <path d="M 580.775 38.034769 
L 1069.2 38.034769 
" clip-path="url(#p07b036a02c)" style="fill: none; stroke: #ffffff; stroke-width: 0.8; stroke-linecap: round"/>
     </g>
     <g id="text_34">
      <!-- 0.05 -->
      <g style="fill: #262626" transform="translate(551.509375 41.833988)scale(0.1 -0.1)">
       <use xlink:href="#DejaVuSans-30"/>
       <use xlink:href="#DejaVuSans-2e" x="63.623047"/>
       <use xlink:href="#DejaVuSans-30" x="95.410156"/>
       <use xlink:href="#DejaVuSans-35" x="159.033203"/>
      </g>
     </g>
    </g>
    <g id="text_35">
     <!-- Density -->
     <g style="fill: #262626" transform="translate(545.429687 155.055469)rotate(-90)scale(0.1 -0.1)">
      <use xlink:href="#DejaVuSans-44"/>
      <use xlink:href="#DejaVuSans-65" x="77.001953"/>
      <use xlink:href="#DejaVuSans-6e" x="138.525391"/>
      <use xlink:href="#DejaVuSans-73" x="201.904297"/>
      <use xlink:href="#DejaVuSans-69" x="254.003906"/>
      <use xlink:href="#DejaVuSans-74" x="281.787109"/>
      <use xlink:href="#DejaVuSans-79" x="320.996094"/>
     </g>
    </g>
   </g>
   <g id="PolyCollection_3">
    <defs>
     <path id="m0f52902a20" d="M 602.976136 -42.774091 
L 602.976136 -42.70625 
L 605.118924 -42.70625 
L 607.261713 -42.70625 
L 609.404501 -42.70625 
L 611.547289 -42.70625 
L 613.690077 -42.70625 
L 615.832865 -42.70625 
L 617.975653 -42.70625 
L 620.118441 -42.70625 
L 622.261229 -42.70625 
L 624.404017 -42.70625 
L 626.546805 -42.70625 
L 628.689593 -42.70625 
L 630.832382 -42.70625 
L 632.97517 -42.70625 
L 635.117958 -42.70625 
L 637.260746 -42.70625 
L 639.403534 -42.70625 
L 641.546322 -42.70625 
L 643.68911 -42.70625 
L 645.831898 -42.70625 
L 647.974686 -42.70625 
L 650.117474 -42.70625 
L 652.260262 -42.70625 
L 654.40305 -42.70625 
L 656.545839 -42.70625 
L 658.688627 -42.70625 
L 660.831415 -42.70625 
L 662.974203 -42.70625 
L 665.116991 -42.70625 
L 667.259779 -42.70625 
L 669.402567 -42.70625 
L 671.545355 -42.70625 
L 673.688143 -42.70625 
L 675.830931 -42.70625 
L 677.973719 -42.70625 
L 680.116508 -42.70625 
L 682.259296 -42.70625 
L 684.402084 -42.70625 
L 686.544872 -42.70625 
L 688.68766 -42.70625 
L 690.830448 -42.70625 
L 692.973236 -42.70625 
L 695.116024 -42.70625 
L 697.258812 -42.70625 
L 699.4016 -42.70625 
L 701.544388 -42.70625 
L 703.687176 -42.70625 
L 705.829965 -42.70625 
L 707.972753 -42.70625 
L 710.115541 -42.70625 
L 712.258329 -42.70625 
L 714.401117 -42.70625 
L 716.543905 -42.70625 
L 718.686693 -42.70625 
L 720.829481 -42.70625 
L 722.972269 -42.70625 
L 725.115057 -42.70625 
L 727.257845 -42.70625 
L 729.400634 -42.70625 
L 731.543422 -42.70625 
L 733.68621 -42.70625 
L 735.828998 -42.70625 
L 737.971786 -42.70625 
L 740.114574 -42.70625 
L 742.257362 -42.70625 
L 744.40015 -42.70625 
L 746.542938 -42.70625 
L 748.685726 -42.70625 
L 750.828514 -42.70625 
L 752.971303 -42.70625 
L 755.114091 -42.70625 
L 757.256879 -42.70625 
L 759.399667 -42.70625 
L 761.542455 -42.70625 
L 763.685243 -42.70625 
L 765.828031 -42.70625 
L 767.970819 -42.70625 
L 770.113607 -42.70625 
L 772.256395 -42.70625 
L 774.399183 -42.70625 
L 776.541971 -42.70625 
L 778.68476 -42.70625 
L 780.827548 -42.70625 
L 782.970336 -42.70625 
L 785.113124 -42.70625 
L 787.255912 -42.70625 
L 789.3987 -42.70625 
L 791.541488 -42.70625 
L 793.684276 -42.70625 
L 795.827064 -42.70625 
L 797.969852 -42.70625 
L 800.11264 -42.70625 
L 802.255429 -42.70625 
L 804.398217 -42.70625 
L 806.541005 -42.70625 
L 808.683793 -42.70625 
L 810.826581 -42.70625 
L 812.969369 -42.70625 
L 815.112157 -42.70625 
L 817.254945 -42.70625 
L 819.397733 -42.70625 
L 821.540521 -42.70625 
L 823.683309 -42.70625 
L 825.826097 -42.70625 
L 827.968886 -42.70625 
L 830.111674 -42.70625 
L 832.254462 -42.70625 
L 834.39725 -42.70625 
L 836.540038 -42.70625 
L 838.682826 -42.70625 
L 840.825614 -42.70625 
L 842.968402 -42.70625 
L 845.11119 -42.70625 
L 847.253978 -42.70625 
L 849.396766 -42.70625 
L 851.539555 -42.70625 
L 853.682343 -42.70625 
L 855.825131 -42.70625 
L 857.967919 -42.70625 
L 860.110707 -42.70625 
L 862.253495 -42.70625 
L 864.396283 -42.70625 
L 866.539071 -42.70625 
L 868.681859 -42.70625 
L 870.824647 -42.70625 
L 872.967435 -42.70625 
L 875.110224 -42.70625 
L 877.253012 -42.70625 
L 879.3958 -42.70625 
L 881.538588 -42.70625 
L 883.681376 -42.70625 
L 885.824164 -42.70625 
L 887.966952 -42.70625 
L 890.10974 -42.70625 
L 892.252528 -42.70625 
L 894.395316 -42.70625 
L 896.538104 -42.70625 
L 898.680892 -42.70625 
L 900.823681 -42.70625 
L 902.966469 -42.70625 
L 905.109257 -42.70625 
L 907.252045 -42.70625 
L 909.394833 -42.70625 
L 911.537621 -42.70625 
L 913.680409 -42.70625 
L 915.823197 -42.70625 
L 917.965985 -42.70625 
L 920.108773 -42.70625 
L 922.251561 -42.70625 
L 924.39435 -42.70625 
L 926.537138 -42.70625 
L 928.679926 -42.70625 
L 930.822714 -42.70625 
L 932.965502 -42.70625 
L 935.10829 -42.70625 
L 937.251078 -42.70625 
L 939.393866 -42.70625 
L 941.536654 -42.70625 
L 943.679442 -42.70625 
L 945.82223 -42.70625 
L 947.965018 -42.70625 
L 950.107807 -42.70625 
L 952.250595 -42.70625 
L 954.393383 -42.70625 
L 956.536171 -42.70625 
L 958.678959 -42.70625 
L 960.821747 -42.70625 
L 962.964535 -42.70625 
L 965.107323 -42.70625 
L 967.250111 -42.70625 
L 969.392899 -42.70625 
L 971.535687 -42.70625 
L 973.678476 -42.70625 
L 975.821264 -42.70625 
L 977.964052 -42.70625 
L 980.10684 -42.70625 
L 982.249628 -42.70625 
L 984.392416 -42.70625 
L 986.535204 -42.70625 
L 988.677992 -42.70625 
L 990.82078 -42.70625 
L 992.963568 -42.70625 
L 995.106356 -42.70625 
L 997.249145 -42.70625 
L 999.391933 -42.70625 
L 1001.534721 -42.70625 
L 1003.677509 -42.70625 
L 1005.820297 -42.70625 
L 1007.963085 -42.70625 
L 1010.105873 -42.70625 
L 1012.248661 -42.70625 
L 1014.391449 -42.70625 
L 1016.534237 -42.70625 
L 1018.677025 -42.70625 
L 1020.819813 -42.70625 
L 1022.962602 -42.70625 
L 1025.10539 -42.70625 
L 1027.248178 -42.70625 
L 1029.390966 -42.70625 
L 1029.390966 -42.707985 
L 1029.390966 -42.707985 
L 1027.248178 -42.709317 
L 1025.10539 -42.71149 
L 1022.962602 -42.714901 
L 1020.819813 -42.720067 
L 1018.677025 -42.727617 
L 1016.534237 -42.738271 
L 1014.391449 -42.752812 
L 1012.248661 -42.772028 
L 1010.105873 -42.796651 
L 1007.963085 -42.827289 
L 1005.820297 -42.864357 
L 1003.677509 -42.907997 
L 1001.534721 -42.958006 
L 999.391933 -43.01375 
L 997.249145 -43.074094 
L 995.106356 -43.137364 
L 992.963568 -43.201379 
L 990.82078 -43.263601 
L 988.677992 -43.32141 
L 986.535204 -43.372507 
L 984.392416 -43.415368 
L 982.249628 -43.449659 
L 980.10684 -43.476477 
L 977.964052 -43.498353 
L 975.821264 -43.518955 
L 973.678476 -43.542564 
L 971.535687 -43.573446 
L 969.392899 -43.615274 
L 967.250111 -43.670766 
L 965.107323 -43.741601 
L 962.964535 -43.828618 
L 960.821747 -43.932173 
L 958.678959 -44.052499 
L 956.536171 -44.189916 
L 954.393383 -44.344796 
L 952.250595 -44.517288 
L 950.107807 -44.706928 
L 947.965018 -44.912277 
L 945.82223 -45.130769 
L 943.679442 -45.358862 
L 941.536654 -45.592492 
L 939.393866 -45.827751 
L 937.251078 -46.061619 
L 935.10829 -46.292641 
L 932.965502 -46.521411 
L 930.822714 -46.750862 
L 928.679926 -46.986354 
L 926.537138 -47.235574 
L 924.39435 -47.508251 
L 922.251561 -47.815584 
L 920.108773 -48.169349 
L 917.965985 -48.58062 
L 915.823197 -49.058235 
L 913.680409 -49.607214 
L 911.537621 -50.227517 
L 909.394833 -50.913516 
L 907.252045 -51.65446 
L 905.109257 -52.436012 
L 902.966469 -53.242644 
L 900.823681 -54.060444 
L 898.680892 -54.879772 
L 896.538104 -55.697236 
L 894.395316 -56.51659 
L 892.252528 -57.348456 
L 890.10974 -58.208947 
L 887.966952 -59.117459 
L 885.824164 -60.094009 
L 883.681376 -61.156453 
L 881.538588 -62.317975 
L 879.3958 -63.585164 
L 877.253012 -64.956995 
L 875.110224 -66.424945 
L 872.967435 -67.974318 
L 870.824647 -69.586617 
L 868.681859 -71.242559 
L 866.539071 -72.92512 
L 864.396283 -74.621961 
L 862.253495 -76.32673 
L 860.110707 -78.039029 
L 857.967919 -79.763211 
L 855.825131 -81.506443 
L 853.682343 -83.276606 
L 851.539555 -85.080513 
L 849.396766 -86.9227 
L 847.253978 -88.804763 
L 845.11119 -90.725051 
L 842.968402 -92.67846 
L 840.825614 -94.656256 
L 838.682826 -96.646017 
L 836.540038 -98.632 
L 834.39725 -100.596283 
L 832.254462 -102.520824 
L 830.111674 -104.390281 
L 827.968886 -106.195027 
L 825.826097 -107.933504 
L 823.683309 -109.613042 
L 821.540521 -111.248588 
L 819.397733 -112.859393 
L 817.254945 -114.464404 
L 815.112157 -116.077698 
L 812.969369 -117.705394 
L 810.826581 -119.345188 
L 808.683793 -120.988782 
L 806.541005 -122.626554 
L 804.398217 -124.252981 
L 802.255429 -125.871009 
L 800.11264 -127.493895 
L 797.969852 -129.143839 
L 795.827064 -130.847737 
L 793.684276 -132.631274 
L 791.541488 -134.512933 
L 789.3987 -136.499448 
L 787.255912 -138.583649 
L 785.113124 -140.745016 
L 782.970336 -142.952597 
L 780.827548 -145.169576 
L 778.68476 -147.358599 
L 776.541971 -149.487011 
L 774.399183 -151.531289 
L 772.256395 -153.480139 
L 770.113607 -155.335978 
L 767.970819 -157.114679 
L 765.828031 -158.843705 
L 763.685243 -160.558848 
L 761.542455 -162.299857 
L 759.399667 -164.105273 
L 757.256879 -166.006785 
L 755.114091 -168.02355 
L 752.971303 -170.15711 
L 750.828514 -172.38774 
L 748.685726 -174.673178 
L 746.542938 -176.950533 
L 744.40015 -179.141729 
L 742.257362 -181.162113 
L 740.114574 -182.931098 
L 737.971786 -184.383118 
L 735.828998 -185.476993 
L 733.68621 -186.202109 
L 731.543422 -186.580533 
L 729.400634 -186.665096 
L 727.257845 -186.534229 
L 725.115057 -186.28484 
L 722.972269 -186.02453 
L 720.829481 -185.86412 
L 718.686693 -185.910946 
L 716.543905 -186.2629 
L 714.401117 -187.002887 
L 712.258329 -188.193393 
L 710.115541 -189.871096 
L 707.972753 -192.041913 
L 705.829965 -194.677281 
L 703.687176 -197.712743 
L 701.544388 -201.049872 
L 699.4016 -204.562141 
L 697.258812 -208.104677 
L 695.116024 -211.527003 
L 692.973236 -214.687126 
L 690.830448 -217.464959 
L 688.68766 -219.773064 
L 686.544872 -221.563109 
L 684.402084 -222.827136 
L 682.259296 -223.59341 
L 680.116508 -223.917268 
L 677.973719 -223.867876 
L 675.830931 -223.5122 
L 673.688143 -222.897965 
L 671.545355 -222.037771 
L 669.402567 -220.896835 
L 667.259779 -219.386824 
L 665.116991 -217.36767 
L 662.974203 -214.65823 
L 660.831415 -211.055213 
L 658.688627 -206.358359 
L 656.545839 -200.39866 
L 654.40305 -193.065835 
L 652.260262 -184.331214 
L 650.117474 -174.262733 
L 647.974686 -163.029653 
L 645.831898 -150.895794 
L 643.68911 -138.201478 
L 641.546322 -125.335897 
L 639.403534 -112.703044 
L 637.260746 -100.685575 
L 635.117958 -89.611494 
L 632.97517 -79.728291 
L 630.832382 -71.187913 
L 628.689593 -64.044064 
L 626.546805 -58.261094 
L 624.404017 -53.731825 
L 622.261229 -50.30043 
L 620.118441 -47.786232 
L 617.975653 -46.004881 
L 615.832865 -44.784568 
L 613.690077 -43.976352 
L 611.547289 -43.458872 
L 609.404501 -43.138573 
L 607.261713 -42.946924 
L 605.118924 -42.836073 
L 602.976136 -42.774091 
z
" style="stroke: #ff8c00"/>
    </defs>
    <g clip-path="url(#p07b036a02c)">
     <use xlink:href="#m0f52902a20" x="0" y="288" style="fill: #ff8c00; fill-opacity: 0.25; stroke: #ff8c00"/>
    </g>
   </g>
   <g id="PolyCollection_4">
    <defs>
     <path id="m5f368d7438" d="M 612.013006 -42.755279 
L 612.013006 -42.70625 
L 614.198865 -42.70625 
L 616.384723 -42.70625 
L 618.570582 -42.70625 
L 620.75644 -42.70625 
L 622.942299 -42.70625 
L 625.128158 -42.70625 
L 627.314016 -42.70625 
L 629.499875 -42.70625 
L 631.685733 -42.70625 
L 633.871592 -42.70625 
L 636.05745 -42.70625 
L 638.243309 -42.70625 
L 640.429168 -42.70625 
L 642.615026 -42.70625 
L 644.800885 -42.70625 
L 646.986743 -42.70625 
L 649.172602 -42.70625 
L 651.35846 -42.70625 
L 653.544319 -42.70625 
L 655.730178 -42.70625 
L 657.916036 -42.70625 
L 660.101895 -42.70625 
L 662.287753 -42.70625 
L 664.473612 -42.70625 
L 666.659471 -42.70625 
L 668.845329 -42.70625 
L 671.031188 -42.70625 
L 673.217046 -42.70625 
L 675.402905 -42.70625 
L 677.588763 -42.70625 
L 679.774622 -42.70625 
L 681.960481 -42.70625 
L 684.146339 -42.70625 
L 686.332198 -42.70625 
L 688.518056 -42.70625 
L 690.703915 -42.70625 
L 692.889774 -42.70625 
L 695.075632 -42.70625 
L 697.261491 -42.70625 
L 699.447349 -42.70625 
L 701.633208 -42.70625 
L 703.819066 -42.70625 
L 706.004925 -42.70625 
L 708.190784 -42.70625 
L 710.376642 -42.70625 
L 712.562501 -42.70625 
L 714.748359 -42.70625 
L 716.934218 -42.70625 
L 719.120076 -42.70625 
L 721.305935 -42.70625 
L 723.491794 -42.70625 
L 725.677652 -42.70625 
L 727.863511 -42.70625 
L 730.049369 -42.70625 
L 732.235228 -42.70625 
L 734.421087 -42.70625 
L 736.606945 -42.70625 
L 738.792804 -42.70625 
L 740.978662 -42.70625 
L 743.164521 -42.70625 
L 745.350379 -42.70625 
L 747.536238 -42.70625 
L 749.722097 -42.70625 
L 751.907955 -42.70625 
L 754.093814 -42.70625 
L 756.279672 -42.70625 
L 758.465531 -42.70625 
L 760.65139 -42.70625 
L 762.837248 -42.70625 
L 765.023107 -42.70625 
L 767.208965 -42.70625 
L 769.394824 -42.70625 
L 771.580682 -42.70625 
L 773.766541 -42.70625 
L 775.9524 -42.70625 
L 778.138258 -42.70625 
L 780.324117 -42.70625 
L 782.509975 -42.70625 
L 784.695834 -42.70625 
L 786.881692 -42.70625 
L 789.067551 -42.70625 
L 791.25341 -42.70625 
L 793.439268 -42.70625 
L 795.625127 -42.70625 
L 797.810985 -42.70625 
L 799.996844 -42.70625 
L 802.182703 -42.70625 
L 804.368561 -42.70625 
L 806.55442 -42.70625 
L 808.740278 -42.70625 
L 810.926137 -42.70625 
L 813.111995 -42.70625 
L 815.297854 -42.70625 
L 817.483713 -42.70625 
L 819.669571 -42.70625 
L 821.85543 -42.70625 
L 824.041288 -42.70625 
L 826.227147 -42.70625 
L 828.413006 -42.70625 
L 830.598864 -42.70625 
L 832.784723 -42.70625 
L 834.970581 -42.70625 
L 837.15644 -42.70625 
L 839.342298 -42.70625 
L 841.528157 -42.70625 
L 843.714016 -42.70625 
L 845.899874 -42.70625 
L 848.085733 -42.70625 
L 850.271591 -42.70625 
L 852.45745 -42.70625 
L 854.643309 -42.70625 
L 856.829167 -42.70625 
L 859.015026 -42.70625 
L 861.200884 -42.70625 
L 863.386743 -42.70625 
L 865.572601 -42.70625 
L 867.75846 -42.70625 
L 869.944319 -42.70625 
L 872.130177 -42.70625 
L 874.316036 -42.70625 
L 876.501894 -42.70625 
L 878.687753 -42.70625 
L 880.873611 -42.70625 
L 883.05947 -42.70625 
L 885.245329 -42.70625 
L 887.431187 -42.70625 
L 889.617046 -42.70625 
L 891.802904 -42.70625 
L 893.988763 -42.70625 
L 896.174622 -42.70625 
L 898.36048 -42.70625 
L 900.546339 -42.70625 
L 902.732197 -42.70625 
L 904.918056 -42.70625 
L 907.103914 -42.70625 
L 909.289773 -42.70625 
L 911.475632 -42.70625 
L 913.66149 -42.70625 
L 915.847349 -42.70625 
L 918.033207 -42.70625 
L 920.219066 -42.70625 
L 922.404925 -42.70625 
L 924.590783 -42.70625 
L 926.776642 -42.70625 
L 928.9625 -42.70625 
L 931.148359 -42.70625 
L 933.334217 -42.70625 
L 935.520076 -42.70625 
L 937.705935 -42.70625 
L 939.891793 -42.70625 
L 942.077652 -42.70625 
L 944.26351 -42.70625 
L 946.449369 -42.70625 
L 948.635227 -42.70625 
L 950.821086 -42.70625 
L 953.006945 -42.70625 
L 955.192803 -42.70625 
L 957.378662 -42.70625 
L 959.56452 -42.70625 
L 961.750379 -42.70625 
L 963.936238 -42.70625 
L 966.122096 -42.70625 
L 968.307955 -42.70625 
L 970.493813 -42.70625 
L 972.679672 -42.70625 
L 974.86553 -42.70625 
L 977.051389 -42.70625 
L 979.237248 -42.70625 
L 981.423106 -42.70625 
L 983.608965 -42.70625 
L 985.794823 -42.70625 
L 987.980682 -42.70625 
L 990.166541 -42.70625 
L 992.352399 -42.70625 
L 994.538258 -42.70625 
L 996.724116 -42.70625 
L 998.909975 -42.70625 
L 1001.095833 -42.70625 
L 1003.281692 -42.70625 
L 1005.467551 -42.70625 
L 1007.653409 -42.70625 
L 1009.839268 -42.70625 
L 1012.025126 -42.70625 
L 1014.210985 -42.70625 
L 1016.396844 -42.70625 
L 1018.582702 -42.70625 
L 1020.768561 -42.70625 
L 1022.954419 -42.70625 
L 1025.140278 -42.70625 
L 1027.326136 -42.70625 
L 1029.511995 -42.70625 
L 1031.697854 -42.70625 
L 1033.883712 -42.70625 
L 1036.069571 -42.70625 
L 1038.255429 -42.70625 
L 1040.441288 -42.70625 
L 1042.627146 -42.70625 
L 1044.813005 -42.70625 
L 1046.998864 -42.70625 
L 1046.998864 -42.706906 
L 1046.998864 -42.706906 
L 1044.813005 -42.707672 
L 1042.627146 -42.709112 
L 1040.441288 -42.711609 
L 1038.255429 -42.715581 
L 1036.069571 -42.721356 
L 1033.883712 -42.728991 
L 1031.697854 -42.738087 
L 1029.511995 -42.747704 
L 1027.326136 -42.756464 
L 1025.140278 -42.762876 
L 1022.954419 -42.765798 
L 1020.768561 -42.764881 
L 1018.582702 -42.760818 
L 1016.396844 -42.755289 
L 1014.210985 -42.75063 
L 1012.025126 -42.749334 
L 1009.839268 -42.753508 
L 1007.653409 -42.7644 
L 1005.467551 -42.782068 
L 1003.281692 -42.80526 
L 1001.095833 -42.831602 
L 998.909975 -42.858126 
L 996.724116 -42.88206 
L 994.538258 -42.901654 
L 992.352399 -42.916763 
L 990.166541 -42.928977 
L 987.980682 -42.941278 
L 985.794823 -42.957429 
L 983.608965 -42.981357 
L 981.423106 -43.016744 
L 979.237248 -43.066854 
L 977.051389 -43.134432 
L 974.86553 -43.221423 
L 972.679672 -43.328353 
L 970.493813 -43.453434 
L 968.307955 -43.59174 
L 966.122096 -43.735009 
L 963.936238 -43.872579 
L 961.750379 -43.993617 
L 959.56452 -44.090249 
L 957.378662 -44.160587 
L 955.192803 -44.210393 
L 953.006945 -44.252414 
L 950.821086 -44.303267 
L 948.635227 -44.378841 
L 946.449369 -44.48989 
L 944.26351 -44.639438 
L 942.077652 -44.822772 
L 939.891793 -45.02972 
L 937.705935 -45.248099 
L 935.520076 -45.467055 
L 933.334217 -45.679438 
L 931.148359 -45.882941 
L 928.9625 -46.080162 
L 926.776642 -46.277797 
L 924.590783 -46.485141 
L 922.404925 -46.711934 
L 920.219066 -46.96583 
L 918.033207 -47.250094 
L 915.847349 -47.562498 
L 913.66149 -47.896282 
L 911.475632 -48.24337 
L 909.289773 -48.598991 
L 907.103914 -48.965944 
L 904.918056 -49.356689 
L 902.732197 -49.792175 
L 900.546339 -50.297603 
L 898.36048 -50.896419 
L 896.174622 -51.60432 
L 893.988763 -52.42497 
L 891.802904 -53.348635 
L 889.617046 -54.354412 
L 887.431187 -55.415856 
L 885.245329 -56.508746 
L 883.05947 -57.618631 
L 880.873611 -58.745404 
L 878.687753 -59.903027 
L 876.501894 -61.114568 
L 874.316036 -62.404875 
L 872.130177 -63.794122 
L 869.944319 -65.294453 
L 867.75846 -66.909685 
L 865.572601 -68.635966 
L 863.386743 -70.460927 
L 861.200884 -72.360482 
L 859.015026 -74.295102 
L 856.829167 -76.20936 
L 854.643309 -78.038393 
L 852.45745 -79.722089 
L 850.271591 -81.22356 
L 848.085733 -82.544835 
L 845.899874 -83.732321 
L 843.714016 -84.867973 
L 841.528157 -86.0481 
L 839.342298 -87.357116 
L 837.15644 -88.84564 
L 834.970581 -90.520249 
L 832.784723 -92.347142 
L 830.598864 -94.266655 
L 828.413006 -96.21225 
L 826.227147 -98.127306 
L 824.041288 -99.975513 
L 821.85543 -101.744185 
L 819.669571 -103.442678 
L 817.483713 -105.098985 
L 815.297854 -106.756411 
L 813.111995 -108.470135 
L 810.926137 -110.301803 
L 808.740278 -112.310296 
L 806.55442 -114.538623 
L 804.368561 -116.999662 
L 802.182703 -119.665837 
L 799.996844 -122.468228 
L 797.810985 -125.308339 
L 795.625127 -128.081229 
L 793.439268 -130.703679 
L 791.25341 -133.137811 
L 789.067551 -135.400939 
L 786.881692 -137.557039 
L 784.695834 -139.692482 
L 782.509975 -141.885637 
L 780.324117 -144.182835 
L 778.138258 -146.590192 
L 775.9524 -149.082919 
L 773.766541 -151.625253 
L 771.580682 -154.189613 
L 769.394824 -156.765383 
L 767.208965 -159.354471 
L 765.023107 -161.958409 
L 762.837248 -164.566103 
L 760.65139 -167.150337 
L 758.465531 -169.6757 
L 756.279672 -172.113854 
L 754.093814 -174.457662 
L 751.907955 -176.726262 
L 749.722097 -178.958155 
L 747.536238 -181.195846 
L 745.350379 -183.469725 
L 743.164521 -185.788348 
L 740.978662 -188.138067 
L 738.792804 -190.489825 
L 736.606945 -192.80804 
L 734.421087 -195.056972 
L 732.235228 -197.202967 
L 730.049369 -199.214348 
L 727.863511 -201.062551 
L 725.677652 -202.727452 
L 723.491794 -204.207238 
L 721.305935 -205.530137 
L 719.120076 -206.763506 
L 716.934218 -208.016088 
L 714.748359 -209.431229 
L 712.562501 -211.171344 
L 710.376642 -213.395524 
L 708.190784 -216.232684 
L 706.004925 -219.752668 
L 703.819066 -223.938425 
L 701.633208 -228.664472 
L 699.447349 -233.68951 
L 697.261491 -238.672015 
L 695.075632 -243.213851 
L 692.889774 -246.927398 
L 690.703915 -249.50928 
L 688.518056 -250.795536 
L 686.332198 -250.776275 
L 684.146339 -249.563944 
L 681.960481 -247.331008 
L 679.774622 -244.247081 
L 677.588763 -240.443014 
L 675.402905 -236.011434 
L 673.217046 -231.031475 
L 671.031188 -225.593393 
L 668.845329 -219.802555 
L 666.659471 -213.757314 
L 664.473612 -207.511232 
L 662.287753 -201.038379 
L 660.101895 -194.218683 
L 657.916036 -186.851729 
L 655.730178 -178.697334 
L 653.544319 -169.533677 
L 651.35846 -159.220134 
L 649.172602 -147.751548 
L 646.986743 -135.292158 
L 644.800885 -122.180014 
L 642.615026 -108.896903 
L 640.429168 -96.00547 
L 638.243309 -84.064031 
L 636.05745 -73.537829 
L 633.871592 -64.7291 
L 631.685733 -57.74395 
L 629.499875 -52.502454 
L 627.314016 -48.784365 
L 625.128158 -46.292812 
L 622.942299 -44.71632 
L 620.75644 -43.774855 
L 618.570582 -43.244447 
L 616.384723 -42.9627 
L 614.198865 -42.821698 
L 612.013006 -42.755279 
z
" style="stroke: #77dd76"/>
    </defs>
    <g clip-path="url(#p07b036a02c)">
     <use xlink:href="#m5f368d7438" x="0" y="288" style="fill: #77dd76; fill-opacity: 0.25; stroke: #77dd76"/>
    </g>
   </g>
   <g id="line2d_28">
    <path d="M 669.63733 245.29375 
L 669.63733 26.8 
" clip-path="url(#p07b036a02c)" style="fill: none; stroke-dasharray: 5.55,2.4; stroke-dashoffset: 0; stroke: #77dd76; stroke-width: 1.5"/>
   </g>
   <g id="line2d_29">
    <path d="M 762.894016 245.29375 
L 762.894016 26.8 
" clip-path="url(#p07b036a02c)" style="fill: none; stroke-dasharray: 5.55,2.4; stroke-dashoffset: 0; stroke: #77dd76; stroke-width: 1.5"/>
   </g>
   <g id="patch_11">
    <path d="M 580.775 245.29375 
L 580.775 26.8 
" style="fill: none; stroke: #ffffff; stroke-width: 0.8; stroke-linejoin: miter; stroke-linecap: square"/>
   </g>
   <g id="patch_12">
    <path d="M 1069.2 245.29375 
L 1069.2 26.8 
" style="fill: none; stroke: #ffffff; stroke-width: 0.8; stroke-linejoin: miter; stroke-linecap: square"/>
   </g>
   <g id="patch_13">
    <path d="M 580.775 245.29375 
L 1069.2 245.29375 
" style="fill: none; stroke: #ffffff; stroke-width: 0.8; stroke-linejoin: miter; stroke-linecap: square"/>
   </g>
   <g id="patch_14">
    <path d="M 580.775 26.8 
L 1069.2 26.8 
" style="fill: none; stroke: #ffffff; stroke-width: 0.8; stroke-linejoin: miter; stroke-linecap: square"/>
   </g>
   <g id="text_36">
    <!-- Density plot of AGE by default type -->
    <g style="fill: #262626" transform="translate(719.137187 20.8)scale(0.12 -0.12)">
     <use xlink:href="#DejaVuSans-44"/>
     <use xlink:href="#DejaVuSans-65" x="77.001953"/>
     <use xlink:href="#DejaVuSans-6e" x="138.525391"/>
     <use xlink:href="#DejaVuSans-73" x="201.904297"/>
     <use xlink:href="#DejaVuSans-69" x="254.003906"/>
     <use xlink:href="#DejaVuSans-74" x="281.787109"/>
     <use xlink:href="#DejaVuSans-79" x="320.996094"/>
     <use xlink:href="#DejaVuSans-20" x="380.175781"/>
     <use xlink:href="#DejaVuSans-70" x="411.962891"/>
     <use xlink:href="#DejaVuSans-6c" x="475.439453"/>
     <use xlink:href="#DejaVuSans-6f" x="503.222656"/>
     <use xlink:href="#DejaVuSans-74" x="564.404297"/>
     <use xlink:href="#DejaVuSans-20" x="603.613281"/>
     <use xlink:href="#DejaVuSans-6f" x="635.400391"/>
     <use xlink:href="#DejaVuSans-66" x="696.582031"/>
     <use xlink:href="#DejaVuSans-20" x="731.787109"/>
     <use xlink:href="#DejaVuSans-41" x="763.574219"/>
     <use xlink:href="#DejaVuSans-47" x="830.232422"/>
     <use xlink:href="#DejaVuSans-45" x="907.722656"/>
     <use xlink:href="#DejaVuSans-20" x="970.90625"/>
     <use xlink:href="#DejaVuSans-62" x="1002.693359"/>
     <use xlink:href="#DejaVuSans-79" x="1066.169922"/>
     <use xlink:href="#DejaVuSans-20" x="1125.349609"/>
     <use xlink:href="#DejaVuSans-64" x="1157.136719"/>
     <use xlink:href="#DejaVuSans-65" x="1220.613281"/>
     <use xlink:href="#DejaVuSans-66" x="1282.136719"/>
     <use xlink:href="#DejaVuSans-61" x="1317.341797"/>
     <use xlink:href="#DejaVuSans-75" x="1378.621094"/>
     <use xlink:href="#DejaVuSans-6c" x="1442"/>
     <use xlink:href="#DejaVuSans-74" x="1469.783203"/>
     <use xlink:href="#DejaVuSans-20" x="1508.992188"/>
     <use xlink:href="#DejaVuSans-74" x="1540.779297"/>
     <use xlink:href="#DejaVuSans-79" x="1579.988281"/>
     <use xlink:href="#DejaVuSans-70" x="1639.167969"/>
     <use xlink:href="#DejaVuSans-65" x="1702.644531"/>
    </g>
   </g>
   <g id="legend_2">
    <g id="patch_15">
     <path d="M 955.995312 64.15625 
L 1062.2 64.15625 
Q 1064.2 64.15625 1064.2 62.15625 
L 1064.2 33.8 
Q 1064.2 31.8 1062.2 31.8 
L 955.995312 31.8 
Q 953.995312 31.8 953.995312 33.8 
L 953.995312 62.15625 
Q 953.995312 64.15625 955.995312 64.15625 
z
" style="fill: #eaeaf2; opacity: 0.8; stroke: #cccccc; stroke-linejoin: miter"/>
    </g>
    <g id="patch_16">
     <path d="M 957.995312 43.398437 
L 977.995312 43.398437 
L 977.995312 36.398437 
L 957.995312 36.398437 
z
" style="fill: #ff8c00; fill-opacity: 0.25; stroke: #ff8c00; stroke-linejoin: miter"/>
    </g>
    <g id="text_37">
     <!-- Defaulters -->
     <g style="fill: #262626" transform="translate(985.995312 43.398437)scale(0.1 -0.1)">
      <use xlink:href="#DejaVuSans-44"/>
      <use xlink:href="#DejaVuSans-65" x="77.001953"/>
      <use xlink:href="#DejaVuSans-66" x="138.525391"/>
      <use xlink:href="#DejaVuSans-61" x="173.730469"/>
      <use xlink:href="#DejaVuSans-75" x="235.009766"/>
      <use xlink:href="#DejaVuSans-6c" x="298.388672"/>
      <use xlink:href="#DejaVuSans-74" x="326.171875"/>
      <use xlink:href="#DejaVuSans-65" x="365.380859"/>
      <use xlink:href="#DejaVuSans-72" x="426.904297"/>
      <use xlink:href="#DejaVuSans-73" x="468.017578"/>
     </g>
    </g>
    <g id="patch_17">
     <path d="M 957.995312 58.076562 
L 977.995312 58.076562 
L 977.995312 51.076562 
L 957.995312 51.076562 
z
" style="fill: #77dd76; fill-opacity: 0.25; stroke: #77dd76; stroke-linejoin: miter"/>
    </g>
    <g id="text_38">
     <!-- Non-defaulters -->
     <g style="fill: #262626" transform="translate(985.995312 58.076562)scale(0.1 -0.1)">
      <use xlink:href="#DejaVuSans-4e"/>
      <use xlink:href="#DejaVuSans-6f" x="74.804688"/>
      <use xlink:href="#DejaVuSans-6e" x="135.986328"/>
      <use xlink:href="#DejaVuSans-2d" x="199.365234"/>
      <use xlink:href="#DejaVuSans-64" x="235.449219"/>
      <use xlink:href="#DejaVuSans-65" x="298.925781"/>
      <use xlink:href="#DejaVuSans-66" x="360.449219"/>
      <use xlink:href="#DejaVuSans-61" x="395.654297"/>
      <use xlink:href="#DejaVuSans-75" x="456.933594"/>
      <use xlink:href="#DejaVuSans-6c" x="520.3125"/>
      <use xlink:href="#DejaVuSans-74" x="548.095703"/>
      <use xlink:href="#DejaVuSans-65" x="587.304688"/>
      <use xlink:href="#DejaVuSans-72" x="648.828125"/>
      <use xlink:href="#DejaVuSans-73" x="689.941406"/>
     </g>
    </g>
   </g>
  </g>
 </g>
 <defs>
  <clipPath id="p80dd51f0e1">
   <rect x="38.175" y="26.8" width="488.425" height="218.49375"/>
  </clipPath>
  <clipPath id="p07b036a02c">
   <rect x="580.775" y="26.8" width="488.425" height="218.49375"/>
  </clipPath>
 </defs>
</svg>
